<svg width="200" height="61" viewBox="0 0 200 61" fill="none" xmlns="http://www.w3.org/2000/svg">
<g clip-path="url(#clip0_2763_6058)">
<path fill-rule="evenodd" clip-rule="evenodd" d="M112.228 38.6684C106.346 43.0179 97.7901 45.335 90.4106 45.335C80.0722 45.335 70.8033 41.5204 63.7447 35.1748C63.2099 34.6759 63.6734 33.9984 64.3507 34.3905C71.9441 38.8111 81.32 41.4492 91.0166 41.4492C97.5405 41.4492 104.742 40.0945 111.373 37.2781C112.37 36.886 113.191 37.9555 112.228 38.6684H112.228Z" fill="#FF9900"/>
<path fill-rule="evenodd" clip-rule="evenodd" d="M114.688 35.8534C113.939 34.8908 109.697 35.3899 107.807 35.6395C107.237 35.7107 107.13 35.2117 107.665 34.8551C111.052 32.4666 116.577 33.1796 117.219 33.9639C117.861 34.7482 117.041 40.3091 113.867 42.9476C113.368 43.3397 112.905 43.1258 113.119 42.5911C113.832 40.8085 115.436 36.8512 114.688 35.8534Z" fill="#FF9900"/>
<path fill-rule="evenodd" clip-rule="evenodd" d="M107.914 18.0977V15.7799C107.91 15.7039 107.922 15.6279 107.949 15.5569C107.976 15.4859 108.018 15.4213 108.072 15.3675C108.126 15.3137 108.19 15.2719 108.261 15.2446C108.332 15.2174 108.408 15.2054 108.484 15.2095H118.823C118.978 15.2062 119.129 15.2641 119.242 15.3708C119.356 15.4775 119.423 15.6244 119.429 15.7799V17.7406C119.429 18.0615 119.144 18.489 118.645 19.2023L113.297 26.8314C115.294 26.7957 117.397 27.0809 119.179 28.0787C119.572 28.2926 119.678 28.6492 119.714 28.97V31.4298C119.714 31.7863 119.358 32.1782 118.966 31.9645C115.793 30.289 111.551 30.1107 108.057 32.0002C107.7 32.1784 107.309 31.822 107.309 31.4655V29.1129C107.309 28.7563 107.309 28.115 107.701 27.5443L113.904 18.6676H108.52C108.365 18.6709 108.214 18.613 108.101 18.5064C107.987 18.3999 107.92 18.2531 107.914 18.0977ZM70.2323 32.4639H67.0951C66.9546 32.4497 66.8225 32.3897 66.7194 32.2931C66.6164 32.1964 66.5479 32.0686 66.5247 31.9292V15.8156C66.5309 15.6601 66.5978 15.5132 66.7111 15.4065C66.8245 15.2998 66.9751 15.2419 67.1307 15.2451H70.054C70.1986 15.2473 70.3371 15.3033 70.4426 15.4022C70.5481 15.5011 70.6129 15.6358 70.6244 15.7799V17.8833H70.6957C71.4441 15.8513 72.906 14.8887 74.831 14.8887C76.7918 14.8887 78.0395 15.8513 78.8952 17.8833C79.6436 15.8513 81.3906 14.8887 83.2447 14.8887C84.5637 14.8887 85.9897 15.4235 86.881 16.6713C87.8789 18.0259 87.6653 19.9866 87.6653 21.7335V31.9293C87.6591 32.0848 87.5922 32.2317 87.4789 32.3383C87.3656 32.445 87.2149 32.503 87.0593 32.4997H83.9574C83.6365 32.464 83.387 32.2146 83.387 31.9293V23.3733C83.387 22.6959 83.4582 20.9847 83.3157 20.3431C83.0662 19.2736 82.3889 18.9527 81.4619 18.9527C81.0526 18.9644 80.6557 19.0955 80.32 19.3298C79.9843 19.5642 79.7244 19.8916 79.5724 20.2718C79.2516 21.0917 79.2873 22.4464 79.2873 23.3733V31.9293C79.2811 32.0848 79.2142 32.2317 79.1008 32.3383C78.9875 32.445 78.8369 32.503 78.6813 32.4997H75.5441C75.2233 32.464 74.9737 32.2146 74.9737 31.9293V23.3733C74.9737 21.5907 75.2588 18.917 73.0486 18.917C70.8027 18.917 70.874 21.4838 70.874 23.3733V31.9293C70.8516 32.0818 70.7737 32.2206 70.6553 32.3193C70.5369 32.4179 70.3863 32.4695 70.2323 32.464V32.4639ZM128.341 14.8887C133.011 14.8887 135.543 18.8815 135.543 23.9794C135.543 28.8991 132.762 32.8204 128.341 32.8204C123.778 32.8204 121.283 28.8277 121.283 23.8367C121.247 18.8101 123.778 14.8883 128.341 14.8883V14.8887ZM128.341 18.2041C126.024 18.2041 125.881 21.3769 125.881 23.3377C125.881 25.2984 125.846 29.5051 128.306 29.5051C130.73 29.5051 130.872 26.1183 130.872 24.0506C130.872 22.6959 130.801 21.0561 130.409 19.7726C130.052 18.6318 129.339 18.2041 128.341 18.2041ZM141.567 32.4639H138.43C138.109 32.4282 137.86 32.1788 137.86 31.8935V15.744C137.879 15.5968 137.951 15.4616 138.063 15.3634C138.174 15.2651 138.317 15.2104 138.466 15.2092H141.389C141.522 15.2139 141.649 15.2617 141.752 15.3453C141.855 15.429 141.928 15.5439 141.96 15.6727V18.1325H142.031C142.922 15.9222 144.134 14.8884 146.309 14.8884C147.699 14.8884 149.089 15.3873 149.981 16.7779C150.801 18.0613 150.801 20.2359 150.801 21.8045V31.9646C150.779 32.108 150.705 32.2383 150.593 32.3305C150.481 32.4226 150.339 32.47 150.194 32.4636H147.057C146.772 32.4279 146.522 32.2141 146.487 31.9646V23.1951C146.487 21.4125 146.701 18.8456 144.526 18.8456C143.778 18.8456 143.064 19.3445 142.708 20.1289C142.28 21.1268 142.209 22.0897 142.209 23.1948V31.8938C142.189 32.0504 142.113 32.1945 141.995 32.2994C141.877 32.4042 141.725 32.4628 141.567 32.4642L141.567 32.4639ZM99.6791 24.7637C99.6791 25.9758 99.7148 27.0096 99.1087 28.1153C98.6097 29.0066 97.8253 29.5413 96.934 29.5413C95.7219 29.5413 95.009 28.6145 95.009 27.2597C95.009 24.586 97.3975 24.0869 99.6791 24.0869V24.7637ZM102.852 32.4283C102.75 32.517 102.623 32.5716 102.489 32.5844C102.355 32.5972 102.22 32.5675 102.104 32.4996C101.07 31.644 100.856 31.2162 100.285 30.3962C98.5743 32.1425 97.3265 32.6778 95.1163 32.6778C92.4782 32.6778 90.4105 31.0379 90.4105 27.7938C90.4105 25.2271 91.8008 23.5159 93.7621 22.6602C95.4732 21.9118 97.8621 21.7689 99.6799 21.5551V21.1629C99.6799 20.4145 99.7511 19.523 99.2878 18.8814C98.8957 18.3109 98.1826 18.0615 97.5415 18.0615C96.3293 18.0615 95.2599 18.6675 95.0103 19.9509C94.939 20.2361 94.7608 20.5214 94.4756 20.5214L91.4453 20.2005C91.1959 20.1293 90.9106 19.9511 90.9819 19.5588C91.6948 15.8513 95.0103 14.7461 98.0048 14.7461C99.5378 14.7461 101.534 15.1382 102.746 16.3146C104.279 17.7406 104.137 19.6662 104.137 21.7334V26.6174C104.137 28.0791 104.743 28.7208 105.313 29.5406C105.527 29.8258 105.562 30.1823 105.313 30.3605C104.636 30.8953 103.495 31.8935 102.853 32.4282L102.852 32.4283ZM58.5035 24.7637C58.5035 25.9758 58.5392 27.0096 57.9331 28.1153C57.4342 29.0066 56.6498 29.5413 55.7585 29.5413C54.5464 29.5413 53.8334 28.6145 53.8334 27.2597C53.8334 24.586 56.222 24.0869 58.5035 24.0869V24.7637ZM61.6407 32.4283C61.5391 32.517 61.4122 32.5716 61.278 32.5844C61.1437 32.5972 61.0088 32.5675 60.8923 32.4996C59.8585 31.644 59.6449 31.2162 59.0742 30.3962C57.363 32.1425 56.1152 32.6778 53.905 32.6778C51.2669 32.6778 49.1992 31.0379 49.1992 27.7938C49.1992 25.2271 50.5895 23.5159 52.5508 22.6602C54.262 21.9118 56.6508 21.7689 58.4686 21.5551V21.1629C58.4686 20.4145 58.5399 19.523 58.0765 18.8814C57.6844 18.3109 56.9714 18.0615 56.3302 18.0615C55.1181 18.0615 54.0486 18.6675 53.799 19.9509C53.7278 20.2361 53.5496 20.5214 53.2643 20.5214L50.2341 20.2005C49.9846 20.1293 49.6994 19.9511 49.7706 19.5588C50.4836 15.8513 53.799 14.7461 56.7936 14.7461C58.3265 14.7461 60.3228 15.1382 61.535 16.3146C63.0679 17.7406 62.9253 19.6662 62.9253 21.7334V26.6174C62.9253 28.0791 63.5313 28.7208 64.1017 29.5406C64.3156 29.8258 64.3512 30.1823 64.1017 30.3605C63.4243 30.8953 62.2836 31.8935 61.6419 32.4282L61.6407 32.4283Z" fill="black"/>
</g>
<defs>
<clipPath id="clip0_2763_6058">
<rect width="101.602" height="30.5874" fill="white" transform="translate(49.1992 14.7461)"/>
</clipPath>
</defs>
</svg>
