<svg width="102" height="32" viewBox="0 0 102 32" fill="none" xmlns="http://www.w3.org/2000/svg">
<path fill-rule="evenodd" clip-rule="evenodd" d="M63.2282 24.6684C57.346 29.0179 48.7901 31.335 41.4106 31.335C31.0722 31.335 21.8033 27.5204 14.7447 21.1748C14.2099 20.6759 14.6734 19.9984 15.3507 20.3905C22.9441 24.8111 32.32 27.4492 42.0166 27.4492C48.5405 27.4492 55.7417 26.0945 62.3726 23.2781C63.3704 22.886 64.1907 23.9555 63.2281 24.6684H63.2282Z" fill="#FF9900"/>
<path fill-rule="evenodd" clip-rule="evenodd" d="M65.6877 21.8534C64.9393 20.8908 60.6968 21.3899 58.8074 21.6395C58.237 21.7107 58.13 21.2117 58.6648 20.8551C62.0515 18.4666 67.5772 19.1796 68.2189 19.9639C68.8606 20.7482 68.0407 26.3091 64.8673 28.9476C64.3684 29.3397 63.9048 29.1258 64.1189 28.5911C64.8322 26.8085 66.4364 22.8512 65.6877 21.8534Z" fill="#FF9900"/>
<path fill-rule="evenodd" clip-rule="evenodd" d="M58.914 4.09769V1.77988C58.9099 1.70391 58.9219 1.62793 58.9491 1.55689C58.9764 1.48585 59.0182 1.42134 59.072 1.36754C59.1258 1.31374 59.1903 1.27186 59.2614 1.24463C59.3324 1.21739 59.4084 1.20541 59.4844 1.20946H69.8228C69.9784 1.20618 70.1291 1.26411 70.2425 1.37079C70.3558 1.47746 70.4228 1.62436 70.4289 1.77988V3.74062C70.4289 4.06147 70.1438 4.48904 69.6446 5.20231L64.2972 12.8314C66.2937 12.7957 68.3972 13.0809 70.1795 14.0787C70.5716 14.2926 70.6784 14.6492 70.7142 14.97V17.4298C70.7142 17.7863 70.3577 18.1782 69.9658 17.9645C66.7929 16.289 62.5506 16.1107 59.057 18.0002C58.7005 18.1784 58.3086 17.822 58.3086 17.4655V15.1129C58.3086 14.7563 58.3086 14.115 58.7007 13.5443L64.9038 4.66758H59.5201C59.3645 4.67086 59.2139 4.613 59.1006 4.50644C58.9873 4.39989 58.9203 4.25313 58.914 4.09769ZM21.2323 18.4639H18.0951C17.9546 18.4497 17.8225 18.3897 17.7194 18.2931C17.6164 18.1964 17.5479 18.0686 17.5247 17.9292V1.81557C17.5309 1.66006 17.5978 1.51318 17.7111 1.40651C17.8245 1.29984 17.9751 1.2419 18.1307 1.24515H21.054C21.1986 1.24733 21.3371 1.30334 21.4426 1.40222C21.5481 1.5011 21.6129 1.63576 21.6244 1.77988V3.88326H21.6957C22.4441 1.85125 23.906 0.888727 25.831 0.888727C27.7918 0.888727 29.0395 1.85125 29.8952 3.88326C30.6436 1.85125 32.3906 0.888727 34.2447 0.888727C35.5637 0.888727 36.9897 1.42346 37.881 2.67126C38.8789 4.02589 38.6653 5.98663 38.6653 7.73348V17.9293C38.6591 18.0848 38.5922 18.2317 38.4789 18.3383C38.3656 18.445 38.2149 18.503 38.0593 18.4997H34.9574C34.6365 18.464 34.387 18.2146 34.387 17.9293V9.37327C34.387 8.6959 34.4582 6.98474 34.3157 6.34305C34.0662 5.27358 33.3889 4.95273 32.4619 4.95273C32.0526 4.96439 31.6557 5.09546 31.32 5.32983C30.9843 5.5642 30.7244 5.89162 30.5724 6.27179C30.2516 7.09168 30.2873 8.44642 30.2873 9.37327V17.9293C30.2811 18.0848 30.2142 18.2317 30.1008 18.3383C29.9875 18.445 29.8369 18.503 29.6813 18.4997H26.5441C26.2233 18.464 25.9737 18.2146 25.9737 17.9293V9.37327C25.9737 7.59074 26.2588 4.91705 24.0486 4.91705C21.8027 4.91705 21.874 7.48379 21.874 9.37327V17.9293C21.8516 18.0818 21.7737 18.2206 21.6553 18.3193C21.5369 18.4179 21.3863 18.4695 21.2323 18.464V18.4639ZM79.3413 0.888727C84.0114 0.888727 86.5425 4.88147 86.5425 9.97938C86.5425 14.8991 83.7619 18.8204 79.3413 18.8204C74.7781 18.8204 72.2826 14.8277 72.2826 9.83674C72.2469 4.8101 74.7781 0.888293 79.3413 0.888293V0.888727ZM79.3413 4.2041C77.024 4.2041 76.8815 7.37695 76.8815 9.33769C76.8815 11.2984 76.8458 15.5051 79.3057 15.5051C81.7299 15.5051 81.8724 12.1183 81.8724 10.0506C81.8724 8.6959 81.8012 7.05611 81.409 5.77263C81.0524 4.63178 80.3395 4.2041 79.3413 4.2041ZM92.5673 18.4639H89.4301C89.1093 18.4282 88.8597 18.1788 88.8597 17.8935V1.74398C88.8793 1.59677 88.9515 1.4616 89.0628 1.36335C89.1742 1.2651 89.3173 1.21037 89.4658 1.20924H92.3891C92.5216 1.21392 92.649 1.2617 92.752 1.34534C92.8549 1.42899 92.9278 1.54392 92.9595 1.67272V4.13251H93.0308C93.922 1.92219 95.1341 0.888401 97.3088 0.888401C98.6991 0.888401 100.089 1.38735 100.981 2.77788C101.801 4.06125 101.801 6.23589 101.801 7.80452V17.9646C101.779 18.108 101.705 18.2383 101.593 18.3305C101.481 18.4226 101.339 18.47 101.194 18.4636H98.0571C97.7719 18.4279 97.5223 18.2141 97.4867 17.9646V9.19506C97.4867 7.41253 97.7006 4.84557 95.5259 4.84557C94.7775 4.84557 94.0643 5.34451 93.7078 6.12894C93.28 7.12683 93.2089 8.08968 93.2089 9.19484V17.8938C93.1889 18.0504 93.113 18.1945 92.995 18.2994C92.877 18.4042 92.725 18.4628 92.5672 18.4642L92.5673 18.4639ZM50.6791 10.7637C50.6791 11.9758 50.7148 13.0096 50.1087 14.1153C49.6097 15.0066 48.8253 15.5413 47.934 15.5413C46.7219 15.5413 46.009 14.6145 46.009 13.2597C46.009 10.586 48.3975 10.0869 50.6791 10.0869V10.7637ZM53.852 18.4283C53.7503 18.517 53.6235 18.5716 53.4892 18.5844C53.3549 18.5972 53.2201 18.5675 53.1035 18.4996C52.0697 17.644 51.8562 17.2162 51.2854 16.3962C49.5743 18.1425 48.3265 18.6778 46.1163 18.6778C43.4782 18.6778 41.4105 17.0379 41.4105 13.7938C41.4105 11.2271 42.8008 9.5159 44.7621 8.66021C46.4732 7.9118 48.8621 7.76895 50.6799 7.55505V7.16295C50.6799 6.41453 50.7511 5.52305 50.2878 4.88136C49.8957 4.31094 49.1826 4.06147 48.5415 4.06147C47.3293 4.06147 46.2599 4.66747 46.0103 5.95095C45.939 6.2361 45.7608 6.52137 45.4756 6.52137L42.4453 6.20053C42.1959 6.12926 41.9106 5.95105 41.9819 5.55884C42.6948 1.85125 46.0103 0.746094 49.0048 0.746094C50.5378 0.746094 52.5341 1.1382 53.7462 2.31462C55.2791 3.74062 55.1365 5.66622 55.1365 7.73337V12.6174C55.1365 14.0791 55.7425 14.7208 56.3129 15.5406C56.5268 15.8258 56.5624 16.1823 56.3129 16.3605C55.6356 16.8953 54.4948 17.8935 53.8531 18.4282L53.852 18.4283ZM9.50355 10.7637C9.50355 11.9758 9.53923 13.0096 8.93312 14.1153C8.43418 15.0066 7.64975 15.5413 6.75849 15.5413C5.54638 15.5413 4.83343 14.6145 4.83343 13.2597C4.83343 10.586 7.22196 10.0869 9.50355 10.0869V10.7637ZM12.6407 18.4283C12.5391 18.517 12.4122 18.5716 12.278 18.5844C12.1437 18.5972 12.0088 18.5675 11.8923 18.4996C10.8585 17.644 10.6449 17.2162 10.0742 16.3962C8.36302 18.1425 7.11523 18.6778 4.90502 18.6778C2.26691 18.6778 0.199219 17.0379 0.199219 13.7938C0.199219 11.2271 1.58954 9.5159 3.55082 8.66021C5.26198 7.9118 7.65084 7.76895 9.46862 7.55505V7.16295C9.46862 6.41453 9.53988 5.52305 9.07652 4.88136C8.68441 4.31094 7.97135 4.06147 7.33021 4.06147C6.1181 4.06147 5.04863 4.66747 4.79905 5.95095C4.72779 6.2361 4.54958 6.52137 4.26431 6.52137L1.23409 6.20053C0.984622 6.12926 0.699356 5.95105 0.770618 5.55884C1.48357 1.85125 4.79905 0.746094 7.79358 0.746094C9.32653 0.746094 11.3228 1.1382 12.535 2.31462C14.0679 3.74062 13.9253 5.66622 13.9253 7.73337V12.6174C13.9253 14.0791 14.5313 14.7208 15.1017 15.5406C15.3156 15.8258 15.3512 16.1823 15.1017 16.3605C14.4243 16.8953 13.2836 17.8935 12.6419 18.4282L12.6407 18.4283Z" fill="black"/>
</svg>
