<svg width="200" height="61" viewBox="0 0 200 61" fill="none" xmlns="http://www.w3.org/2000/svg">
<g clip-path="url(#clip0_2763_6064)">
<path d="M112.149 31.4305C112.212 38.1649 118.057 40.4058 118.122 40.4344C118.072 40.5923 117.188 43.6279 115.042 46.7635C113.187 49.4744 111.263 52.1752 108.23 52.2311C105.25 52.286 104.292 50.4643 100.886 50.4643C97.4802 50.4643 96.4157 52.1753 93.5951 52.2861C90.6681 52.397 88.4391 49.3548 86.569 46.6538C82.7476 41.129 79.8272 31.042 83.7485 24.2332C85.6966 20.8519 89.1778 18.7107 92.9564 18.6558C95.8307 18.6009 98.5436 20.5895 100.301 20.5895C102.057 20.5895 105.354 18.1981 108.819 18.5493C110.27 18.6097 114.343 19.1354 116.958 22.9634C116.748 23.094 112.099 25.8004 112.149 31.4305ZM106.549 14.8942C108.103 13.0131 109.149 10.3945 108.864 7.78906C106.624 7.87909 103.915 9.28171 102.309 11.1617C100.869 12.8265 99.6078 15.4912 99.9481 18.0451C102.445 18.2383 104.995 16.7764 106.549 14.8942Z" fill="black"/>
</g>
<defs>
<clipPath id="clip0_2763_6064">
<rect width="36.2408" height="44.5" fill="white" transform="translate(81.8799 7.78906)"/>
</clipPath>
</defs>
</svg>
