<svg width="36" height="36" viewBox="0 0 36 36" fill="none" xmlns="http://www.w3.org/2000/svg">
<circle cx="18" cy="18" r="18" fill="#D8FBFF"/>
<path d="M27.2372 11.2885L18.2372 8.28849C18.0832 8.23717 17.9168 8.23717 17.7628 8.28849L8.76281 11.2885C8.61347 11.3383 8.48358 11.4338 8.39155 11.5615C8.29951 11.6892 8.24999 11.8426 8.25 12.0001V19.5001C8.25 19.699 8.32902 19.8897 8.46967 20.0304C8.61032 20.171 8.80109 20.2501 9 20.2501C9.19891 20.2501 9.38968 20.171 9.53033 20.0304C9.67098 19.8897 9.75 19.699 9.75 19.5001V13.0407L12.8991 14.0897C12.0624 15.4414 11.7963 17.0699 12.1593 18.6176C12.5223 20.1653 13.4846 21.5057 14.835 22.3444C13.1475 23.0063 11.6888 24.2035 10.6219 25.8404C10.5664 25.9228 10.5278 26.0155 10.5085 26.113C10.4891 26.2105 10.4894 26.3109 10.5091 26.4083C10.5289 26.5057 10.5678 26.5982 10.6237 26.6804C10.6795 26.7626 10.7512 26.8329 10.8344 26.8872C10.9177 26.9415 11.0109 26.9787 11.1086 26.9967C11.2064 27.0147 11.3067 27.013 11.4039 26.9918C11.501 26.9707 11.5929 26.9304 11.6743 26.8734C11.7557 26.8164 11.825 26.7438 11.8781 26.6597C13.2909 24.4922 15.5222 23.2501 18 23.2501C20.4778 23.2501 22.7091 24.4922 24.1219 26.6597C24.2319 26.8232 24.4018 26.9369 24.5949 26.9761C24.788 27.0153 24.9888 26.9769 25.1539 26.8693C25.3189 26.7616 25.435 26.5933 25.4769 26.4008C25.5189 26.2083 25.4834 26.0069 25.3781 25.8404C24.3112 24.2035 22.8469 23.0063 21.165 22.3444C22.5141 21.5057 23.4755 20.1662 23.8384 18.6196C24.2013 17.0731 23.9361 15.4457 23.1009 14.0944L27.2372 12.7163C27.3866 12.6666 27.5165 12.5711 27.6086 12.4433C27.7006 12.3156 27.7502 12.1622 27.7502 12.0047C27.7502 11.8473 27.7006 11.6939 27.6086 11.5661C27.5165 11.4384 27.3866 11.3429 27.2372 11.2932V11.2885ZM22.5 17.2501C22.5002 17.9615 22.3317 18.6628 22.0084 19.2965C21.6851 19.9302 21.2161 20.4782 20.6399 20.8956C20.0638 21.313 19.3969 21.5878 18.694 21.6975C17.9911 21.8072 17.2722 21.7487 16.5962 21.5268C15.9203 21.3049 15.3066 20.9258 14.8056 20.4208C14.3045 19.9158 13.9303 19.2991 13.7137 18.6215C13.4971 17.9438 13.4442 17.2245 13.5594 16.5225C13.6747 15.8204 13.9547 15.1557 14.3766 14.5829L17.7628 15.7079C17.9168 15.7592 18.0832 15.7592 18.2372 15.7079L21.6234 14.5829C22.1932 15.3554 22.5005 16.2901 22.5 17.2501Z" fill="#185A61"/>
</svg>
