<svg width="100" height="101" viewBox="0 0 100 101" fill="none" xmlns="http://www.w3.org/2000/svg">
<circle cx="50" cy="50.5" r="50" fill="#5C27C0"/>
<path d="M50 78V82.5H59V87H36.5V82.5H45.5V78H14V37.5H50L45.4648 42H18.5V73.5H77V46.5L81.5 42V78H50ZM32 64.5C32.6328 64.5 33.2188 64.3828 33.7578 64.1484C34.2969 63.9141 34.7656 63.5977 35.1641 63.1992C35.5625 62.8008 35.8906 62.3203 36.1484 61.7578C36.4062 61.1953 36.5234 60.6094 36.5 60C36.5 58.8516 36.6992 57.7617 37.0977 56.7305C37.4961 55.6992 38.0586 54.7852 38.7852 53.9883C39.5117 53.1914 40.3555 52.5352 41.3164 52.0195C42.2773 51.5039 43.3438 51.1758 44.5156 51.0352L69.5117 26.0391C70.168 25.3828 70.9297 24.8789 71.7969 24.5273C72.6641 24.1758 73.5547 24 74.4688 24C75.4297 24 76.332 24.1758 77.1758 24.5273C78.0195 24.8789 78.7695 25.3828 79.4258 26.0391C80.082 26.6953 80.5742 27.4336 80.9023 28.2539C81.2305 29.0742 81.418 30 81.4648 31.0312C81.4648 31.9453 81.2891 32.8359 80.9375 33.7031C80.5859 34.5703 80.082 35.332 79.4258 35.9883L54.4297 60.9844C54.3125 62.1094 53.9961 63.1641 53.4805 64.1484C52.9648 65.1328 52.3086 65.9766 51.5117 66.6797C50.7148 67.3828 49.8008 67.9453 48.7695 68.3672C47.7383 68.7891 46.6484 69 45.5 69H23V64.5H32ZM74.4688 28.5C73.7891 28.5 73.2031 28.7461 72.7109 29.2383L57.0664 44.8828C58.4023 45.9141 59.5859 47.0977 60.6172 48.4336L76.2617 32.7891C76.7539 32.2969 77 31.7109 77 31.0312C77 30.3281 76.7539 29.7305 76.2617 29.2383C75.7695 28.7461 75.1719 28.5 74.4688 28.5ZM50.6328 51.3164C52.0625 52.2539 53.2461 53.4375 54.1836 54.8672L57.418 51.668C56.4336 50.2617 55.2383 49.0664 53.832 48.082L50.6328 51.3164ZM50 60C50 59.3672 49.8828 58.7812 49.6484 58.2422C49.4141 57.7031 49.0977 57.2344 48.6992 56.8359C48.3008 56.4375 47.8203 56.1094 47.2578 55.8516C46.6953 55.5938 46.1094 55.4766 45.5 55.5C44.8672 55.5 44.2812 55.6172 43.7422 55.8516C43.2031 56.0859 42.7344 56.4023 42.3359 56.8008C41.9375 57.1992 41.6094 57.6797 41.3516 58.2422C41.0938 58.8047 40.9766 59.3906 41 60C41 61.5938 40.6016 63.0938 39.8047 64.5H45.5C46.1094 64.5 46.6836 64.3828 47.2227 64.1484C47.7617 63.9141 48.2422 63.5977 48.6641 63.1992C49.0859 62.8008 49.4141 62.3203 49.6484 61.7578C49.8828 61.1953 50 60.6094 50 60Z" fill="white"/>
</svg>
