<svg width="100" height="100" viewBox="0 0 100 100" fill="none" xmlns="http://www.w3.org/2000/svg">
<circle cx="50" cy="50" r="50" fill="#5C27C0"/>
<path d="M70.16 58.2801C71.21 55.7301 71.78 53.0001 71.78 50.0001C71.78 47.8401 71.45 45.7701 70.88 43.8501C68.93 44.3001 66.89 44.5401 64.76 44.5401C60.3979 44.5448 56.0986 43.5006 52.2246 41.4958C48.3505 39.4909 45.0153 36.5839 42.5 33.0201C39.8093 39.5306 34.7334 44.7675 28.31 47.6601C28.19 48.4101 28.19 49.2201 28.19 50.0001C28.19 52.8642 28.7541 55.7003 29.8502 58.3464C30.9462 60.9925 32.5528 63.3968 34.578 65.4221C38.6682 69.5123 44.2156 71.8101 50 71.8101C53.15 71.8101 56.18 71.1201 58.91 69.8901C60.62 73.1601 61.4 74.7801 61.34 74.7801C56.42 76.4301 52.61 77.2401 50 77.2401C42.74 77.2401 35.81 74.3901 30.71 69.2601C27.608 66.1676 25.3021 62.3691 23.99 58.1901H20V44.5401H23.27C24.2607 39.7176 26.5385 35.2533 29.8616 31.6209C33.1847 27.9884 37.4291 25.3233 42.1446 23.9084C46.86 22.4934 51.8706 22.3814 56.6446 23.5842C61.4186 24.787 65.7779 27.2598 69.26 30.7401C73.0407 34.5058 75.6194 39.3084 76.67 44.5401H80V58.1901H79.82L69.14 68.0001L53.24 66.2001V61.1901H67.73L70.16 58.2801ZM41.81 49.3101C42.71 49.3101 43.58 49.6701 44.21 50.3301C44.8431 50.9684 45.1984 51.831 45.1984 52.7301C45.1984 53.6291 44.8431 54.4918 44.21 55.1301C43.58 55.7601 42.71 56.1201 41.81 56.1201C39.92 56.1201 38.39 54.6201 38.39 52.7301C38.39 50.8401 39.92 49.3101 41.81 49.3101ZM58.16 49.3101C60.05 49.3101 61.55 50.8401 61.55 52.7301C61.55 54.6201 60.05 56.1201 58.16 56.1201C56.27 56.1201 54.74 54.6201 54.74 52.7301C54.74 51.823 55.1003 50.9532 55.7417 50.3118C56.3831 49.6704 57.253 49.3101 58.16 49.3101Z" fill="white"/>
</svg>
