<svg width="100" height="100" viewBox="0 0 100 100" fill="none" xmlns="http://www.w3.org/2000/svg">
<circle cx="50" cy="50" r="50" fill="#5C27C0"/>
<path fill-rule="evenodd" clip-rule="evenodd" d="M33.5 23C32.7044 23 31.9413 23.3161 31.3787 23.8787C30.8161 24.4413 30.5 25.2044 30.5 26V27.5H23V56H56V27.5H48.5V26C48.5 25.2044 48.1839 24.4413 47.6213 23.8787C47.0587 23.3161 46.2956 23 45.5 23H33.5ZM45.5 41C46.2956 41 47.0587 40.6839 47.6213 40.1213C48.1839 39.5587 48.5 38.7956 48.5 38V36.5H53V53H45.5V44H33.5V53H26V36.5H30.5V38C30.5 38.7956 30.8161 39.5587 31.3787 40.1213C31.9413 40.6839 32.7044 41 33.5 41H45.5ZM26 30.5H30.5V33.5H26V30.5ZM53 33.5H48.5V30.5H53V33.5ZM42.5 47V53H36.5V47H42.5ZM38 26V30.5H33.5V33.5H38V38H41V33.5H45.5V30.5H41V26H38Z" fill="white"/>
<path d="M58.998 54.5C58.998 52.9087 59.6301 51.3826 60.7554 50.2574C61.8806 49.1321 63.4067 48.5 64.998 48.5C66.5893 48.5 68.1154 49.1321 69.2406 50.2574C70.3659 51.3826 70.998 52.9087 70.998 54.5C70.998 56.0913 70.3659 57.6174 69.2406 58.7426C68.1154 59.8679 66.5893 60.5 64.998 60.5C63.4067 60.5 61.8806 59.8679 60.7554 58.7426C59.6301 57.6174 58.998 56.0913 58.998 54.5ZM64.998 63.5C60.993 63.5 52.998 65.693 52.998 70.046V74H39.498C38.4045 74 37.695 73.6055 37.2435 73.097C36.768 72.5615 36.498 71.8055 36.498 71V65.621L41.4375 70.5605L43.5585 68.4395L34.998 59.879L26.4375 68.4395L28.5585 70.5605L33.498 65.621V71C33.498 72.4445 33.978 73.9385 35.0025 75.0905C36.051 76.2695 37.5915 77 39.498 77H76.998V70.046C76.998 65.693 69.003 63.5 64.998 63.5Z" fill="white"/>
</svg>
