<svg width="150" height="50" viewBox="0 0 150 50" fill="none" xmlns="http://www.w3.org/2000/svg">
<g clip-path="url(#clip0_2763_6069)">
<path d="M19.1487 0.855469H20.4667C25.0422 0.954937 29.5432 2.7951 32.7759 6.0527C31.5823 7.27119 30.3638 8.43994 29.195 9.65843C27.3797 8.0172 25.1914 6.74898 22.8042 6.30137C19.273 5.55536 15.4684 6.22677 12.5092 8.24101C9.27646 10.3547 7.08815 13.9356 6.61567 17.7651C6.09346 21.5449 7.16275 25.5237 9.6246 28.458C11.987 31.3177 15.5927 33.1081 19.3228 33.2325C22.8042 33.4314 26.4348 32.3621 28.9712 29.9251C30.9606 28.2093 31.8807 25.5983 32.1791 23.0618C28.0511 23.0618 23.9232 23.0867 19.7953 23.0618V17.9392H37.1774C38.0726 23.4348 36.7795 29.6267 32.6018 33.5557C29.8167 36.3409 25.9623 37.9821 22.0333 38.3054C18.2286 38.6784 14.2996 37.9572 10.9177 36.1171C6.86434 33.9536 3.63162 30.2981 2.04012 25.9961C0.548092 22.0423 0.523224 17.5662 1.91578 13.5874C3.18401 9.95684 5.62099 6.74898 8.75425 4.51094C11.7632 2.29776 15.4186 1.07927 19.1487 0.855469Z" fill="#3780FF"/>
<path d="M118.856 2.14844H124.178V37.6587C122.412 37.6587 120.622 37.6836 118.856 37.6338C118.881 25.8219 118.856 13.9852 118.856 2.14844Z" fill="#38B137"/>
<path d="M49.0147 14.4589C52.2972 13.8372 55.8532 14.5335 58.5637 16.498C61.0256 18.2387 62.7414 20.9741 63.2636 23.9581C63.935 27.4146 63.0895 31.1945 60.8515 33.9298C58.4394 36.9885 54.4855 38.6297 50.6311 38.381C47.1 38.1821 43.6683 36.4165 41.5795 33.532C39.2171 30.349 38.6452 25.9724 39.9382 22.2423C41.2313 18.2387 44.8868 15.18 49.0147 14.4589ZM49.7608 19.1836C48.4179 19.5318 47.1746 20.3026 46.2794 21.3968C43.8673 24.2814 44.0165 28.9813 46.6772 31.6669C48.1941 33.2087 50.4819 33.9298 52.5956 33.5071C54.5601 33.159 56.2759 31.841 57.2209 30.1003C58.8621 27.1411 58.3897 23.0629 55.8781 20.7503C54.2617 19.2582 51.8993 18.6365 49.7608 19.1836Z" fill="#FA3913"/>
<path d="M75.3585 14.4568C79.1134 13.7356 83.2165 14.7801 86.0265 17.416C90.602 21.5191 91.0994 29.203 87.1952 33.9278C84.8329 36.9118 81.0033 38.553 77.2235 38.379C73.6178 38.2795 70.0618 36.4891 67.9232 33.5299C65.5111 30.2723 64.9889 25.7962 66.3566 21.9915C67.7243 18.1123 71.3052 15.1531 75.3585 14.4568ZM76.1045 19.1815C74.7617 19.5297 73.5183 20.3006 72.6231 21.3699C70.2359 24.2047 70.3353 28.83 72.8966 31.5405C74.4135 33.1569 76.7759 33.9526 78.9642 33.505C80.9039 33.132 82.6446 31.8389 83.5895 30.0982C85.2059 27.1142 84.7334 23.036 82.197 20.7233C80.5806 19.2313 78.2182 18.6345 76.1045 19.1815Z" fill="#FCBD06"/>
<path d="M97.7162 15.8999C100.576 14.1094 104.381 13.6121 107.464 15.1538C108.434 15.5766 109.23 16.2977 110.001 17.0189C110.025 16.3475 110.001 15.6512 110.025 14.9549C111.692 14.9798 113.358 14.9549 115.049 14.9798V36.9126C115.024 40.2199 114.178 43.7262 111.791 46.1383C109.18 48.7991 105.176 49.6197 101.571 49.0726C97.7162 48.5007 94.3592 45.6907 92.8672 42.1347C94.3592 41.4135 95.9258 40.8416 97.4676 40.1702C98.3379 42.2093 100.103 43.95 102.317 44.3479C104.53 44.7457 107.091 44.1987 108.533 42.3585C110.075 40.4686 110.075 37.8824 110.001 35.5698C108.857 36.6888 107.539 37.6835 105.947 38.0565C102.491 39.0263 98.6861 37.8327 96.0253 35.4952C93.3396 33.1577 91.7481 29.5519 91.8973 25.9711C91.9719 21.9177 94.2597 18.0136 97.7162 15.8999ZM102.864 19.0829C101.347 19.3315 99.9294 20.177 98.9596 21.3458C96.6221 24.1309 96.6221 28.5821 98.9845 31.3175C100.327 32.9338 102.491 33.8291 104.58 33.6053C106.544 33.4063 108.359 32.163 109.329 30.4471C110.97 27.5377 110.697 23.5838 108.484 21.0474C107.116 19.4807 104.928 18.7098 102.864 19.0829Z" fill="#3780FF"/>
<path d="M130.572 17.168C133.556 14.3829 138.157 13.4379 141.986 14.9051C145.617 16.2728 147.929 19.7293 149.098 23.2853C143.702 25.5233 138.331 27.7365 132.935 29.9746C133.681 31.392 134.824 32.6851 136.366 33.2073C138.53 33.9782 141.116 33.7046 142.931 32.2623C143.652 31.7153 144.224 30.9941 144.771 30.2978C146.139 31.2179 147.507 32.1131 148.874 33.0332C146.935 35.9427 143.677 37.9818 140.171 38.305C136.292 38.7775 132.164 37.2855 129.652 34.2517C125.524 29.4772 125.922 21.47 130.572 17.168ZM133.233 21.7684C132.387 22.9869 132.039 24.4789 132.064 25.9461C135.67 24.4541 139.276 22.962 142.881 21.4451C142.285 20.0526 140.842 19.2071 139.375 18.9833C137.013 18.5605 134.551 19.8288 133.233 21.7684Z" fill="#FA3913"/>
</g>
<defs>
<clipPath id="clip0_2763_6069">
<rect width="148.208" height="48.3751" fill="white" transform="translate(0.895508 0.851562)"/>
</clipPath>
</defs>
</svg>
