<svg width="200" height="61" viewBox="0 0 200 61" fill="none" xmlns="http://www.w3.org/2000/svg">
<path d="M78.5538 41.702V43.5888H64.9062V41.702H78.5538ZM99.8815 41.702C98.5125 42.9199 96.7193 43.5936 94.8597 43.5887L80.5034 43.5701V41.702H99.8815ZM120.174 41.702L119.493 43.5887L118.818 41.702H120.174ZM113.647 41.702V43.5888H103.899V41.702H113.647ZM135.093 41.702V43.5888H125.345V41.702H135.093ZM102.09 38.1002C101.922 38.762 101.658 39.3974 101.305 39.9869H80.5034V38.1002H102.09ZM121.48 38.1002L120.796 39.987H118.196L117.512 38.1002H121.48ZM113.647 38.1002V39.9869H103.899V38.1002H113.647ZM135.093 38.1002V39.9869H125.345V38.1002H135.093ZM78.5538 38.1002V39.9869H64.9062V38.1002H78.5538ZM74.6543 34.498V36.3849H68.8055V34.498H74.6543ZM90.2514 34.498V36.3849H84.4024V34.498H90.2514ZM102.043 34.498C102.216 35.1131 102.303 35.7475 102.304 36.3849H95.746V34.498H102.043ZM122.787 34.498L122.102 36.3849H116.889L116.205 34.498H122.787ZM113.647 34.498V36.3849H107.798V34.498H113.647ZM131.194 34.498V36.3849H125.345V34.498H131.194ZM74.6543 30.8961V32.7829H68.8055V30.8961H74.6543ZM113.647 30.8961V32.7829H107.798V30.8961H113.647ZM131.194 30.8961V32.7829H125.345V30.8961H131.194ZM99.6768 30.8961C100.326 31.4307 100.876 32.0687 101.303 32.7827H84.4026V30.896L99.6768 30.8961ZM124.094 30.8961L123.409 32.7829H115.583L114.898 30.896L124.094 30.8961ZM118.948 27.2942L119.496 28.8193L120.044 27.2942H131.194V29.181H125.345V27.4475L124.716 29.1811H114.276L113.647 27.4472V29.1811H107.798V27.2942H118.948ZM84.4024 27.2942H101.303C100.876 28.0083 100.326 28.6464 99.677 29.181H84.4026L84.4024 27.2942ZM74.6543 27.2942V29.181H68.8055V27.2941L74.6543 27.2942ZM74.6543 23.6922V25.5789H68.8055V23.6922H74.6543ZM90.2514 23.6922V25.5789H84.4024V23.6922H90.2514ZM102.304 23.6922C102.303 24.3295 102.216 24.964 102.043 25.5789H95.746V23.6922H102.304ZM117.653 23.6922L118.331 25.5789H107.798V23.6922H117.653ZM131.194 23.6922V25.5789H120.66L121.338 23.6922H131.194ZM78.5535 20.0902V21.977H64.9062V20.0901L78.5535 20.0902ZM101.305 20.0902C101.658 20.6797 101.922 21.3151 102.09 21.9769H80.5031V20.0902H101.305ZM135.093 20.0902V21.9769H121.955L122.633 20.0902H135.093ZM116.359 20.0902L117.037 21.9769H103.899V20.0902H116.359ZM78.5539 16.4884V18.375H64.9062V16.4883L78.5539 16.4884ZM94.8597 16.4883C96.7188 16.4859 98.5111 17.1592 99.8815 18.375H80.5034V16.4883H94.8597ZM135.093 16.4883V18.3751H123.249L123.927 16.4884L135.093 16.4883ZM115.065 16.4883L115.743 18.3751H103.899V16.4884L115.065 16.4883Z" fill="#1F70C1"/>
</svg>
