<svg width="200" height="61" viewBox="0 0 200 61" fill="none" xmlns="http://www.w3.org/2000/svg">
<g clip-path="url(#clip0_2763_6048)">
<path d="M178.666 28.4369V25.6698H175.23V21.3679L175.114 21.4035L171.886 22.391L171.823 22.4104V25.6699H166.729V23.8541C166.729 23.0085 166.918 22.3615 167.29 21.93C167.66 21.5036 168.189 21.2869 168.864 21.2869C169.35 21.2869 169.852 21.4012 170.358 21.6266L170.485 21.6832V18.7691L170.425 18.7471C169.953 18.5776 169.312 18.4922 168.516 18.4922C167.514 18.4922 166.603 18.7103 165.809 19.1426C165.015 19.5755 164.389 20.1934 163.951 20.9791C163.515 21.7639 163.294 22.6703 163.294 23.6734V25.6698H160.901V28.4369H163.294V40.0945H166.729V28.4369H171.823V35.8451C171.823 38.8961 173.262 40.4423 176.1 40.4423C176.567 40.4423 177.057 40.3876 177.559 40.2806C178.069 40.1707 178.416 40.061 178.621 39.9438L178.666 39.917V37.1242L178.526 37.2166C178.34 37.3408 178.108 37.4424 177.836 37.5179C177.562 37.5947 177.334 37.6332 177.157 37.6332C176.492 37.6332 176 37.4541 175.695 37.1005C175.386 36.7437 175.23 36.1198 175.23 35.2471V28.4369H178.666ZM153.23 37.6337C151.983 37.6337 151 37.2203 150.308 36.406C149.611 35.5875 149.258 34.4207 149.258 32.9382C149.258 31.4086 149.611 30.2115 150.308 29.3786C151.001 28.5512 151.975 28.1313 153.202 28.1313C154.393 28.1313 155.341 28.5324 156.02 29.324C156.703 30.1197 157.049 31.3073 157.049 32.8546C157.049 34.421 156.724 35.6242 156.081 36.4291C155.443 37.2279 154.484 37.6337 153.23 37.6337ZM153.383 25.3223C151.004 25.3223 149.115 26.0192 147.768 27.3938C146.422 28.7686 145.739 30.671 145.739 33.0488C145.739 35.3073 146.406 37.1239 147.72 38.4474C149.034 39.7713 150.822 40.4419 153.035 40.4419C155.341 40.4419 157.192 39.7352 158.539 38.3416C159.885 36.9495 160.567 35.065 160.567 32.7428C160.567 30.449 159.927 28.6188 158.664 27.3042C157.401 25.9889 155.624 25.3223 153.383 25.3223ZM140.201 25.3223C138.583 25.3223 137.245 25.7361 136.223 26.5521C135.194 27.373 134.672 28.4495 134.672 29.7523C134.672 30.4295 134.785 31.031 135.006 31.5412C135.229 32.0531 135.574 32.5038 136.033 32.882C136.488 33.2572 137.19 33.6502 138.121 34.0501C138.903 34.372 139.486 34.6443 139.857 34.8589C140.219 35.0693 140.476 35.2807 140.622 35.4866C140.763 35.6882 140.834 35.964 140.834 36.3043C140.834 37.2734 140.109 37.745 138.615 37.745C138.061 37.745 137.43 37.6293 136.737 37.4013C136.05 37.1767 135.402 36.8478 134.814 36.4262L134.672 36.3239V39.631L134.724 39.6553C135.21 39.8797 135.823 40.0689 136.545 40.2177C137.266 40.3668 137.921 40.4426 138.49 40.4426C140.246 40.4426 141.66 40.0267 142.691 39.2059C143.729 38.3794 144.256 37.2774 144.256 35.9296C144.256 34.9572 143.972 34.1234 143.414 33.451C142.86 32.784 141.897 32.1717 140.555 31.6304C139.485 31.2012 138.8 30.8449 138.518 30.5713C138.245 30.3071 138.107 29.9334 138.107 29.4602C138.107 29.0407 138.278 28.7047 138.628 28.4325C138.981 28.159 139.473 28.0199 140.09 28.0199C140.662 28.0199 141.248 28.1103 141.83 28.2874C142.412 28.4646 142.923 28.7019 143.35 28.9922L143.49 29.0881V25.951L143.436 25.9279C143.043 25.7591 142.524 25.6147 141.893 25.4975C141.266 25.381 140.696 25.3223 140.201 25.3223ZM125.717 37.6337C124.471 37.6337 123.488 37.2203 122.795 36.406C122.098 35.5875 121.746 34.421 121.746 32.9382C121.746 31.4086 122.099 30.2115 122.796 29.3786C123.489 28.5512 124.462 28.1313 125.69 28.1313C126.881 28.1313 127.829 28.5324 128.508 29.324C129.191 30.1197 129.537 31.3073 129.537 32.8546C129.537 34.421 129.211 35.6242 128.569 36.4291C127.931 37.2279 126.972 37.6337 125.717 37.6337ZM125.871 25.3223C123.491 25.3223 121.602 26.0192 120.256 27.3938C118.91 28.7686 118.227 30.671 118.227 33.0488C118.227 35.3082 118.893 37.1239 120.208 38.4474C121.522 39.7713 123.31 40.4419 125.523 40.4419C127.828 40.4419 129.68 39.7352 131.027 38.3416C132.373 36.9495 133.055 35.065 133.055 32.7428C133.055 30.449 132.415 28.6188 131.152 27.3042C129.888 25.9889 128.111 25.3223 125.871 25.3223ZM113.013 28.1678V25.6698H109.62V40.0941H113.013V32.7155C113.013 31.4609 113.297 30.4301 113.858 29.6515C114.413 28.8823 115.151 28.4925 116.053 28.4925C116.358 28.4925 116.702 28.5429 117.073 28.6426C117.441 28.7416 117.707 28.8492 117.864 28.9625L118.007 29.0658V25.6451L117.952 25.6215C117.636 25.4873 117.189 25.4195 116.623 25.4195C115.771 25.4195 115.008 25.6935 114.354 26.2329C113.78 26.7071 113.366 27.3571 113.049 28.1678H113.013ZM103.543 25.3223C101.987 25.3223 100.598 25.6561 99.4171 26.3141C98.2337 26.9736 97.3185 27.9151 96.6958 29.1124C96.0759 30.3068 95.7611 31.702 95.7611 33.2578C95.7611 34.6207 96.0663 35.8714 96.6695 36.9737C97.273 38.0778 98.1272 38.9416 99.2085 39.5407C100.288 40.139 101.536 40.4424 102.918 40.4424C104.53 40.4424 105.907 40.12 107.011 39.4842L107.056 39.4587V36.3501L106.913 36.4542C106.413 36.8185 105.854 37.1092 105.253 37.3186C104.653 37.5279 104.107 37.6337 103.627 37.6337C102.296 37.6337 101.227 37.2171 100.451 36.3958C99.6736 35.5734 99.2794 34.4186 99.2794 32.9654C99.2794 31.5032 99.6905 30.3187 100.501 29.4447C101.308 28.5733 102.379 28.1313 103.683 28.1313C104.798 28.1313 105.885 28.5089 106.913 29.2547L107.056 29.3581V26.0827L107.01 26.0568C106.623 25.8402 106.095 25.6614 105.44 25.5258C104.788 25.3905 104.149 25.3223 103.543 25.3223ZM93.4242 25.6699H90.0312V40.0941H93.4242V25.6699ZM91.7624 19.5251C91.2039 19.5251 90.7169 19.7152 90.3167 20.0919C89.9149 20.4697 89.7111 20.9453 89.7111 21.5067C89.7111 22.0592 89.9124 22.5262 90.3105 22.8939C90.7059 23.2606 91.1945 23.4464 91.7626 23.4464C92.3304 23.4464 92.8209 23.2606 93.221 22.8945C93.6238 22.5262 93.828 22.0594 93.828 21.5067C93.828 20.965 93.6292 20.4942 93.2376 20.1071C92.8463 19.7208 92.3498 19.5251 91.7624 19.5251ZM83.2965 24.6057V40.0941H86.7593V19.9666H81.9667L75.875 34.9168L69.9633 19.9666H64.9756V40.094H68.2297V24.6041H68.3414L74.5839 40.0941H77.0397L83.1848 24.6057H83.2965Z" fill="#706D6E"/>
<path d="M37.289 29.204H21.3271V13.2422H37.289V29.204Z" fill="#F1511B"/>
<path d="M54.9059 29.204H38.9443V13.2422H54.9059V29.204Z" fill="#80CC28"/>
<path d="M37.2885 46.8367H21.3271V30.875H37.2885V46.8367Z" fill="#00ADEF"/>
<path d="M54.9059 46.8367H38.9443V30.875H54.9059V46.8367Z" fill="#FBBC09"/>
</g>
<defs>
<clipPath id="clip0_2763_6048">
<rect width="157.345" height="33.609" fill="white" transform="translate(21.3271 13.2344)"/>
</clipPath>
</defs>
</svg>
