<svg width="158" height="34" viewBox="0 0 158 34" fill="none" xmlns="http://www.w3.org/2000/svg">
<g clip-path="url(#clip0_2763_6050)">
<path d="M157.666 15.4369V12.6698H154.23V8.36787L154.114 8.40349L150.886 9.39102L150.823 9.41035V12.6699H145.729V10.8541C145.729 10.0085 145.918 9.36149 146.29 8.92998C146.66 8.50364 147.189 8.2869 147.864 8.2869C148.35 8.2869 148.852 8.40121 149.358 8.62663L149.485 8.68325V5.76906L149.425 5.74714C148.953 5.57758 148.312 5.49219 147.516 5.49219C146.514 5.49219 145.603 5.7103 144.809 6.14258C144.015 6.57546 143.389 7.19343 142.951 7.97913C142.515 8.76392 142.294 9.67033 142.294 10.6734V12.6698H139.901V15.4369H142.294V27.0945H145.729V15.4369H150.823V22.8451C150.823 25.8961 152.262 27.4423 155.1 27.4423C155.567 27.4423 156.057 27.3876 156.559 27.2806C157.069 27.1707 157.416 27.061 157.621 26.9438L157.666 26.917V24.1242L157.526 24.2166C157.34 24.3408 157.108 24.4424 156.836 24.5179C156.562 24.5947 156.334 24.6332 156.157 24.6332C155.492 24.6332 155 24.4541 154.695 24.1005C154.386 23.7437 154.23 23.1198 154.23 22.2471V15.4369H157.666ZM132.23 24.6337C130.983 24.6337 130 24.2203 129.308 23.406C128.611 22.5875 128.258 21.4207 128.258 19.9382C128.258 18.4086 128.611 17.2115 129.308 16.3786C130.001 15.5512 130.975 15.1313 132.202 15.1313C133.393 15.1313 134.341 15.5324 135.02 16.324C135.703 17.1197 136.049 18.3073 136.049 19.8546C136.049 21.421 135.724 22.6242 135.081 23.4291C134.443 24.2279 133.484 24.6337 132.23 24.6337ZM132.383 12.3223C130.004 12.3223 128.115 13.0192 126.768 14.3938C125.422 15.7686 124.739 17.671 124.739 20.0488C124.739 22.3073 125.406 24.1239 126.72 25.4474C128.034 26.7713 129.822 27.4419 132.035 27.4419C134.341 27.4419 136.192 26.7352 137.539 25.3416C138.885 23.9495 139.567 22.065 139.567 19.7428C139.567 17.449 138.927 15.6188 137.664 14.3042C136.401 12.9889 134.624 12.3223 132.383 12.3223ZM119.201 12.3223C117.583 12.3223 116.245 12.7361 115.223 13.5521C114.194 14.373 113.672 15.4495 113.672 16.7523C113.672 17.4295 113.785 18.031 114.006 18.5412C114.229 19.0531 114.574 19.5038 115.033 19.882C115.488 20.2572 116.19 20.6502 117.121 21.0501C117.903 21.372 118.486 21.6443 118.857 21.8589C119.219 22.0693 119.476 22.2807 119.622 22.4866C119.763 22.6882 119.834 22.964 119.834 23.3043C119.834 24.2734 119.109 24.745 117.615 24.745C117.061 24.745 116.43 24.6293 115.737 24.4013C115.05 24.1767 114.402 23.8478 113.814 23.4262L113.672 23.3239V26.631L113.724 26.6553C114.21 26.8797 114.823 27.0689 115.545 27.2177C116.266 27.3668 116.921 27.4426 117.49 27.4426C119.246 27.4426 120.66 27.0267 121.691 26.2059C122.729 25.3794 123.256 24.2774 123.256 22.9296C123.256 21.9572 122.972 21.1234 122.414 20.451C121.86 19.784 120.897 19.1717 119.555 18.6304C118.485 18.2012 117.8 17.8449 117.518 17.5713C117.245 17.3071 117.107 16.9334 117.107 16.4602C117.107 16.0407 117.278 15.7047 117.628 15.4325C117.981 15.159 118.473 15.0199 119.09 15.0199C119.662 15.0199 120.248 15.1103 120.83 15.2874C121.412 15.4646 121.923 15.7019 122.35 15.9922L122.49 16.0881V12.951L122.436 12.9279C122.043 12.7591 121.524 12.6147 120.893 12.4975C120.266 12.381 119.696 12.3223 119.201 12.3223ZM104.717 24.6337C103.471 24.6337 102.488 24.2203 101.795 23.406C101.098 22.5875 100.746 21.421 100.746 19.9382C100.746 18.4086 101.099 17.2115 101.796 16.3786C102.489 15.5512 103.462 15.1313 104.69 15.1313C105.881 15.1313 106.829 15.5324 107.508 16.324C108.191 17.1197 108.537 18.3073 108.537 19.8546C108.537 21.421 108.211 22.6242 107.569 23.4291C106.931 24.2279 105.972 24.6337 104.717 24.6337ZM104.871 12.3223C102.491 12.3223 100.602 13.0192 99.2558 14.3938C97.9096 15.7686 97.2267 17.671 97.2267 20.0488C97.2267 22.3082 97.8934 24.1239 99.2075 25.4474C100.522 26.7713 102.31 27.4419 104.523 27.4419C106.828 27.4419 108.68 26.7352 110.027 25.3416C111.373 23.9495 112.055 22.065 112.055 19.7428C112.055 17.449 111.415 15.6188 110.152 14.3042C108.888 12.9889 107.111 12.3223 104.871 12.3223ZM92.0126 15.1678V12.6698H88.6196V27.0941H92.0126V19.7155C92.0126 18.4609 92.2971 17.4301 92.8584 16.6515C93.4126 15.8823 94.1511 15.4925 95.0528 15.4925C95.3585 15.4925 95.7015 15.5429 96.0731 15.6426C96.4408 15.7416 96.7072 15.8492 96.8643 15.9625L97.0069 16.0658V12.6451L96.9519 12.6215C96.636 12.4873 96.1889 12.4195 95.6233 12.4195C94.7706 12.4195 94.0076 12.6935 93.354 13.2329C92.7803 13.7071 92.3657 14.3571 92.0487 15.1678H92.0126ZM82.5432 12.3223C80.9866 12.3223 79.5981 12.6561 78.4171 13.3141C77.2337 13.9736 76.3185 14.9151 75.6958 16.1124C75.0759 17.3068 74.7611 18.702 74.7611 20.2578C74.7611 21.6207 75.0663 22.8714 75.6695 23.9737C76.273 25.0778 77.1272 25.9416 78.2085 26.5407C79.2882 27.139 80.5362 27.4424 81.9179 27.4424C83.5305 27.4424 84.9072 27.12 86.011 26.4842L86.0556 26.4587V23.3501L85.913 23.4542C85.413 23.8185 84.8542 24.1092 84.253 24.3186C83.6533 24.5279 83.1066 24.6337 82.6271 24.6337C81.2957 24.6337 80.2269 24.2171 79.4511 23.3958C78.6736 22.5734 78.2794 21.4186 78.2794 19.9654C78.2794 18.5032 78.6905 17.3187 79.5007 16.4447C80.3085 15.5733 81.3793 15.1313 82.6831 15.1313C83.7983 15.1313 84.8851 15.5089 85.9133 16.2547L86.0556 16.3581V13.0827L86.0096 13.0568C85.6227 12.8402 85.095 12.6614 84.4399 12.5258C83.7875 12.3905 83.1495 12.3223 82.5432 12.3223ZM72.4242 12.6699H69.0312V27.0941H72.4242V12.6699ZM70.7624 6.52508C70.2039 6.52508 69.7169 6.71519 69.3167 7.0919C68.9149 7.46969 68.7111 7.94534 68.7111 8.50669C68.7111 9.05921 68.9124 9.52618 69.3105 9.89392C69.7059 10.2606 70.1945 10.4464 70.7626 10.4464C71.3304 10.4464 71.8209 10.2606 72.221 9.89453C72.6238 9.52618 72.828 9.05936 72.828 8.50669C72.828 7.96498 72.6292 7.49419 72.2376 7.10713C71.8463 6.72082 71.3498 6.52508 70.7624 6.52508ZM62.2965 11.6057V27.0941H65.7593V6.96664H60.9667L54.875 21.9168L48.9633 6.96664H43.9756V27.094H47.2297V11.6041H47.3414L53.5839 27.0941H56.0397L62.1848 11.6057H62.2965Z" fill="#706D6E"/>
<path d="M16.289 16.204H0.327148V0.242188H16.289V16.204Z" fill="#F1511B"/>
<path d="M33.9059 16.204H17.9443V0.242188H33.9059V16.204Z" fill="#80CC28"/>
<path d="M16.2885 33.8367H0.327148V17.875H16.2885V33.8367Z" fill="#00ADEF"/>
<path d="M33.9059 33.8367H17.9443V17.875H33.9059V33.8367Z" fill="#FBBC09"/>
</g>
<defs>
<clipPath id="clip0_2763_6050">
<rect width="157.345" height="33.609" fill="white" transform="translate(0.327148 0.234375)"/>
</clipPath>
</defs>
</svg>
