<svg width="62" height="55" viewBox="0 0 62 55" fill="none" xmlns="http://www.w3.org/2000/svg">
<path d="M36.2953 27.5624C42.6572 27.5624 48.278 21.594 48.8287 14.2569C49.1023 10.5709 47.9418 7.13345 45.5604 4.57967C43.2044 2.05712 39.9107 0.667969 36.2953 0.667969C32.651 0.667969 29.355 2.04871 27.0158 4.55566C24.6501 7.09023 23.4968 10.5349 23.7619 14.2545C24.3031 21.5928 29.9226 27.5624 36.2953 27.5624Z" fill="#FDFDFD"/>
<path d="M61.2036 49.5147C60.1899 43.9123 57.0252 39.2062 52.0528 35.9036C47.6366 32.9708 42.0409 31.3555 36.2963 31.3555C30.5517 31.3555 24.956 32.9708 20.5398 35.9024C15.5674 39.205 12.4027 43.9111 11.389 49.5135C11.1572 50.7974 11.4719 52.067 12.2525 52.9967C12.6066 53.4204 13.0512 53.7599 13.5539 53.9906C14.0565 54.2212 14.6045 54.337 15.1579 54.3297H57.4347C57.9884 54.3375 58.5368 54.222 59.0399 53.9916C59.5429 53.7612 59.988 53.4217 60.3425 52.9979C61.1207 52.0682 61.4354 50.7986 61.2036 49.5147Z" fill="#FDFDFD"/>
<path d="M12.2314 30.7949V25.5831H17.4627C18.0177 25.5831 18.5499 25.3635 18.9423 24.9725C19.3347 24.5815 19.5552 24.0513 19.5552 23.4984C19.5552 22.9455 19.3347 22.4152 18.9423 22.0243C18.5499 21.6333 18.0177 21.4137 17.4627 21.4137H12.2314V16.2019C12.2314 15.649 12.011 15.1187 11.6185 14.7278C11.2261 14.3368 10.6939 14.1172 10.1389 14.1172C9.58396 14.1172 9.05172 14.3368 8.6593 14.7278C8.26688 15.1187 8.04642 15.649 8.04642 16.2019V21.4137H2.81516C2.26019 21.4137 1.72796 21.6333 1.33554 22.0243C0.943116 22.4152 0.722656 22.9455 0.722656 23.4984C0.722656 24.0513 0.943116 24.5815 1.33554 24.9725C1.72796 25.3635 2.26019 25.5831 2.81516 25.5831H8.04642V30.7949C8.04642 31.3478 8.26688 31.878 8.6593 32.269C9.05172 32.6599 9.58396 32.8796 10.1389 32.8796C10.6939 32.8796 11.2261 32.6599 11.6185 32.269C12.011 31.878 12.2314 31.3478 12.2314 30.7949Z" fill="#FDFDFD"/>
</svg>
