<svg width="56" height="56" viewBox="0 0 56 56" fill="none" xmlns="http://www.w3.org/2000/svg">
<g clip-path="url(#clip0_2763_6015)">
<path d="M55.9365 18.6856V46.6216H51.2805V21.6887L32.9359 33.5196C31.4667 34.4739 29.7524 34.9817 28.0005 34.9817C26.2486 34.9817 24.5343 34.4739 23.0651 33.5196L0.0644531 18.6856L23.0651 3.84919C24.5351 2.89717 26.2491 2.39063 28.0005 2.39062C29.7519 2.39063 31.4658 2.89717 32.9359 3.84919L55.9365 18.6856ZM28.0005 39.6376C25.3568 39.6357 22.7698 38.8702 20.5509 37.433L9.37646 30.2324V47.5854L10.0586 48.2675C10.2774 48.484 15.5387 53.6056 28.0005 53.6056C40.4623 53.6056 45.7236 48.484 45.9424 48.2675L46.6245 47.5854V30.2324L35.4501 37.433C33.2311 38.8702 30.6442 39.6357 28.0005 39.6376Z" fill="#FDFDFD"/>
</g>
<defs>
<clipPath id="clip0_2763_6015">
<rect width="55.8721" height="55.8721" fill="white" transform="translate(0.0644531 0.0625)"/>
</clipPath>
</defs>
</svg>
