<svg width="82" height="52" viewBox="0 0 82 52" fill="none" xmlns="http://www.w3.org/2000/svg">
<path d="M68.3809 28.0458L60.4025 12.0483C60.3122 11.8714 60.1927 11.7067 60.0406 11.5689C59.8882 11.4315 59.7174 11.3306 59.5393 11.2668L50.1838 7.90435C49.532 7.67015 48.8339 7.54452 48.1073 7.55102C47.3816 7.55875 46.6867 7.69821 46.0382 7.945L38.9396 10.6529C38.4399 10.844 37.9439 11.0635 37.4548 11.3136C37.2913 11.3981 37.1307 11.4896 36.9709 11.5795C36.435 11.2892 35.8756 11.0334 35.2917 10.8159C33.4296 10.1198 31.5227 9.88483 29.6772 10.0426L24.9014 10.4524C24.6936 10.4703 24.4838 10.5346 24.2879 10.6496C24.0919 10.7651 23.9301 10.9208 23.8028 11.1009L13.0494 26.4093C12.8278 26.7236 12.7095 27.1237 12.7457 27.5469C12.7811 27.9702 12.9632 28.3414 13.2324 28.6081L17.9098 33.2436C17.6532 33.7132 17.4906 34.2406 17.4532 34.8049C17.3857 35.8189 17.7187 36.798 18.3879 37.562C19.058 38.3255 19.9846 38.7829 20.9994 38.8492C21.0535 38.8529 21.1084 38.8529 21.1633 38.8549C20.7473 40.1995 21.0876 41.7266 22.1712 42.752C22.8197 43.366 23.6512 43.7238 24.5347 43.7811C23.9654 45.192 24.2732 46.8744 25.4365 47.9751C26.146 48.6475 27.0738 49.0171 28.0516 49.0171C29.0697 49.0171 30.0195 48.6195 30.7367 47.9015C31.0035 49.6246 32.4351 50.9984 34.2456 51.1167C34.3289 51.1224 34.4143 51.1261 34.4977 51.1261C34.9604 51.1261 35.4035 51.0387 35.8158 50.885C36.4891 51.3339 37.2917 51.5811 38.146 51.5465C39.1958 51.5026 40.1374 51.0395 40.8416 50.315L38.2692 47.7482C38.2753 47.6888 38.2862 47.6319 38.2887 47.5705C38.322 47.0663 38.2529 46.5784 38.1029 46.1251L43.3678 51.3766C44.0321 51.6469 44.755 51.7823 45.508 51.7518C47.0148 51.6904 48.357 50.9789 49.3076 49.8779L49.8345 49.2668C49.8833 49.209 49.9207 49.144 49.9532 49.0741L41.8471 40.9903C41.6381 40.7834 41.6215 40.439 41.8069 40.2223C41.9927 40.0068 42.3147 39.9995 42.522 40.2064L52.1626 49.8201C52.6879 50.0043 53.2502 50.0942 53.8345 50.0702C55.1592 50.0161 56.3411 49.3904 57.1766 48.4207L58.4497 46.9472C58.7416 46.6073 58.9156 46.1487 58.8993 45.6502L50.4395 37.216C50.233 37.0086 50.2143 36.6634 50.3997 36.4483C50.5867 36.2324 50.9079 36.2251 51.1148 36.4321L59.6145 44.9074C59.9634 45.0005 60.3297 45.046 60.7062 45.031C61.7922 44.9871 62.7583 44.4748 63.4421 43.6807L63.7841 43.2847C64.4684 42.4922 64.8717 41.4188 64.8306 40.2515C64.7892 39.0846 64.3135 38.0478 63.5759 37.3119L61.3067 35.0497L61.88 35.6205L68.0154 30.0804C68.276 29.8462 68.4651 29.5181 68.5342 29.1326C68.6029 28.7476 68.5407 28.3674 68.3809 28.0458ZM21.1059 37.2091C20.5306 37.1716 20.0045 36.9122 19.6235 36.478C19.2429 36.045 19.0551 35.4892 19.0933 34.9127C19.1661 33.7811 20.1135 32.8952 21.2446 32.8952C21.2926 32.8952 21.3413 32.8964 21.3893 32.8992C21.9646 32.9375 22.4908 33.1965 22.8717 33.6307C23.2523 34.0645 23.4401 34.6199 23.4031 35.1965C23.3243 36.376 22.2993 37.2887 21.1059 37.2091ZM24.7843 42.1491C24.2301 42.1491 23.7032 41.9401 23.3007 41.5591C22.4464 40.7516 22.4001 39.3908 23.1929 38.5305C23.234 38.4878 24.0764 37.5965 24.4806 37.1712L24.6928 36.9456C25.1051 36.5105 25.6621 36.2707 26.2614 36.2707C26.816 36.2707 27.3434 36.4809 27.7451 36.8626C28.1643 37.2587 28.4046 37.7941 28.42 38.3715C28.4359 38.9468 28.2261 39.4953 27.8301 39.9133L27.2291 40.5488C27.1006 40.6837 26.9628 40.8297 26.8217 40.9785C26.7994 41.0037 26.7746 41.0289 26.753 41.0525C26.6481 41.1627 26.5554 41.2603 26.4834 41.3355C26.4424 41.3798 26.4013 41.4241 26.359 41.4672C26.3485 41.4782 26.3403 41.4876 26.3395 41.4888C25.9305 41.9149 25.3771 42.1491 24.7843 42.1491ZM29.6052 46.7134C29.195 47.1395 28.6432 47.3737 28.0508 47.3737C27.4962 47.3737 26.9681 47.1635 26.5668 46.7821C25.713 45.9747 25.6662 44.6142 26.4566 43.7579C26.4753 43.7376 26.9701 43.2139 27.5308 42.6223L27.9471 42.1824C28.6762 41.4107 28.9152 41.1599 28.9957 41.0724C29.0051 41.0639 29.0161 41.0537 29.0238 41.0448L29.0254 41.0436C29.0958 40.9675 29.1368 40.9253 29.138 40.924C29.5495 40.489 30.1073 40.2487 30.7071 40.2487C31.2616 40.2487 31.7878 40.4585 32.1907 40.8399C32.6099 41.2367 32.849 41.7726 32.8648 42.3483C32.8807 42.9261 32.6709 43.4741 32.2732 43.8941C32.2346 43.9348 29.6886 46.6248 29.6052 46.7134ZM34.3525 49.4782C33.1645 49.3993 32.261 48.369 32.3395 47.1818C32.4139 46.0495 33.3576 45.1635 34.4903 45.1635C34.5383 45.1635 34.5871 45.1651 34.6351 45.168C35.8227 45.246 36.7262 46.2763 36.6489 47.464C36.5708 48.6427 35.5475 49.5567 34.3525 49.4782ZM60.7501 34.4951L43.9443 17.7397L44.1338 17.2611C44.2317 17.0115 44.2191 16.7167 44.0756 16.4687C43.9317 16.2215 43.691 16.0775 43.4389 16.0641L42.1899 15.9893L40.8254 15.9084L40.7217 17.5258C40.7205 17.5595 40.4501 21.2375 38.5745 24.5606C36.6518 27.9706 34.1041 29.1464 33.7158 29.2221C33.282 29.3062 32.827 29.3863 32.4489 29.3863C32.1891 29.3863 31.989 29.3497 31.8179 29.2713L31.1799 28.9757C30.9124 28.8517 30.7083 28.624 30.6005 28.3337C30.4956 28.0535 30.4969 27.7474 30.6005 27.4681L36.9925 13.44L38.0793 12.724L38.5172 12.5573H38.5164L46.5497 9.49328C47.0547 9.30097 47.5836 9.20014 48.1207 9.19526L48.1655 9.19485C48.6867 9.19485 49.2031 9.28511 49.6975 9.4632L59.0534 12.8257L67.0327 28.8228L60.7501 34.4951Z" fill="#FDFDFD"/>
<path d="M69.8477 1.83203L63.5318 4.98104C62.6235 5.4352 61.8868 6.23536 61.5387 7.2746C61.1911 8.31424 61.2988 9.39616 61.7505 10.3065L70.0201 26.8851C70.4734 27.793 71.2732 28.5309 72.3145 28.8773C73.3529 29.2254 74.4348 29.1193 75.3448 28.6655L81.6595 25.5149L69.8477 1.83203ZM75.3285 25.5246C74.4897 25.5246 73.8075 24.8444 73.8075 24.0044C73.8075 23.1636 74.4897 22.4817 75.3285 22.4817C76.1689 22.4817 76.8512 23.1636 76.8512 24.0044C76.8512 24.8444 76.1689 25.5246 75.3285 25.5246Z" fill="#FDFDFD"/>
<path d="M0.34082 21.8986L6.11516 25.9551C6.94622 26.5398 8.0005 26.8061 9.08039 26.617C10.1611 26.4288 11.0613 25.8197 11.6447 24.9891L22.2944 9.82909C22.8795 8.99843 23.1458 7.94293 22.9576 6.86385C22.7677 5.78355 22.1611 4.88256 21.3292 4.29788L15.5541 0.242188L0.34082 21.8986ZM5.3215 21.1204C5.44673 20.2893 6.22209 19.7173 7.05193 19.8421C7.88381 19.9677 8.45506 20.7435 8.33065 21.5741C8.20501 22.406 7.43047 22.9781 6.599 22.8516C5.76753 22.7272 5.19587 21.9523 5.3215 21.1204Z" fill="#FDFDFD"/>
</svg>
