<svg width="58" height="58" viewBox="0 0 58 58" fill="none" xmlns="http://www.w3.org/2000/svg">
<g clip-path="url(#clip0_2763_6023)">
<path d="M45.5244 10.118H42.9278C42.3799 7.45391 40.9303 5.06015 38.8233 3.34018C36.7164 1.62022 34.0809 0.679215 31.361 0.675781L26.6399 0.675781C23.9201 0.679215 21.2846 1.62022 19.1776 3.34018C17.0707 5.06015 15.6211 7.45391 15.0732 10.118H12.4766C9.34746 10.1217 6.34756 11.3665 4.13492 13.5791C1.92228 15.7917 0.677576 18.7916 0.673828 21.9208L0.673828 29.0024H57.3271V21.9208C57.3234 18.7916 56.0787 15.7917 53.8661 13.5791C51.6534 11.3665 48.6535 10.1217 45.5244 10.118ZM19.9926 10.118C20.4791 8.74201 21.3788 7.54993 22.5687 6.70485C23.7586 5.85976 25.1805 5.40294 26.6399 5.39689H31.361C32.8205 5.40294 34.2424 5.85976 35.4323 6.70485C36.6222 7.54993 37.5219 8.74201 38.0084 10.118H19.9926Z" fill="#FDFDFD"/>
<path d="M31.361 36.0832C31.361 36.7093 31.1123 37.3097 30.6697 37.7524C30.227 38.1951 29.6265 38.4438 29.0005 38.4438C28.3744 38.4438 27.774 38.1951 27.3313 37.7524C26.8886 37.3097 26.6399 36.7093 26.6399 36.0832V33.7227H0.673828V45.5254C0.677576 48.6546 1.92228 51.6545 4.13492 53.8671C6.34756 56.0798 9.34746 57.3245 12.4766 57.3282H45.5244C48.6535 57.3245 51.6534 56.0798 53.8661 53.8671C56.0787 51.6545 57.3234 48.6546 57.3271 45.5254V33.7227H31.361V36.0832Z" fill="#FDFDFD"/>
</g>
<defs>
<clipPath id="clip0_2763_6023">
<rect width="56.6533" height="56.6533" fill="white" transform="translate(0.673828 0.675781)"/>
</clipPath>
</defs>
</svg>
