<svg width="200" height="61" viewBox="0 0 200 61" fill="none" xmlns="http://www.w3.org/2000/svg">
<path d="M86.4805 17.5742C90.0897 17.5742 92.9779 18.9316 95.1842 21.9534C96.6929 24.0131 97.5355 26.9463 97.5119 30.0212C97.5064 31.5384 97.2974 33.0382 96.8974 34.4307C96.4974 35.8232 95.9146 37.0795 95.1842 38.1244C93.119 40.9809 89.9016 42.5035 86.4844 42.5035C83.0633 42.5035 79.9008 40.9809 77.8042 38.1244C77.0483 37.1069 76.4462 35.8571 76.0386 34.4591C75.6309 33.0612 75.4272 31.5478 75.4412 30.0212C75.4412 26.964 76.2955 24.0308 77.8042 21.9534C79.7636 19.2739 83.2279 17.5742 86.4805 17.5742ZM86.4922 39.2339C88.2988 39.2339 89.9721 38.2837 91.1478 36.5309C92.3234 34.7603 92.8446 32.6357 92.8446 30.0212C92.8446 27.5188 92.2647 25.1758 91.1478 23.5115C89.9957 21.7999 88.2753 20.832 86.4922 20.832C84.7092 20.832 82.9927 21.794 81.8288 23.5115C80.712 25.1758 80.1281 27.5188 80.1281 30.0212C80.1042 32.4436 80.7153 34.7825 81.8288 36.5309C82.9927 38.266 84.7013 39.2339 86.4922 39.2339ZM67.5213 27.6191C68.1483 27.867 68.7557 28.1739 69.3474 28.5811C69.8965 28.9576 70.3988 29.4726 70.8327 30.1038C71.6047 31.3196 72.0436 32.9485 72.0318 34.6305C72.039 35.5172 71.9084 36.3942 71.6505 37.1914C71.3927 37.9886 71.0146 38.684 70.5466 39.2221C69.7171 40.1715 68.7737 40.8709 67.7681 41.2819C66.255 41.9971 64.6746 42.3359 63.0891 42.2852C61.7097 42.2852 60.9494 42.0432 59.9031 41.7127L59.6013 41.6183C58.4483 41.2343 57.3224 40.6848 56.239 39.9776C56.1905 39.9281 56.1329 39.9033 56.0744 39.9067C55.9885 39.9098 55.9067 39.9634 55.8467 40.0561C55.7866 40.1487 55.753 40.273 55.7531 40.4025V41.6006H53.4488V32.8777H55.5023C55.5149 33.7619 55.7018 34.6206 56.0391 35.3446C56.8699 36.8791 57.7634 37.4693 58.6138 37.9414C60.052 38.6496 61.5607 39.0274 63.0656 39.0982C65.2327 39.0982 66.4984 38.3073 66.7728 38.1362L66.808 38.1126L66.8315 38.1008C67.0745 37.965 68.0542 37.428 68.0542 35.7873C68.0542 34.1702 67.1372 33.8161 66.5376 33.5859L66.4514 33.5564C65.7852 33.2849 64.249 33.037 62.5718 32.7714L61.9761 32.677C60.4033 32.4358 58.8382 32.0912 57.2853 31.6442C55.3337 30.995 54.5657 29.9208 54.0876 29.2539L54.0562 29.2067C53.3593 28.0875 52.9724 26.6098 52.9746 25.0754C52.9746 22.1481 54.307 20.3776 55.9451 19.2917C57.7281 18.1508 59.647 17.5704 61.5843 17.586C64.7977 17.6037 67.4115 19.1795 68.352 19.9113C68.7322 20.2182 68.9203 19.8405 68.9203 19.5572V18.6779H70.9855V26.2794H69.1358C68.9697 25.1514 68.5655 24.1347 67.9837 23.3816C67.6291 22.9521 67.2376 22.5968 66.8198 22.3252C65.2693 21.3392 63.6002 20.8469 61.9174 20.8792C60.1813 20.8792 58.5197 21.3809 57.685 22.1481C57.1678 22.6321 56.9013 23.24 56.9013 23.9541C56.9013 24.9751 57.4734 25.3823 57.7634 25.5063C58.5315 25.8604 60.2401 26.1142 61.5686 26.3148L62.368 26.4388C63.6495 26.6335 66.3339 27.1706 67.5213 27.6191ZM138.714 21.735V18.908H147.026V21.6819H145.161C144.487 21.6819 144.212 21.8767 143.703 22.7383L138.111 32.3583C138.052 32.4766 138.025 32.6244 138.036 32.7714V37.1506C138.046 37.3542 138.061 37.5571 138.083 37.7585C138.117 37.8868 138.17 38.0017 138.238 38.0939C138.306 38.1861 138.387 38.2532 138.475 38.2896C138.644 38.3271 138.814 38.3468 138.985 38.3487H140.889V41.1225H130.802V38.3487H132.605C132.775 38.3469 132.946 38.3272 133.114 38.2896C133.204 38.2512 133.287 38.1837 133.357 38.092C133.428 38.0002 133.484 37.8864 133.522 37.7585C133.545 37.5637 133.557 37.3662 133.557 37.1683V32.7891C133.557 32.6416 133.557 32.6416 133.428 32.4114C131.587 29.253 129.743 26.0994 127.895 22.9508C127.597 22.4845 127.087 21.735 126.303 21.735H124.509V18.9612H134.651V21.735H133.428C133.154 21.735 132.965 22.1481 133.201 22.5967L136.645 28.7995C136.68 28.8703 136.704 28.8703 136.751 28.8172C136.798 28.7641 140.254 22.6498 140.278 22.5967C140.306 22.5402 140.327 22.4758 140.339 22.4072C140.351 22.3386 140.354 22.2671 140.347 22.1968C140.341 22.1266 140.325 22.059 140.301 21.998C140.277 21.9369 140.245 21.8837 140.207 21.8412C140.138 21.7723 140.056 21.7354 139.972 21.735H138.714ZM114.089 21.7173H115.989C116.855 21.7173 117.008 22.219 117.02 23.4347L117.13 32.677L107.011 18.9612H99.7809V21.735H101.395C102.559 21.735 102.642 22.7029 102.642 23.5646V36.6253C102.642 37.3808 102.646 38.3664 101.928 38.3664H99.9455V41.1225H108.426V38.3487H106.357C105.526 38.3487 105.495 37.7762 105.479 36.5604V25.4532L117.13 41.0989H120.096L119.939 23.417C119.955 22.1304 120.014 21.6996 120.892 21.6996H122.745V18.9257H114.089V21.7173Z" fill="black"/>
</svg>
