<svg width="96" height="26" viewBox="0 0 96 26" fill="none" xmlns="http://www.w3.org/2000/svg">
<path d="M34.4805 0.574219C38.0897 0.574219 40.9779 1.93164 43.1842 4.95338C44.6929 7.01312 45.5355 9.94632 45.5119 13.0212C45.5064 14.5384 45.2974 16.0382 44.8974 17.4307C44.4974 18.8232 43.9146 20.0795 43.1842 21.1244C41.119 23.9809 37.9016 25.5035 34.4844 25.5035C31.0633 25.5035 27.9008 23.9809 25.8042 21.1244C25.0483 20.1069 24.4462 18.8571 24.0386 17.4591C23.6309 16.0612 23.4272 14.5478 23.4412 13.0212C23.4412 9.96403 24.2955 7.03082 25.8042 4.95338C27.7636 2.27395 31.2279 0.574219 34.4805 0.574219ZM34.4922 22.2339C36.2988 22.2339 37.9721 21.2837 39.1478 19.5309C40.3234 17.7603 40.8446 15.6357 40.8446 13.0212C40.8446 10.5188 40.2647 8.17578 39.1478 6.51146C37.9957 4.79993 36.2753 3.83203 34.4922 3.83203C32.7092 3.83203 30.9927 4.79403 29.8288 6.51146C28.712 8.17578 28.1281 10.5188 28.1281 13.0212C28.1042 15.4436 28.7153 17.7825 29.8288 19.5309C30.9927 21.266 32.7013 22.2339 34.4922 22.2339ZM15.5213 10.6191C16.1483 10.867 16.7557 11.1739 17.3474 11.5811C17.8965 11.9576 18.3988 12.4726 18.8327 13.1038C19.6047 14.3196 20.0436 15.9485 20.0318 17.6305C20.039 18.5172 19.9084 19.3942 19.6505 20.1914C19.3927 20.9886 19.0146 21.684 18.5466 22.2221C17.7171 23.1715 16.7737 23.8709 15.7681 24.2819C14.255 24.9971 12.6746 25.3359 11.0891 25.2852C9.70966 25.2852 8.94941 25.0432 7.90308 24.7127L7.60133 24.6183C6.44835 24.2343 5.32243 23.6848 4.23899 22.9776C4.19055 22.9281 4.13288 22.9033 4.0744 22.9067C3.98846 22.9098 3.90673 22.9634 3.84669 23.0561C3.78664 23.1487 3.75303 23.273 3.75306 23.4025V24.6006H1.4488V15.8777H3.50225C3.51489 16.7619 3.70177 17.6206 4.03913 18.3446C4.86992 19.8791 5.76341 20.4693 6.61379 20.9414C8.052 21.6496 9.56074 22.0274 11.0656 22.0982C13.2327 22.0982 14.4984 21.3073 14.7728 21.1362L14.808 21.1126L14.8315 21.1008C15.0745 20.965 16.0542 20.428 16.0542 18.7873C16.0542 17.1702 15.1372 16.8161 14.5376 16.5859L14.4514 16.5564C13.7852 16.2849 12.249 16.037 10.5718 15.7714L9.97614 15.677C8.40329 15.4358 6.83819 15.0912 5.28532 14.6442C3.33375 13.995 2.56566 12.9208 2.08756 12.2539L2.05621 12.2067C1.35926 11.0875 0.972381 9.60981 0.974619 8.07545C0.974619 5.14814 2.30702 3.37759 3.94508 2.29165C5.72808 1.15075 7.64702 0.570351 9.58425 0.586027C12.7977 0.603733 15.4115 2.17952 16.352 2.91135C16.7322 3.21824 16.9203 2.84052 16.9203 2.55724V1.67786H18.9855V9.27942H17.1358C16.9697 8.15139 16.5655 7.13471 15.9837 6.38162C15.6291 5.95213 15.2376 5.59678 14.8198 5.32519C13.2693 4.33924 11.6002 3.84694 9.91735 3.87925C8.18132 3.87925 6.51974 4.3809 5.68503 5.14814C5.16775 5.63209 4.90127 6.23998 4.90127 6.9541C4.90127 7.97511 5.47342 8.38234 5.76341 8.50628C6.5315 8.86039 8.2401 9.11417 9.56858 9.31483L10.368 9.43877C11.6495 9.63353 14.3339 10.1706 15.5213 10.6191ZM86.7144 4.73501V1.90804H95.0262V4.68189H93.1608C92.4868 4.68189 92.2125 4.87665 91.703 5.73832L86.1109 15.3583C86.0519 15.4766 86.0252 15.6244 86.0364 15.7714V20.1506C86.0458 20.3542 86.0615 20.5571 86.0834 20.7585C86.1168 20.8868 86.1696 21.0017 86.2376 21.0939C86.3056 21.1861 86.387 21.2532 86.4753 21.2896C86.644 21.3271 86.8142 21.3468 86.9848 21.3487H88.8893V24.1225H78.8023V21.3487H80.6049C80.7754 21.3469 80.9457 21.3272 81.1144 21.2896C81.2039 21.2512 81.2868 21.1837 81.3572 21.092C81.4276 21.0002 81.4838 20.8864 81.5219 20.7585C81.5453 20.5637 81.5571 20.3662 81.5572 20.1683V15.7891C81.5572 15.6416 81.5572 15.6416 81.4279 15.4114C79.5871 12.253 77.7427 9.09944 75.8945 5.95079C75.5967 5.48454 75.0872 4.73501 74.3035 4.73501H72.5087V1.96115H82.6506V4.73501H81.4279C81.1536 4.73501 80.9655 5.14814 81.2006 5.59668L84.6452 11.7995C84.6805 11.8703 84.704 11.8703 84.751 11.8172C84.7981 11.7641 88.2544 5.6498 88.278 5.59668C88.3065 5.54022 88.3273 5.47581 88.3392 5.40718C88.3511 5.33855 88.3538 5.26706 88.3472 5.19682C88.3407 5.12658 88.3249 5.059 88.3009 4.99797C88.277 4.93694 88.2452 4.88367 88.2074 4.84124C88.1375 4.77226 88.0559 4.73536 87.9723 4.73501H86.7144ZM62.0885 4.71731H63.9892C64.8552 4.71731 65.008 5.21896 65.0198 6.43473L65.1295 15.677L55.0112 1.96115H47.7809V4.73501H49.3955C50.5594 4.73501 50.6417 5.70291 50.6417 6.56458V19.6253C50.6417 20.3808 50.6456 21.3664 49.9284 21.3664H47.9455V24.1225H56.4258V21.3487H54.3567C53.5259 21.3487 53.4946 20.7762 53.4789 19.5604V8.45316L65.1295 24.0989H68.0961L67.9393 6.41703C67.955 5.13043 68.0138 4.6996 68.8916 4.6996H70.7452V1.92574H62.0885V4.71731Z" fill="black"/>
</svg>
