<svg width="85" height="84" viewBox="0 0 85 84" fill="none" xmlns="http://www.w3.org/2000/svg">
<path d="M23.775 59.5L35.15 42L33.3545 44.7125C32.1598 46.5208 30.8625 48.5193 29.4625 50.708C28.0625 52.8967 26.7652 54.9092 25.5705 56.7455L23.775 59.5ZM11 66.5L26.75 42L11 17.5H53C54.1667 17.5 55.261 17.7625 56.283 18.2875C57.305 18.8125 58.1357 19.5417 58.775 20.475L72.8625 40.3375C71.2875 39.6958 69.6682 39.214 68.0045 38.892C66.3408 38.57 64.6643 38.4393 62.975 38.5L53 24.5H23.775L35.15 42L23.775 59.5H39.2625C39.0875 60.6667 39 61.8333 39 63C39 64.1667 39.0875 65.3333 39.2625 66.5H11ZM60.9625 70.875L73.125 58.8L69.45 55.125L60.9625 63.4375L57.55 60.025L53.875 63.7875L60.9625 70.875ZM63.5 80.5C58.6583 80.5 54.5318 78.7932 51.1205 75.3795C47.7092 71.9658 46.0023 67.8393 46 63C46 58.1583 47.7068 54.0318 51.1205 50.6205C54.5342 47.2092 58.6607 45.5023 63.5 45.5C68.3417 45.5 72.4693 47.2068 75.883 50.6205C79.2967 54.0342 81.0023 58.1607 81 63C81 67.8417 79.2932 71.9693 75.8795 75.383C72.4658 78.7967 68.3393 80.5023 63.5 80.5Z" fill="#5C27C0"/>
</svg>
