<svg width="85" height="56" viewBox="0 0 85 56" fill="none" xmlns="http://www.w3.org/2000/svg">
<path d="M70.5 0C72.3565 0 74.137 0.737498 75.4497 2.05025C76.7625 3.36301 77.5 5.14348 77.5 7V42C77.5 45.885 74.385 49 70.5 49H84.5V56H0.5V49H14.5C12.6435 49 10.863 48.2625 9.55025 46.9497C8.2375 45.637 7.5 43.8565 7.5 42V7C7.5 3.115 10.615 0 14.5 0H70.5ZM70.5 7H14.5V42H70.5V7ZM42.5 28C50.235 28 56.5 31.15 56.5 35V38.5H28.5V35C28.5 31.15 34.765 28 42.5 28ZM42.5 10.5C44.3565 10.5 46.137 11.2375 47.4497 12.5503C48.7625 13.863 49.5 15.6435 49.5 17.5C49.5 19.3565 48.7625 21.137 47.4497 22.4497C46.137 23.7625 44.3565 24.5 42.5 24.5C38.615 24.5 35.5 21.385 35.5 17.5C35.5 13.615 38.65 10.5 42.5 10.5Z" fill="white"/>
</svg>
