<svg width="69" height="71" viewBox="0 0 69 71" fill="none" xmlns="http://www.w3.org/2000/svg">
<path fill-rule="evenodd" clip-rule="evenodd" d="M32.2517 8.83587V18.2491H37.5017V8.83587L51.3984 22.7326L55.1102 19.0156L36.7352 0.640625H33.0234L14.6484 19.0156L18.3602 22.7326L32.2517 8.83587Z" fill="white"/>
<path d="M3.375 39.25L0.75 41.875V68.125L3.375 70.75H66.375L69 68.125V41.875L66.375 39.25H47.7375C47.135 42.217 45.5253 44.8845 43.1812 46.8005C40.837 48.7165 37.9026 49.7632 34.875 49.7632C31.8474 49.7632 28.913 48.7165 26.5688 46.8005C24.2247 44.8845 22.615 42.217 22.0125 39.25H3.375ZM51.4808 44.5H63.75V65.5H6V44.5H18.2692C19.7586 47.6438 22.1098 50.3002 25.0494 52.1603C27.989 54.0205 31.3963 55.008 34.875 55.008C38.3537 55.008 41.761 54.0205 44.7006 52.1603C47.6402 50.3002 49.9914 47.6438 51.4808 44.5ZM32.25 23.5H37.5V28.75H32.25V23.5ZM32.25 34H37.5V39.25H32.25V34Z" fill="white"/>
</svg>
