<svg width="200" height="61" viewBox="0 0 200 61" fill="none" xmlns="http://www.w3.org/2000/svg">
<path fill-rule="evenodd" clip-rule="evenodd" d="M63.033 13.5898L55.8332 37.2792H51.6494L46.5601 20.072L41.396 37.2792H37.2115L30.0117 13.5898H34.1583L39.2847 30.797L44.4494 13.5898H48.5579L53.76 30.797L58.8869 13.5898H63.033Z" fill="black"/>
<path fill-rule="evenodd" clip-rule="evenodd" d="M64.9531 13.657L69.0996 13.3516V19.1549L69.024 21.3269H69.1751C71.0973 20.6819 72.6432 20.3765 74.5281 20.3765C77.8833 20.3765 80.1447 21.7346 80.1447 26.9264V37.2783H75.9981V27.2318C75.9981 24.1097 74.3018 23.7027 72.3797 23.7027C71.1729 23.7027 70.1552 23.9404 69.0997 24.2119V37.2783H64.9532L64.9531 13.657Z" fill="black"/>
<path fill-rule="evenodd" clip-rule="evenodd" d="M83.7624 20.6145H87.9093V37.2786H83.7624V20.6145ZM85.8361 13.8945C87.985 13.8945 88.3243 15.0146 88.3243 16.2703C88.3243 17.5262 87.8714 18.6805 85.8361 18.6805C83.8004 18.6805 83.3857 17.5262 83.3857 16.2703C83.3857 15.0145 83.7624 13.8945 85.8361 13.8945Z" fill="black"/>
<path fill-rule="evenodd" clip-rule="evenodd" d="M91.416 20.6166H94.2432L94.8088 21.9743H95.0728C96.1658 21.1258 97.8994 20.3789 100.162 20.3789C100.425 20.3789 100.727 20.3789 101.028 20.413V24.0779C100.275 23.977 99.483 23.8748 98.6913 23.8748C97.5601 23.8748 96.6558 24.1121 95.5625 24.5536V37.2807H91.4161L91.416 20.6166Z" fill="black"/>
<path fill-rule="evenodd" clip-rule="evenodd" d="M102.797 37.2783V13.657L106.943 13.3516V37.2783H102.797Z" fill="black"/>
<path fill-rule="evenodd" clip-rule="evenodd" d="M140.334 29.0329C140.334 25.8776 139.767 23.2978 136.45 23.2978C133.096 23.2978 132.266 25.7753 132.266 29.0329C132.266 32.0533 132.944 34.6672 136.262 34.6672C139.579 34.6672 140.334 32.1897 140.334 29.0329ZM136.412 20.3789C142.293 20.3789 144.556 23.5013 144.556 29.0329C144.556 34.2257 142.444 37.6204 136.337 37.6204C130.23 37.6204 128.081 34.2257 128.081 29.0329C128.081 23.5014 130.532 20.3789 136.412 20.3789Z" fill="black"/>
<path fill-rule="evenodd" clip-rule="evenodd" d="M158.93 29.0329C158.93 25.8776 158.364 23.2978 155.048 23.2978C151.693 23.2978 150.863 25.7753 150.863 29.0329C150.863 32.0533 151.542 34.6672 154.86 34.6672C158.177 34.6672 158.93 32.1897 158.93 29.0329ZM155.01 20.3789C160.891 20.3789 163.154 23.5013 163.154 29.0329C163.154 34.2257 161.041 37.6204 154.935 37.6204C148.828 37.6204 146.679 34.2257 146.679 29.0329C146.679 23.5014 149.129 20.3789 155.01 20.3789Z" fill="black"/>
<path fill-rule="evenodd" clip-rule="evenodd" d="M165.842 37.2783V13.657L169.988 13.3516V37.2783H165.842Z" fill="black"/>
<path fill-rule="evenodd" clip-rule="evenodd" d="M114.477 34.1924C115.646 34.2256 116.287 34.2595 117.493 34.2595C120.056 34.2595 121.753 33.0379 121.753 28.1839C121.753 24.8584 120.245 23.977 117.531 23.977C116.475 23.977 115.495 24.1452 114.478 24.4517L114.477 34.1924ZM110.331 20.6163H113.46L113.799 21.8378C115.044 21.227 117.342 20.3789 119.416 20.3789C123.185 20.3789 125.936 22.8563 125.936 28.7951C125.936 34.6332 123.033 37.518 118.209 37.518C116.433 37.518 114.478 37.1788 114.478 37.1788V44.8145L110.331 45.2221L110.331 20.6163Z" fill="black"/>
<path fill-rule="evenodd" clip-rule="evenodd" d="M130.864 10.3764C127.763 7.14139 117.923 9.98485 106.943 16.8268V18.5512C116.613 12.3623 125.137 9.50708 127.579 12.0539C130.627 15.2337 123.044 25.6353 110.64 35.2733C98.2344 44.9118 85.7027 50.1379 82.6549 46.9577C81.0718 45.3058 82.3626 41.7066 85.7027 37.2795H83.7612C79.6254 42.8324 78.0752 47.4976 80.1987 49.7127C84.0695 53.7517 98.549 48.2261 112.536 37.3591C126.522 26.4926 134.734 14.4146 130.864 10.3764Z" fill="#EFB200" fill-opacity="0.53"/>
</svg>
