<svg width="102" height="31" viewBox="0 0 102 31" fill="none" xmlns="http://www.w3.org/2000/svg">
<g clip-path="url(#clip0_2763_6768)">
<path fill-rule="evenodd" clip-rule="evenodd" d="M63.029 23.9223C57.1468 28.2718 48.5909 30.5889 41.2114 30.5889C30.873 30.5889 21.6041 26.7743 14.5455 20.4287C14.0107 19.9298 14.4742 19.2523 15.1515 19.6444C22.7448 24.065 32.1208 26.7031 41.8174 26.7031C48.3413 26.7031 55.5425 25.3484 62.1733 22.532C63.1712 22.1399 63.9914 23.2094 63.0289 23.9223H63.029Z" fill="#FF9900"/>
<path fill-rule="evenodd" clip-rule="evenodd" d="M65.4885 21.1034C64.7401 20.1408 60.4976 20.6399 58.6082 20.8895C58.0378 20.9607 57.9308 20.4617 58.4656 20.1051C61.8523 17.7166 67.378 18.4296 68.0197 19.2139C68.6614 19.9982 67.8415 25.5591 64.6681 28.1976C64.1691 28.5897 63.7056 28.3758 63.9197 27.8411C64.6329 26.0585 66.2372 22.1012 65.4885 21.1034Z" fill="#FF9900"/>
<path fill-rule="evenodd" clip-rule="evenodd" d="M58.7147 3.3516V1.03379C58.7107 0.957816 58.7227 0.881839 58.7499 0.810798C58.7771 0.739757 58.819 0.675242 58.8728 0.621443C58.9266 0.567645 58.9911 0.525768 59.0622 0.498534C59.1332 0.4713 59.2092 0.459318 59.2852 0.463367H69.6236C69.7792 0.460091 69.9299 0.518018 70.0433 0.624692C70.1566 0.731365 70.2235 0.878263 70.2297 1.03379V2.99453C70.2297 3.31537 69.9446 3.74295 69.4454 4.45622L64.098 12.0853C66.0944 12.0496 68.198 12.3348 69.9802 13.3326C70.3723 13.5465 70.4792 13.9031 70.515 14.2239V16.6837C70.515 17.0402 70.1584 17.4321 69.7666 17.2184C66.5937 15.5429 62.3514 15.3647 58.8578 17.2541C58.5013 17.4323 58.1094 17.0759 58.1094 16.7194V14.3668C58.1094 14.0102 58.1094 13.3689 58.5015 12.7982L64.7046 3.92148H59.3208C59.1653 3.92476 59.0147 3.86691 58.9014 3.76035C58.788 3.65379 58.721 3.50703 58.7147 3.3516ZM21.0331 17.7178H17.8959C17.7553 17.7036 17.6233 17.6436 17.5202 17.547C17.4171 17.4503 17.3487 17.3225 17.3255 17.1831V1.06948C17.3317 0.913967 17.3986 0.767086 17.5119 0.660416C17.6252 0.553745 17.7759 0.495805 17.9315 0.499052H20.8548C20.9993 0.501239 21.1379 0.557244 21.2434 0.656126C21.3489 0.755009 21.4137 0.889666 21.4252 1.03379V3.13716H21.4965C22.2449 1.10516 23.7068 0.142633 25.6318 0.142633C27.5926 0.142633 28.8403 1.10516 29.6959 3.13716C30.4444 1.10516 32.1914 0.142633 34.0454 0.142633C35.3645 0.142633 36.7905 0.677371 37.6818 1.92516C38.6796 3.2798 38.4661 5.24054 38.4661 6.98738V17.1832C38.4599 17.3387 38.393 17.4856 38.2797 17.5923C38.1663 17.6989 38.0157 17.7569 37.8601 17.7536H34.7582C34.4373 17.7179 34.1877 17.4685 34.1877 17.1832V8.62717C34.1877 7.9498 34.259 6.23864 34.1165 5.59696C33.867 4.52748 33.1896 4.20664 32.2627 4.20664C31.8534 4.21829 31.4565 4.34937 31.1208 4.58374C30.7851 4.8181 30.5252 5.14552 30.3732 5.52569C30.0524 6.34559 30.0881 7.70033 30.0881 8.62717V17.1832C30.0819 17.3387 30.015 17.4856 29.9016 17.5923C29.7883 17.6989 29.6376 17.7569 29.482 17.7536H26.3449C26.024 17.7179 25.7745 17.4685 25.7745 17.1832V8.62717C25.7745 6.84464 26.0596 4.17095 23.8494 4.17095C21.6035 4.17095 21.6748 6.73769 21.6748 8.62717V17.1832C21.6524 17.3357 21.5745 17.4745 21.4561 17.5732C21.3377 17.6719 21.1871 17.7234 21.0331 17.7179V17.7178ZM79.142 0.142633C83.8122 0.142633 86.3433 4.13538 86.3433 9.23328C86.3433 14.153 83.5627 18.0744 79.142 18.0744C74.5789 18.0744 72.0834 14.0816 72.0834 9.09065C72.0477 4.06401 74.5789 0.142199 79.142 0.142199V0.142633ZM79.142 3.45801C76.8248 3.45801 76.6822 6.63086 76.6822 8.5916C76.6822 10.5523 76.6466 14.759 79.1065 14.759C81.5307 14.759 81.6732 11.3722 81.6732 9.30454C81.6732 7.9498 81.6019 6.31001 81.2097 5.02653C80.8532 3.88569 80.1403 3.45801 79.142 3.45801ZM92.3681 17.7178H89.2309C88.9101 17.6821 88.6605 17.4327 88.6605 17.1474V0.997888C88.6801 0.850678 88.7522 0.71551 88.8636 0.617257C88.975 0.519004 89.1181 0.464278 89.2666 0.46315H92.1899C92.3224 0.467824 92.4498 0.515608 92.5528 0.59925C92.6557 0.682893 92.7286 0.797831 92.7603 0.926626V3.38642H92.8315C93.7228 1.1761 94.9349 0.142307 97.1096 0.142307C98.4999 0.142307 99.8902 0.641251 100.781 2.03179C101.601 3.31516 101.601 5.48979 101.601 7.05843V17.2186C101.58 17.3619 101.506 17.4922 101.394 17.5844C101.282 17.6765 101.14 17.7239 100.995 17.7175H97.8579C97.5727 17.6818 97.3231 17.468 97.2874 17.2186V8.44896C97.2874 6.66643 97.5013 4.09947 95.3267 4.09947C94.5783 4.09947 93.8651 4.59842 93.5086 5.38284C93.0808 6.38073 93.0096 7.34359 93.0096 8.44875V17.1477C92.9897 17.3043 92.9137 17.4484 92.7958 17.5533C92.6778 17.6581 92.5258 17.7167 92.368 17.7181L92.3681 17.7178ZM50.4799 10.0176C50.4799 11.2297 50.5156 12.2635 49.9095 13.3692C49.4105 14.2605 48.6261 14.7952 47.7348 14.7952C46.5227 14.7952 45.8098 13.8684 45.8098 12.5136C45.8098 9.83993 48.1983 9.34077 50.4799 9.34077V10.0176ZM53.6527 17.6822C53.5511 17.7709 53.4243 17.8255 53.29 17.8383C53.1557 17.8511 53.0208 17.8214 52.9043 17.7535C51.8705 16.8979 51.657 16.4701 51.0862 15.6501C49.375 17.3964 48.1273 17.9317 45.917 17.9317C43.2789 17.9317 41.2112 16.2918 41.2112 13.0477C41.2112 10.481 42.6016 8.76981 44.5628 7.91412C46.274 7.1657 48.6629 7.02285 50.4806 6.80896V6.41685C50.4806 5.66844 50.5519 4.77695 50.0885 4.13527C49.6964 3.56485 48.9834 3.31537 48.3422 3.31537C47.1301 3.31537 46.0606 3.92137 45.8111 5.20485C45.7398 5.49001 45.5616 5.77528 45.2763 5.77528L42.2461 5.45443C41.9966 5.38317 41.7114 5.20496 41.7826 4.81275C42.4956 1.10516 45.8111 0 48.8056 0C50.3386 0 52.3349 0.392105 53.547 1.56853C55.0799 2.99453 54.9373 4.92013 54.9373 6.98728V11.8713C54.9373 13.333 55.5433 13.9747 56.1137 14.7946C56.3276 15.0797 56.3632 15.4362 56.1137 15.6144C55.4364 16.1492 54.2956 17.1474 53.6539 17.6821L53.6527 17.6822ZM9.30433 10.0176C9.30433 11.2297 9.34001 12.2635 8.7339 13.3692C8.23496 14.2605 7.45053 14.7952 6.55927 14.7952C5.34716 14.7952 4.63421 13.8684 4.63421 12.5136C4.63421 9.83993 7.02274 9.34077 9.30433 9.34077V10.0176ZM12.4415 17.6822C12.3399 17.7709 12.213 17.8255 12.0787 17.8383C11.9445 17.8511 11.8096 17.8214 11.6931 17.7535C10.6593 16.8979 10.4457 16.4701 9.87497 15.6501C8.16381 17.3964 6.91601 17.9317 4.7058 17.9317C2.06769 17.9317 0 16.2918 0 13.0477C0 10.481 1.39032 8.76981 3.3516 7.91412C5.06276 7.1657 7.45162 7.02285 9.2694 6.80896V6.41685C9.2694 5.66844 9.34066 4.77695 8.8773 4.13527C8.48519 3.56485 7.77214 3.31537 7.13099 3.31537C5.91888 3.31537 4.84941 3.92137 4.59983 5.20485C4.52857 5.49001 4.35036 5.77528 4.06509 5.77528L1.03487 5.45443C0.785403 5.38317 0.500137 5.20496 0.571399 4.81275C1.28435 1.10516 4.59983 0 7.59436 0C9.12731 0 11.1236 0.392105 12.3357 1.56853C13.8687 2.99453 13.7261 4.92013 13.7261 6.98728V11.8713C13.7261 13.333 14.3321 13.9747 14.9025 14.7946C15.1164 15.0797 15.1519 15.4362 14.9025 15.6144C14.2251 16.1492 13.0844 17.1474 12.4427 17.6821L12.4415 17.6822Z" fill="black"/>
</g>
<defs>
<clipPath id="clip0_2763_6768">
<rect width="101.602" height="30.5874" fill="white"/>
</clipPath>
</defs>
</svg>
