<svg width="38" height="46" viewBox="0 0 38 46" fill="none" xmlns="http://www.w3.org/2000/svg">
<g clip-path="url(#clip0_2763_6066)">
<path d="M31.1493 24.4305C31.2118 31.1649 37.057 33.4058 37.1218 33.4344C37.0723 33.5923 36.1878 36.6279 34.0422 39.7635C32.1874 42.4744 30.2625 45.1752 27.2301 45.2311C24.2505 45.286 23.2923 43.4643 19.8858 43.4643C16.4802 43.4643 15.4157 45.1753 12.5951 45.2861C9.66809 45.397 7.4391 42.3548 5.56903 39.6538C1.74759 34.129 -1.17278 24.042 2.74854 17.2332C4.69656 13.8519 8.17783 11.7107 11.9564 11.6558C14.8307 11.6009 17.5436 13.5895 19.3008 13.5895C21.0568 13.5895 24.3536 11.1981 27.8195 11.5493C29.2704 11.6097 33.3432 12.1354 35.9584 15.9634C35.7477 16.094 31.0987 18.8004 31.1493 24.4305ZM25.5494 7.89416C27.1034 6.01312 28.1493 3.39453 27.864 0.789062C25.624 0.87909 22.9154 2.28171 21.3087 4.16171C19.8688 5.82655 18.6078 8.49121 18.9481 11.0451C21.4448 11.2383 23.9953 9.77639 25.5494 7.89416Z" fill="black"/>
</g>
<defs>
<clipPath id="clip0_2763_6066">
<rect width="36.2408" height="44.5" fill="white" transform="translate(0.879883 0.789062)"/>
</clipPath>
</defs>
</svg>
