<svg width="55" height="55" viewBox="0 0 55 55" fill="none" xmlns="http://www.w3.org/2000/svg">
<path d="M29.9515 23.3484L31.6986 23.3391C32.8069 22.1784 34.1449 20.7982 35.8935 20.9007C37.649 20.8062 38.9802 22.1623 40.0888 23.3391C40.8306 23.3676 42.2626 23.2574 42.957 23.5165V12.3984H12.125V30.1501H24.8968L25.7659 29.2719L25.7846 27.5247C25.7948 26.4219 26.2367 25.3669 27.0157 24.5862C27.7947 23.8054 28.8487 23.3611 29.9515 23.3484ZM18.198 19.4523C16.3611 19.4247 16.3508 16.6792 18.198 16.6494H36.884C38.7186 16.6819 38.7293 19.4177 36.884 19.4523H18.198Z" fill="white"/>
<path d="M43.9495 43.5625L40.0816 43.5906L38.2969 45.347L39.6869 49.1736C39.7185 49.2604 39.7751 49.3359 39.8495 49.3906C39.924 49.4452 40.013 49.4766 40.1053 49.4807C40.1976 49.4847 40.289 49.4613 40.368 49.4135C40.447 49.3656 40.5101 49.2953 40.5491 49.2116L41.8473 46.4309L44.6171 47.7271C44.7008 47.7663 44.7942 47.7797 44.8856 47.7658C44.977 47.7518 45.0621 47.711 45.1303 47.6486C45.1985 47.5862 45.2466 47.505 45.2686 47.4153C45.2906 47.3255 45.2855 47.2312 45.2539 47.1444L43.9495 43.5625Z" fill="white"/>
<path d="M27.8327 43.5625L26.5281 47.1444C26.4965 47.2312 26.4914 47.3255 26.5134 47.4153C26.5354 47.505 26.5836 47.5863 26.6518 47.6487C26.7199 47.7111 26.8051 47.7518 26.8965 47.7658C26.9878 47.7798 27.0813 47.7663 27.165 47.7272L29.9348 46.4309L31.2334 49.2126C31.2725 49.2962 31.3355 49.3664 31.4144 49.4143C31.4934 49.4622 31.5847 49.4856 31.677 49.4816C31.7692 49.4775 31.8582 49.4462 31.9326 49.3916C32.0071 49.3369 32.0636 49.2615 32.0952 49.1747L33.4852 45.3564L31.6912 43.5906L27.8327 43.5625Z" fill="white"/>
</svg>
