<svg width="85" height="84" viewBox="0 0 85 84" fill="none" xmlns="http://www.w3.org/2000/svg">
<path fill-rule="evenodd" clip-rule="evenodd" d="M37.2517 16.8359V26.2491H42.5017V16.8359L56.3984 30.7326L60.1102 27.0156L41.7352 8.64062H38.0234L19.6484 27.0156L23.3602 30.7326L37.2517 16.8359Z" fill="white"/>
<path d="M8.375 47.25L5.75 49.875V76.125L8.375 78.75H71.375L74 76.125V49.875L71.375 47.25H52.7375C52.135 50.217 50.5253 52.8845 48.1812 54.8005C45.837 56.7165 42.9026 57.7632 39.875 57.7632C36.8474 57.7632 33.913 56.7165 31.5688 54.8005C29.2247 52.8845 27.615 50.217 27.0125 47.25H8.375ZM56.4808 52.5H68.75V73.5H11V52.5H23.2692C24.7586 55.6438 27.1098 58.3002 30.0494 60.1603C32.989 62.0205 36.3963 63.008 39.875 63.008C43.3537 63.008 46.761 62.0205 49.7006 60.1603C52.6402 58.3002 54.9914 55.6438 56.4808 52.5ZM37.25 31.5H42.5V36.75H37.25V31.5ZM37.25 42H42.5V47.25H37.25V42Z" fill="white"/>
</svg>
