<svg width="543" height="307" viewBox="0 0 543 307" fill="none" xmlns="http://www.w3.org/2000/svg">
<path d="M59.5 158L42.212 166.644C36.4202 169.54 30.9505 173.04 25.8941 177.085L17.1401 184.088C11.4622 188.63 6.9509 194.463 3.98156 201.1C1.35676 206.967 0 213.322 0 219.75V290.004C0 299.391 7.60936 307 16.996 307H522.945C534.046 307 542.81 297.571 542 286.5V19.5V9V4.39568C542 4.11554 541.972 3.83609 541.917 3.56144C541.425 1.11498 538.935 -0.377301 536.545 0.342993L531.711 1.8006C530.582 2.14094 529.532 2.704 528.625 3.45655L528 3.97443L526 6L523.5 9L520.5 13L515 21.5L508.5 30.5L503.5 38L499.5 44.5L493 56.2059L486.232 66.9331C479.436 77.7052 471.359 87.614 462.179 96.4428L457.632 100.816C453.221 105.058 448.405 108.856 443.252 112.157C433.827 118.195 423.395 122.493 412.452 124.845L411.989 124.944C405.348 126.372 398.575 127.092 391.783 127.092H364H353.753C342.606 127.092 331.479 126.121 320.5 124.19C309.521 122.259 298.394 121.288 287.247 121.288H255H210L161 127.092L123 133.724L99 141.5L59.5 158Z" fill="#EEE5FF"/>
</svg>
