<svg width="1254" height="138" viewBox="0 0 1254 138" fill="none" xmlns="http://www.w3.org/2000/svg">
<path d="M29.0855 26.9137L22.0033 0.132027L-0.00328159 18.8148L25.2739 30.1496L29.0855 26.9137ZM634.277 9.47339V11.9734V9.47339ZM1248.44 8.93954C1248.15 7.59059 1246.82 6.73573 1245.47 7.03016L1223.48 11.8282C1222.14 12.1226 1221.28 13.4549 1221.58 14.8038C1221.87 16.1528 1223.2 17.0076 1224.55 16.7132L1244.09 12.4483L1248.36 31.9882C1248.65 33.3372 1249.98 34.192 1251.33 33.8976C1252.68 33.6032 1253.54 32.271 1253.24 30.922L1248.44 8.93954ZM19.4677 22.8335C21.566 25.0939 23.9651 27.6236 26.6498 30.3721L30.2266 26.8783C27.573 24.1617 25.2032 21.6628 23.1323 19.4319L19.4677 22.8335ZM34.0035 37.7243C36.3757 40.0415 38.9026 42.4587 41.5775 44.9543L44.9884 41.2984C42.3425 38.8298 39.8433 36.4391 37.4973 34.1475L34.0035 37.7243ZM49.287 51.9856C51.802 54.2276 54.4211 56.5128 57.1403 58.8277L60.3815 55.0205C57.6923 52.7312 55.1019 50.471 52.6142 48.2534L49.287 51.9856ZM65.1637 65.4991C67.8127 67.6498 70.5418 69.8147 73.348 71.9835L76.4056 68.0274C73.6321 65.8838 70.9343 63.7438 68.3153 61.6174L65.1637 65.4991ZM81.6896 78.268C84.458 80.3001 87.2916 82.327 90.188 84.3405L93.042 80.235C90.182 78.2468 87.3832 76.2448 84.6482 74.2373L81.6896 78.268ZM98.8442 90.1883C101.728 92.0803 104.667 93.9524 107.659 95.7974L110.284 91.5414C107.333 89.7218 104.433 87.8748 101.587 86.0076L98.8442 90.1883ZM116.635 101.152C119.633 102.881 122.679 104.578 125.771 106.235L128.134 101.829C125.089 100.196 122.088 98.5248 119.133 96.8208L116.635 101.152ZM135.068 111.028C138.179 112.567 141.331 114.063 144.524 115.508L146.586 110.953C143.447 109.532 140.346 108.061 137.286 106.546L135.068 111.028ZM154.137 119.654C157.355 120.973 160.61 122.238 163.901 123.442L165.619 118.746C162.39 117.565 159.194 116.323 156.033 115.028L154.137 119.654ZM173.812 126.845C177.129 127.909 180.479 128.909 183.86 129.838L185.185 125.017C181.874 124.107 178.591 123.127 175.34 122.084L173.812 126.845ZM194.034 132.394C197.433 133.167 200.86 133.865 204.314 134.484L205.196 129.562C201.819 128.958 198.468 128.275 195.143 127.518L194.034 132.394ZM214.684 136.084C218.141 136.532 221.621 136.896 225.125 137.171L225.517 132.186C222.098 131.918 218.701 131.562 215.326 131.126L214.684 136.084ZM235.612 137.723C237.364 137.77 239.121 137.793 240.883 137.793V132.793C239.165 132.793 237.453 132.77 235.744 132.725L235.612 137.723ZM240.883 137.793C242.577 137.793 244.263 137.782 245.941 137.758L245.871 132.759C244.216 132.782 242.554 132.793 240.883 132.793V137.793ZM255.916 137.483C259.292 137.343 262.637 137.157 265.951 136.927L265.603 131.939C262.336 132.166 259.039 132.35 255.709 132.487L255.916 137.483ZM275.908 136.093C279.255 135.765 282.571 135.392 285.856 134.976L285.228 130.016C281.99 130.426 278.721 130.793 275.42 131.117L275.908 136.093ZM295.789 133.576C299.105 133.061 302.388 132.503 305.642 131.904L304.737 126.987C301.528 127.577 298.29 128.128 295.022 128.636L295.789 133.576ZM315.462 129.956C318.751 129.256 322.01 128.515 325.238 127.736L324.065 122.876C320.88 123.644 317.666 124.375 314.421 125.065L315.462 129.956ZM334.926 125.263C338.161 124.392 341.366 123.483 344.543 122.54L343.12 117.747C339.983 118.678 336.819 119.575 333.626 120.435L334.926 125.263ZM354.114 119.57C357.301 118.539 360.46 117.474 363.591 116.379L361.941 111.659C358.845 112.742 355.723 113.794 352.574 114.814L354.114 119.57ZM372.979 112.978C376.115 111.804 379.224 110.601 382.308 109.372L380.458 104.727C377.405 105.943 374.328 107.134 371.225 108.296L372.979 112.978ZM391.56 105.583C394.64 104.288 397.696 102.97 400.728 101.632L398.71 97.0571C395.703 98.384 392.674 99.6908 389.622 100.974L391.56 105.583ZM409.819 97.5338C412.855 96.1372 415.869 94.7236 418.862 93.2963L416.71 88.7832C413.736 90.2013 410.743 91.6051 407.73 92.9913L409.819 97.5338ZM427.843 88.9468C430.836 87.4759 433.809 85.9944 436.765 84.5058L434.516 80.0401C431.573 81.5223 428.614 82.9965 425.637 84.4594L427.843 88.9468ZM445.638 79.9925C448.603 78.4706 451.552 76.9449 454.486 75.4191L452.179 70.9832C449.251 72.5058 446.31 74.0272 443.355 75.5441L445.638 79.9925ZM463.313 70.8092C466.261 69.2644 469.197 67.7224 472.121 66.1885L469.798 61.761C466.872 63.2959 463.939 64.8364 460.992 66.3802L463.313 70.8092ZM480.922 61.5792C483.866 60.0415 486.801 58.5154 489.727 57.0044L487.433 52.5616C484.498 54.0771 481.557 55.607 478.607 57.1471L480.922 61.5792ZM498.569 52.4782C501.532 50.976 504.489 49.4938 507.442 48.0355L505.228 43.5525C502.258 45.0195 499.285 46.5096 496.308 48.0185L498.569 52.4782ZM516.357 43.7045C519.348 42.2772 522.336 40.8788 525.325 39.5137L523.247 34.9658C520.231 36.3436 517.217 37.7538 514.203 39.192L516.357 43.7045ZM534.358 35.493C537.393 34.1793 540.431 32.9043 543.472 31.6723L541.595 27.0381C538.515 28.2858 535.441 29.5761 532.372 30.9043L534.358 35.493ZM552.678 28.0846C555.769 26.9292 558.867 25.8225 561.973 24.7692L560.367 20.0341C557.21 21.1048 554.064 22.2287 550.928 23.4011L552.678 28.0846ZM571.358 21.7618C574.506 20.8135 577.665 19.9239 580.837 19.0976L579.576 14.2591C576.341 15.1019 573.121 16.0087 569.916 16.9743L571.358 21.7618ZM590.406 16.8113C593.607 16.1164 596.824 15.4894 600.06 14.935L599.215 10.0068C595.905 10.5741 592.616 11.2151 589.345 11.925L590.406 16.8113ZM609.781 13.4989C613.015 13.0984 616.269 12.773 619.546 12.5272L619.172 7.54117C615.813 7.79314 612.478 8.12662 609.166 8.53687L609.781 13.4989ZM629.344 12.0357C630.982 11.9943 632.626 11.9734 634.277 11.9734V6.97339C632.584 6.9734 630.897 6.99488 629.217 7.03728L629.344 12.0357ZM634.277 11.9734C635.95 11.9734 637.612 11.9848 639.264 12.0073L639.332 7.00777C637.657 6.98491 635.972 6.97338 634.277 6.97339V11.9734ZM649.051 12.2748C652.381 12.4119 655.669 12.5949 658.915 12.8218L659.264 7.83393C655.97 7.60372 652.635 7.41811 649.257 7.27902L649.051 12.2748ZM668.68 13.6468C671.975 13.9737 675.228 14.3462 678.44 14.7619L679.082 9.80328C675.82 9.38118 672.518 9.0031 669.174 8.67122L668.68 13.6468ZM688.189 16.174C691.448 16.6967 694.666 17.2639 697.845 17.8732L698.787 12.9626C695.558 12.3438 692.29 11.7678 688.981 11.237L688.189 16.174ZM707.455 19.8666C710.687 20.5884 713.879 21.3532 717.035 22.1582L718.271 17.3135C715.068 16.4962 711.826 15.7197 708.544 14.9868L707.455 19.8666ZM726.516 24.7273C729.682 25.635 732.811 26.5823 735.906 27.5663L737.421 22.8012C734.281 21.8032 731.107 20.8421 727.894 19.921L726.516 24.7273ZM745.247 30.6775C748.363 31.7627 751.446 32.8834 754.501 34.0366L756.267 29.3589C753.174 28.1911 750.049 27.0555 746.891 25.9556L745.247 30.6775ZM763.662 37.6234C766.713 38.8601 769.737 40.1269 772.737 41.4206L774.717 36.8293C771.685 35.5218 768.627 34.2407 765.54 32.9896L763.662 37.6234ZM781.748 45.4145C784.748 46.7796 787.728 48.1688 790.689 49.5787L792.839 45.0642C789.853 43.6428 786.847 42.2413 783.818 40.8633L781.748 45.4145ZM799.564 53.8868C802.518 55.3469 805.457 56.8243 808.385 58.3154L810.654 53.86C807.711 52.3609 804.754 50.8744 801.78 49.4045L799.564 53.8868ZM817.164 62.8405C820.09 64.3645 823.008 65.8985 825.921 67.4391L828.258 63.0191C825.338 61.4749 822.411 59.9359 819.474 58.406L817.164 62.8405ZM834.659 72.0811C837.573 73.6342 840.48 75.1867 843.396 76.7412L845.748 72.3293C842.839 70.7779 839.924 69.2209 837.011 67.6686L834.659 72.0811ZM852.146 81.394C855.065 82.9399 857.99 84.4809 860.924 86.0131L863.238 81.581C860.315 80.0544 857.399 78.518 854.486 76.9754L852.146 81.394ZM869.738 90.5695C872.68 92.0729 875.635 93.564 878.605 95.0388L880.829 90.5603C877.877 89.0952 874.94 87.613 872.014 86.1172L869.738 90.5695ZM887.538 99.396C890.522 100.824 893.525 102.232 896.55 103.617L898.631 99.0703C895.634 97.6983 892.657 96.3023 889.697 94.8858L887.538 99.396ZM905.637 107.671C908.667 108.986 911.722 110.275 914.805 111.535L916.696 106.906C913.648 105.661 910.627 104.386 907.628 103.084L905.637 107.671ZM924.07 115.191C927.161 116.368 930.283 117.512 933.438 118.621L935.096 113.904C931.982 112.81 928.901 111.68 925.849 110.518L924.07 115.191ZM942.893 121.8C946.031 122.807 949.204 123.777 952.414 124.706L953.805 119.904C950.642 118.988 947.515 118.032 944.42 117.039L942.893 121.8ZM962.034 127.34C965.237 128.165 968.477 128.95 971.758 129.69L972.859 124.813C969.628 124.084 966.437 123.311 963.283 122.498L962.034 127.34ZM981.505 131.735C984.734 132.361 988.002 132.943 991.312 133.48L992.112 128.544C988.853 128.016 985.635 127.442 982.456 126.826L981.505 131.735ZM1001.21 134.93C1004.47 135.357 1007.77 135.739 1011.11 136.075L1011.61 131.1C1008.32 130.769 1005.07 130.393 1001.86 129.973L1001.21 134.93ZM1021.03 136.922C1024.32 137.155 1027.66 137.343 1031.03 137.484L1031.24 132.488C1027.91 132.35 1024.62 132.164 1021.38 131.935L1021.03 136.922ZM1040.96 137.758C1042.63 137.782 1044.32 137.793 1046.01 137.793V132.793C1044.34 132.793 1042.68 132.782 1041.03 132.759L1040.96 137.758ZM1046.01 137.793C1047.76 137.793 1049.5 137.767 1051.23 137.714L1051.08 132.717C1049.4 132.767 1047.71 132.793 1046.01 132.793V137.793ZM1061.57 137.09C1065.04 136.777 1068.47 136.362 1071.87 135.852L1071.12 130.908C1067.83 131.403 1064.49 131.806 1061.12 132.11L1061.57 137.09ZM1082.07 134.018C1085.47 133.306 1088.82 132.502 1092.14 131.612L1090.85 126.782C1087.62 127.649 1084.35 128.432 1081.04 129.125L1082.07 134.018ZM1102.07 128.66C1105.36 127.584 1108.61 126.427 1111.82 125.196L1110.03 120.528C1106.9 121.73 1103.73 122.858 1100.52 123.907L1102.07 128.66ZM1121.38 121.252C1124.55 119.854 1127.67 118.388 1130.74 116.862L1128.52 112.384C1125.51 113.878 1122.46 115.311 1119.36 116.677L1121.38 121.252ZM1139.89 112.058C1142.92 110.382 1145.9 108.651 1148.82 106.874L1146.23 102.602C1143.36 104.345 1140.44 106.041 1137.47 107.683L1139.89 112.058ZM1157.54 101.338C1160.43 99.4215 1163.26 97.465 1166.03 95.4777L1163.12 91.4149C1160.39 93.3677 1157.61 95.2891 1154.77 97.1702L1157.54 101.338ZM1174.3 89.3191C1177.06 87.1946 1179.74 85.0466 1182.36 82.8854L1179.17 79.0305C1176.6 81.1578 1173.96 83.2712 1171.25 85.3606L1174.3 89.3191ZM1190.19 76.1988C1192.81 73.8919 1195.35 71.582 1197.81 69.2811L1194.4 65.6305C1191.97 67.8982 1189.47 70.1743 1186.89 72.4465L1190.19 76.1988ZM1205.22 62.1449C1207.73 59.6545 1210.14 57.1903 1212.44 54.7683L1208.82 51.32C1206.55 53.7091 1204.17 56.1395 1201.7 58.5953L1205.22 62.1449ZM1219.44 47.2154C1221.84 44.5519 1224.1 41.9669 1226.21 39.485L1222.41 36.2418C1220.32 38.6904 1218.09 41.2408 1215.73 43.8687L1219.44 47.2154ZM1232.79 31.5514C1235.17 28.591 1237.29 25.8625 1239.13 23.424L1235.14 20.4082C1233.33 22.8089 1231.24 25.4977 1228.89 28.4167L1232.79 31.5514ZM1245.23 15.0595C1246.17 13.7142 1246.88 12.6614 1247.37 11.9418C1247.61 11.582 1247.79 11.3054 1247.91 11.1172C1247.97 11.0231 1248.02 10.9511 1248.05 10.9018C1248.07 10.8772 1248.08 10.8582 1248.09 10.845C1248.09 10.8384 1248.1 10.8333 1248.1 10.8296C1248.1 10.8277 1248.1 10.8262 1248.1 10.8251C1248.1 10.8245 1248.1 10.824 1248.1 10.8237C1248.1 10.8235 1248.1 10.8233 1248.1 10.8232C1248.1 10.8231 1248.1 10.823 1248.1 10.823C1248.1 10.8229 1248.1 10.8228 1246 9.47266C1243.9 8.12252 1243.9 8.12245 1243.9 8.12239C1243.9 8.12237 1243.9 8.12232 1243.9 8.12229C1243.9 8.12223 1243.9 8.1222 1243.9 8.12219C1243.9 8.12217 1243.9 8.12225 1243.9 8.12241C1243.9 8.12274 1243.9 8.12343 1243.89 8.12448C1243.89 8.12658 1243.89 8.13012 1243.89 8.13511C1243.88 8.14507 1243.87 8.16079 1243.86 8.18216C1243.83 8.22492 1243.79 8.29034 1243.73 8.37778C1243.62 8.55267 1243.44 8.81566 1243.21 9.16167C1242.75 9.85372 1242.05 10.8778 1241.13 12.1932L1245.23 15.0595Z" fill="#E2E2E2"/>
</svg>
