<svg width="100" height="100" viewBox="0 0 100 100" fill="none" xmlns="http://www.w3.org/2000/svg">
<circle cx="50" cy="50" r="50" fill="#5C27C0"/>
<path d="M83.75 50C83.7524 47.4161 83.119 44.8713 81.9057 42.5899C80.6924 40.3086 78.9365 38.3608 76.7927 36.9182C74.6489 35.4757 72.1831 34.5828 69.6128 34.3182C67.0425 34.0536 64.4465 34.4255 62.0538 35.401C59.6611 36.3765 57.5452 37.9258 55.8926 39.9121C54.2399 41.8984 53.1014 44.2608 52.5774 46.791C52.0533 49.3213 52.1598 51.9416 52.8875 54.4209C53.6151 56.9002 54.9416 59.1625 56.75 61.0081V77C56.7497 77.3837 56.8476 77.7611 57.0343 78.0964C57.221 78.4316 57.4903 78.7135 57.8167 78.9153C58.1431 79.1171 58.5157 79.2321 58.899 79.2493C59.2823 79.2666 59.6637 79.1855 60.0069 79.0138L68 75.0144L75.9931 79.0138C76.3363 79.1855 76.7177 79.2666 77.101 79.2493C77.4843 79.2321 77.8569 79.1171 78.1833 78.9153C78.5097 78.7135 78.779 78.4316 78.9657 78.0964C79.1524 77.7611 79.2503 77.3837 79.25 77V61.0081C82.1358 58.071 83.7519 54.1176 83.75 50ZM68 38.75C70.225 38.75 72.4001 39.4098 74.2502 40.646C76.1002 41.8821 77.5422 43.6391 78.3936 45.6948C79.2451 47.7505 79.4679 50.0125 79.0338 52.1948C78.5998 54.3771 77.5283 56.3816 75.955 57.955C74.3816 59.5283 72.3771 60.5998 70.1948 61.0338C68.0125 61.4679 65.7505 61.2451 63.6948 60.3936C61.6391 59.5422 59.8821 58.1002 58.646 56.2502C57.4098 54.4001 56.75 52.225 56.75 50C56.75 47.0163 57.9353 44.1548 60.045 42.045C62.1548 39.9353 65.0163 38.75 68 38.75ZM69.0069 70.4862C68.6943 70.3298 68.3495 70.2484 68 70.2484C67.6505 70.2484 67.3057 70.3298 66.9931 70.4862L61.25 73.3606V64.2284C63.3592 65.2302 65.665 65.75 68 65.75C70.335 65.75 72.6408 65.2302 74.75 64.2284V73.3606L69.0069 70.4862ZM52.25 68C52.25 68.5967 52.0129 69.169 51.591 69.591C51.169 70.0129 50.5967 70.25 50 70.25H25.25C24.0565 70.25 22.9119 69.7759 22.068 68.932C21.2241 68.0881 20.75 66.9435 20.75 65.75V29.75C20.75 28.5565 21.2241 27.4119 22.068 26.568C22.9119 25.7241 24.0565 25.25 25.25 25.25H74.75C75.9435 25.25 77.0881 25.7241 77.932 26.568C78.7759 27.4119 79.25 28.5565 79.25 29.75C79.25 30.3467 79.0129 30.919 78.591 31.341C78.169 31.7629 77.5967 32 77 32C76.4033 32 75.831 31.7629 75.409 31.341C74.9871 30.919 74.75 30.3467 74.75 29.75H25.25V65.75H50C50.5967 65.75 51.169 65.9871 51.591 66.409C52.0129 66.831 52.25 67.4033 52.25 68ZM47.75 52.25C47.75 52.8467 47.5129 53.419 47.091 53.841C46.669 54.2629 46.0967 54.5 45.5 54.5H34.25C33.6533 54.5 33.081 54.2629 32.659 53.841C32.2371 53.419 32 52.8467 32 52.25C32 51.6533 32.2371 51.081 32.659 50.659C33.081 50.2371 33.6533 50 34.25 50H45.5C46.0967 50 46.669 50.2371 47.091 50.659C47.5129 51.081 47.75 51.6533 47.75 52.25ZM47.75 43.25C47.75 43.8467 47.5129 44.419 47.091 44.841C46.669 45.2629 46.0967 45.5 45.5 45.5H34.25C33.6533 45.5 33.081 45.2629 32.659 44.841C32.2371 44.419 32 43.8467 32 43.25C32 42.6533 32.2371 42.081 32.659 41.659C33.081 41.2371 33.6533 41 34.25 41H45.5C46.0967 41 46.669 41.2371 47.091 41.659C47.5129 42.081 47.75 42.6533 47.75 43.25Z" fill="white"/>
</svg>
