<svg width="49" height="48" viewBox="0 0 49 48" fill="none" xmlns="http://www.w3.org/2000/svg">
<path d="M0.821197 40.2031L0.40625 44.8012L6.72543 47.3751C6.8103 45.8061 6.93963 44.2673 7.11073 42.7613L0.821197 40.2031Z" fill="#7B70EE"/>
<path d="M5.83241 19.0234L4.5 22.7583L9.53998 30.8665C9.94347 29.5567 10.384 28.3012 10.8582 27.1102L5.83241 19.0234Z" fill="#7B70EE"/>
<path d="M14.6636 4.72266L12.6953 6.82846L15.5285 18.7646C16.1611 17.9787 16.8165 17.2687 17.4948 16.6488L14.6636 4.72266Z" fill="#7B70EE"/>
<path d="M48.7677 44.8012L48.3527 40.2031L42.0625 42.7613C42.2336 44.2658 42.3636 45.8061 42.4478 47.3751L48.7677 44.8012Z" fill="#7B70EE"/>
<path d="M44.6707 22.7583L43.3383 19.0234L38.3125 27.1102C38.7867 28.3027 39.2266 29.5567 39.6308 30.8665L44.6707 22.7583Z" fill="#7B70EE"/>
<path d="M25.7124 13.6389L25.6579 0.0507812L23.4531 0.0937256L23.5084 13.6303C23.8654 13.586 24.2237 13.5559 24.5855 13.5559C24.9647 13.5573 25.3399 13.5903 25.7124 13.6389Z" fill="#7B70EE"/>
</svg>
