<svg width="113" height="113" viewBox="0 0 113 113" fill="none" xmlns="http://www.w3.org/2000/svg">
<g filter="url(#filter0_d_2763_6265)">
<circle cx="56.6943" cy="56.5273" r="50.9141" fill="#BABDF5"/>
</g>
<path d="M49.5387 52.9246C51.3528 52.9246 53.0926 52.1651 54.3753 50.8133C55.6581 49.4615 56.3787 47.628 56.3787 45.7162C56.3787 43.8044 55.6581 41.9709 54.3753 40.6191C53.0926 39.2673 51.3528 38.5078 49.5387 38.5078C47.7246 38.5078 45.9848 39.2673 44.7021 40.6191C43.4193 41.9709 42.6987 43.8044 42.6987 45.7162C42.6987 47.628 43.4193 49.4615 44.7021 50.8133C45.9848 52.1651 47.7246 52.9246 49.5387 52.9246ZM65.0842 52.9246C66.4036 52.9246 67.6689 52.3723 68.6018 51.3891C69.5347 50.406 70.0588 49.0725 70.0588 47.6821C70.0588 46.2917 69.5347 44.9583 68.6018 43.9751C67.6689 42.992 66.4036 42.4397 65.0842 42.4397C63.7649 42.4397 62.4996 42.992 61.5667 43.9751C60.6338 44.9583 60.1097 46.2917 60.1097 47.6821C60.1097 49.0725 60.6338 50.406 61.5667 51.3891C62.4996 52.3723 63.7649 52.9246 65.0842 52.9246ZM53.8915 64.7201C53.8915 61.1658 55.3838 57.9796 57.7418 55.8171C57.3076 55.6375 56.8452 55.5455 56.3787 55.5458H42.6987C41.7092 55.5458 40.7602 55.9601 40.0605 56.6974C39.3609 57.4348 38.9678 58.4349 38.9678 59.4777V59.6743C38.9678 59.6743 38.9678 67.3414 49.5387 67.3414C51.332 67.3414 52.8219 67.1212 54.0569 66.7542C53.9464 66.0825 53.8911 65.4019 53.8915 64.7201ZM74.4115 64.7201C74.4115 67.3271 73.4288 69.8273 71.6796 71.6707C69.9304 73.5142 67.558 74.5498 65.0842 74.5498C62.6105 74.5498 60.238 73.5142 58.4888 71.6707C56.7396 69.8273 55.7569 67.3271 55.7569 64.7201C55.7569 62.1132 56.7396 59.613 58.4888 57.7696C60.238 55.9261 62.6105 54.8905 65.0842 54.8905C67.558 54.8905 69.9304 55.9261 71.6796 57.7696C73.4288 59.613 74.4115 62.1132 74.4115 64.7201ZM64.1987 58.3479L63.0297 62.0544H59.3063C58.3972 62.0544 58.0253 63.2837 58.7665 63.8381L61.7587 66.0753L60.6034 69.7346C60.3198 70.635 61.2936 71.3951 62.0286 70.846L65.0842 68.5616L68.1398 70.846C68.8748 71.3964 69.8486 70.6363 69.5651 69.7346L68.4085 66.0753L71.4019 63.8381C72.1444 63.2837 71.7713 62.0544 70.8622 62.0544H67.1387L65.9697 58.3479C65.6861 57.4515 64.4823 57.4515 64.1987 58.3479Z" fill="#313131"/>
<defs>
<filter id="filter0_d_2763_6265" x="0.591579" y="0.424587" width="112.206" height="112.206" filterUnits="userSpaceOnUse" color-interpolation-filters="sRGB">
<feFlood flood-opacity="0" result="BackgroundImageFix"/>
<feColorMatrix in="SourceAlpha" type="matrix" values="0 0 0 0 0 0 0 0 0 0 0 0 0 0 0 0 0 0 127 0" result="hardAlpha"/>
<feOffset/>
<feGaussianBlur stdDeviation="2.59435"/>
<feComposite in2="hardAlpha" operator="out"/>
<feColorMatrix type="matrix" values="0 0 0 0 0 0 0 0 0 0 0 0 0 0 0 0 0 0 0.17 0"/>
<feBlend mode="normal" in2="BackgroundImageFix" result="effect1_dropShadow_2763_6265"/>
<feBlend mode="normal" in="SourceGraphic" in2="effect1_dropShadow_2763_6265" result="shape"/>
</filter>
</defs>
</svg>
