<svg width="100" height="100" viewBox="0 0 100 100" fill="none" xmlns="http://www.w3.org/2000/svg">
<circle cx="50" cy="50" r="50" fill="#5C27C0"/>
<mask id="path-2-inside-1_2763_6250" fill="white">
<path fill-rule="evenodd" clip-rule="evenodd" d="M32 24.5C32 24.1022 32.158 23.7206 32.4393 23.4393C32.7206 23.158 33.1022 23 33.5 23H66.5C66.8978 23 67.2794 23.158 67.5607 23.4393C67.842 23.7206 68 24.1022 68 24.5V26H75.5C75.8978 26 76.2794 26.158 76.5607 26.4393C76.842 26.7206 77 27.1022 77 27.5V36.5C77 38.4891 76.2098 40.3968 74.8033 41.8033C73.3968 43.2098 71.4891 44 69.5 44H66.9755C64.664 50.54 58.6805 55.346 51.5 55.9385V65H62C62.3978 65 62.7794 65.158 63.0607 65.4393C63.342 65.7206 63.5 66.1022 63.5 66.5V75.5C63.5 75.8978 63.342 76.2794 63.0607 76.5607C62.7794 76.842 62.3978 77 62 77H38C37.6022 77 37.2206 76.842 36.9393 76.5607C36.658 76.2794 36.5 75.8978 36.5 75.5V66.5C36.5 66.1022 36.658 65.7206 36.9393 65.4393C37.2206 65.158 37.6022 65 38 65H48.5V55.9385C41.321 55.346 35.336 50.54 33.0245 44H30.5C28.5109 44 26.6032 43.2098 25.1967 41.8033C23.7902 40.3968 23 38.4891 23 36.5V27.5C23 27.1022 23.158 26.7206 23.4393 26.4393C23.7206 26.158 24.1022 26 24.5 26H32V24.5ZM65 38V26H35V38C35 46.2845 41.7155 53 50 53C58.2845 53 65 46.2845 65 38ZM68 29V41H69.5C70.6935 41 71.8381 40.5259 72.682 39.682C73.5259 38.8381 74 37.6935 74 36.5V29H68ZM26 29H32V41H30.5C29.3065 41 28.1619 40.5259 27.318 39.682C26.4741 38.8381 26 37.6935 26 36.5V29ZM39.5 68V74H60.5V68H39.5Z"/>
</mask>
<path fill-rule="evenodd" clip-rule="evenodd" d="M32 24.5C32 24.1022 32.158 23.7206 32.4393 23.4393C32.7206 23.158 33.1022 23 33.5 23H66.5C66.8978 23 67.2794 23.158 67.5607 23.4393C67.842 23.7206 68 24.1022 68 24.5V26H75.5C75.8978 26 76.2794 26.158 76.5607 26.4393C76.842 26.7206 77 27.1022 77 27.5V36.5C77 38.4891 76.2098 40.3968 74.8033 41.8033C73.3968 43.2098 71.4891 44 69.5 44H66.9755C64.664 50.54 58.6805 55.346 51.5 55.9385V65H62C62.3978 65 62.7794 65.158 63.0607 65.4393C63.342 65.7206 63.5 66.1022 63.5 66.5V75.5C63.5 75.8978 63.342 76.2794 63.0607 76.5607C62.7794 76.842 62.3978 77 62 77H38C37.6022 77 37.2206 76.842 36.9393 76.5607C36.658 76.2794 36.5 75.8978 36.5 75.5V66.5C36.5 66.1022 36.658 65.7206 36.9393 65.4393C37.2206 65.158 37.6022 65 38 65H48.5V55.9385C41.321 55.346 35.336 50.54 33.0245 44H30.5C28.5109 44 26.6032 43.2098 25.1967 41.8033C23.7902 40.3968 23 38.4891 23 36.5V27.5C23 27.1022 23.158 26.7206 23.4393 26.4393C23.7206 26.158 24.1022 26 24.5 26H32V24.5ZM65 38V26H35V38C35 46.2845 41.7155 53 50 53C58.2845 53 65 46.2845 65 38ZM68 29V41H69.5C70.6935 41 71.8381 40.5259 72.682 39.682C73.5259 38.8381 74 37.6935 74 36.5V29H68ZM26 29H32V41H30.5C29.3065 41 28.1619 40.5259 27.318 39.682C26.4741 38.8381 26 37.6935 26 36.5V29ZM39.5 68V74H60.5V68H39.5Z" fill="#F8F8F8"/>
<path d="M33.5 23V31V23ZM68 26H60V34H68V26ZM75.5 26V34V26ZM66.9755 44V36H61.318L59.4328 41.3341L66.9755 44ZM51.5 55.9385L50.8421 47.9656L43.5 48.5714V55.9385H51.5ZM51.5 65H43.5V73H51.5V65ZM48.5 65V73H56.5V65H48.5ZM48.5 55.9385H56.5V48.5716L49.158 47.9656L48.5 55.9385ZM33.0245 44L40.5672 41.3341L38.682 36H33.0245V44ZM24.5 26V34V26ZM32 26V34H40V26H32ZM65 26H73V18H65V26ZM35 26V18H27V26H35ZM68 29V21H60V29H68ZM68 41H60V49H68V41ZM69.5 41V49V41ZM74 29H82V21H74V29ZM26 29V21H18V29H26ZM32 29H40V21H32V29ZM32 41V49H40V41H32ZM30.5 41V49V41ZM39.5 68V60H31.5V68H39.5ZM39.5 74H31.5V82H39.5V74ZM60.5 74V82H68.5V74H60.5ZM60.5 68H68.5V60H60.5V68ZM40 24.5C40 26.2239 39.3152 27.8772 38.0962 29.0962L26.7825 17.7825C25.0009 19.5641 24 21.9804 24 24.5H40ZM38.0962 29.0962C36.8772 30.3152 35.2239 31 33.5 31V15C30.9804 15 28.5641 16.0009 26.7825 17.7825L38.0962 29.0962ZM33.5 31H66.5V15H33.5V31ZM66.5 31C64.7761 31 63.1228 30.3152 61.9038 29.0962L73.2175 17.7825C71.4359 16.0009 69.0196 15 66.5 15V31ZM61.9038 29.0962C60.6848 27.8772 60 26.2239 60 24.5H76C76 21.9805 74.9991 19.5641 73.2175 17.7825L61.9038 29.0962ZM60 24.5V26H76V24.5H60ZM68 34H75.5V18H68V34ZM75.5 34C73.7761 34 72.1228 33.3152 70.9038 32.0962L82.2175 20.7825C80.4359 19.0009 78.0196 18 75.5 18V34ZM70.9038 32.0962C69.6848 30.8772 69 29.2239 69 27.5H85C85 24.9805 83.9991 22.5641 82.2175 20.7825L70.9038 32.0962ZM69 27.5V36.5H85V27.5H69ZM69 36.5C69 36.3674 69.0527 36.2402 69.1464 36.1464L80.4602 47.4602C83.367 44.5533 85 40.6109 85 36.5H69ZM69.1464 36.1464C69.2402 36.0527 69.3674 36 69.5 36V52C73.6109 52 77.5533 50.367 80.4602 47.4602L69.1464 36.1464ZM69.5 36H66.9755V52H69.5V36ZM59.4328 41.3341C58.1459 44.975 54.8083 47.6383 50.8421 47.9656L52.1579 63.9114C62.5527 63.0537 71.1821 56.105 74.5182 46.6659L59.4328 41.3341ZM43.5 55.9385V65H59.5V55.9385H43.5ZM51.5 73H62V57H51.5V73ZM62 73C60.2761 73 58.6228 72.3152 57.4038 71.0962L68.7175 59.7825C66.9359 58.0009 64.5195 57 62 57V73ZM57.4038 71.0962C56.1848 69.8772 55.5 68.2239 55.5 66.5H71.5C71.5 63.9805 70.4991 61.5641 68.7175 59.7825L57.4038 71.0962ZM55.5 66.5V75.5H71.5V66.5H55.5ZM55.5 75.5C55.5 73.7761 56.1848 72.1228 57.4038 70.9038L68.7175 82.2175C70.4991 80.4359 71.5 78.0195 71.5 75.5H55.5ZM57.4038 70.9038C58.6228 69.6848 60.2761 69 62 69V85C64.5195 85 66.9359 83.9991 68.7175 82.2175L57.4038 70.9038ZM62 69H38V85H62V69ZM38 69C39.7239 69 41.3772 69.6848 42.5962 70.9038L31.2825 82.2175C33.0641 83.9991 35.4805 85 38 85V69ZM42.5962 70.9038C43.8152 72.1228 44.5 73.7761 44.5 75.5H28.5C28.5 78.0196 29.5009 80.4359 31.2825 82.2175L42.5962 70.9038ZM44.5 75.5V66.5H28.5V75.5H44.5ZM44.5 66.5C44.5 68.2239 43.8152 69.8772 42.5962 71.0962L31.2825 59.7825C29.5009 61.5641 28.5 63.9804 28.5 66.5H44.5ZM42.5962 71.0962C41.3772 72.3152 39.7239 73 38 73V57C35.4805 57 33.0641 58.0009 31.2825 59.7825L42.5962 71.0962ZM38 73H48.5V57H38V73ZM56.5 65V55.9385H40.5V65H56.5ZM49.158 47.9656C45.1927 47.6383 41.8539 44.9746 40.5672 41.3341L25.4818 46.6659C28.8181 56.1054 37.4493 63.0537 47.842 63.9114L49.158 47.9656ZM33.0245 36H30.5V52H33.0245V36ZM30.5 36C30.6326 36 30.7598 36.0527 30.8536 36.1464L19.5398 47.4602C22.4467 50.367 26.3891 52 30.5 52V36ZM30.8536 36.1464C30.9473 36.2402 31 36.3674 31 36.5H15C15 40.6109 16.633 44.5533 19.5398 47.4602L30.8536 36.1464ZM31 36.5V27.5H15V36.5H31ZM31 27.5C31 29.2239 30.3152 30.8772 29.0962 32.0962L17.7825 20.7825C16.0009 22.5641 15 24.9804 15 27.5H31ZM29.0962 32.0962C27.8772 33.3152 26.2239 34 24.5 34V18C21.9804 18 19.5641 19.0009 17.7825 20.7825L29.0962 32.0962ZM24.5 34H32V18H24.5V34ZM40 26V24.5H24V26H40ZM73 38V26H57V38H73ZM65 18H35V34H65V18ZM27 26V38H43V26H27ZM27 38C27 50.7028 37.2972 61 50 61V45C46.1338 45 43 41.8662 43 38H27ZM50 61C62.7028 61 73 50.7028 73 38H57C57 41.8662 53.8662 45 50 45V61ZM60 29V41H76V29H60ZM68 49H69.5V33H68V49ZM69.5 49C72.8152 49 75.9946 47.683 78.3388 45.3388L67.0251 34.0251C67.6815 33.3688 68.5717 33 69.5 33V49ZM78.3388 45.3388C80.683 42.9946 82 39.8152 82 36.5H66C66 35.5717 66.3688 34.6815 67.0251 34.0251L78.3388 45.3388ZM82 36.5V29H66V36.5H82ZM74 21H68V37H74V21ZM26 37H32V21H26V37ZM24 29V41H40V29H24ZM32 33H30.5V49H32V33ZM30.5 33C31.4283 33 32.3185 33.3687 32.9749 34.0251L21.6612 45.3388C24.0054 47.683 27.1848 49 30.5 49V33ZM32.9749 34.0251C33.6313 34.6815 34 35.5717 34 36.5H18C18 39.8152 19.317 42.9946 21.6612 45.3388L32.9749 34.0251ZM34 36.5V29H18V36.5H34ZM31.5 68V74H47.5V68H31.5ZM39.5 82H60.5V66H39.5V82ZM68.5 74V68H52.5V74H68.5ZM60.5 60H39.5V76H60.5V60Z" fill="white" mask="url(#path-2-inside-1_2763_6250)"/>
</svg>
