<svg width="135" height="133" viewBox="0 0 135 133" fill="none" xmlns="http://www.w3.org/2000/svg">
<ellipse cx="67.7133" cy="65.0801" rx="59.0258" ry="57.4707" fill="#D8F6FF" fill-opacity="0.57"/>
<g filter="url(#filter0_d_2763_6145)">
<ellipse cx="67.7012" cy="65.0793" rx="43.0294" ry="41.8957" fill="white"/>
</g>
<rect x="41.0469" y="31.4414" width="52.6341" height="33.6398" rx="6.42477" fill="white"/>
<path d="M64.3605 37.2211L45.7434 45.4956L66.9392 49.8388L85.526 41.7728L64.3605 37.2211Z" fill="#4C49EB"/>
<path d="M45.75 45.4961L45.8692 45.9408L67.1925 50.7037L85.6467 42.1991L85.5326 41.7733L66.9458 49.8394L45.75 45.4961Z" fill="#4C49EB"/>
<path d="M55.7979 54.0764L56.0295 56.1325C56.0295 56.1325 65.7288 60.4025 76.1394 54.2356L75.898 52.6453C66.3956 56.9755 59.269 55.4286 55.7979 54.0764Z" fill="#4C49EB"/>
<path d="M82.2778 58.1322C81.0148 57.5852 79.9504 56.5642 79.2553 55.3763C79.2038 55.2882 79.0861 55.3566 79.0932 55.442C79.0611 55.4168 79.0124 55.425 78.9795 55.4552C78.9436 55.394 78.828 55.3926 78.8082 55.4835C78.4649 57.0596 79.4358 58.4759 80.2808 59.7175C80.3471 59.8152 80.4507 59.7252 80.3841 59.6273C79.7228 58.6555 79.0007 57.5624 78.9257 56.3719C79.1815 57.834 80.0492 59.1689 81.2244 60.0685C81.3093 60.1334 81.3807 60.0091 81.2954 59.9436C80.2284 59.1269 79.4697 57.9309 79.1644 56.623C79.3256 57.1272 79.5413 57.6153 79.8338 58.0532C80.2819 58.724 80.8891 59.3163 81.4831 59.8574C81.5705 59.9372 81.6411 59.8121 81.5538 59.7326C80.983 59.2124 80.4549 58.6307 80.0147 57.9929C79.826 57.7197 79.6705 57.4221 79.5392 57.1131C80.0583 58.0872 80.8215 58.9293 81.755 59.5288C81.8532 59.5919 81.9338 59.4909 81.8344 59.427C80.8115 58.7701 80.0386 57.7852 79.5351 56.6903C80.113 57.6873 80.9202 58.5603 81.8606 59.244C81.9557 59.3131 82.0045 59.1974 81.9085 59.1275C80.9905 58.4601 80.2675 57.5859 79.7018 56.6137C80.3752 57.5924 81.1526 58.5023 82.238 59.0357C82.3444 59.088 82.4151 58.9754 82.3091 58.9233C81.5635 58.5568 80.9743 57.9499 80.4579 57.3212C80.9778 57.8526 81.5579 58.3239 82.1908 58.7208C82.2909 58.7836 82.3209 58.633 82.2219 58.5709C81.6651 58.2219 81.1955 57.7958 80.7283 57.3374C81.178 57.692 81.6707 57.9927 82.1988 58.2214C82.3068 58.2686 82.3866 58.1794 82.2778 58.1322Z" fill="#4C49EB"/>
<path d="M76.4397 43.6583C75.9036 43.2819 75.2699 43.1098 74.6354 42.9879C73.3735 42.7458 72.07 42.8428 70.7981 42.9381C69.0005 43.0729 67.1699 43.2421 65.4584 42.5452C65.3919 42.5181 65.3441 42.5534 65.3237 42.6046C65.3216 42.6079 65.3206 42.6117 65.319 42.6151C65.3185 42.617 65.3176 42.6183 65.3171 42.6202C65.2942 42.6715 65.3011 42.7347 65.3649 42.7695C66.6745 43.4868 68.2006 43.6068 69.6657 43.5864C71.1463 43.5659 72.6258 43.427 74.1006 43.6224C74.1464 43.6285 74.1922 43.6345 74.238 43.6406C74.2468 43.6417 74.296 43.6501 74.2964 43.6498C74.3732 43.6646 74.4495 43.6805 74.5261 43.6959C74.8076 43.7525 75.0837 43.8153 75.3539 43.9143C75.6779 44.0331 75.9933 44.2003 76.245 44.4388C76.5202 44.6997 76.6805 45.032 76.7707 45.3968C76.8647 45.7765 76.8953 46.1709 76.9336 46.5592C76.9733 46.9614 77.0197 47.3629 77.0638 47.7645C77.155 48.5949 77.2548 49.4236 77.3836 50.2489C77.6674 52.0659 78.0984 53.8813 78.8862 55.5514C78.9448 55.6753 79.1556 55.5882 79.1101 55.4578C78.5404 53.8251 78.2287 52.1186 78.0202 50.4057C77.9165 49.5532 77.8383 48.6974 77.763 47.8419C77.6921 47.0389 77.663 46.2182 77.5178 45.4243C77.3861 44.7043 77.0447 44.0832 76.4397 43.6583Z" fill="#4C49EB"/>
<path d="M78.8287 55.6998C78.8462 55.6845 78.8642 55.6701 78.8825 55.6559C78.8937 55.6477 78.8932 55.648 78.8808 55.6569C78.8863 55.6532 78.8916 55.6493 78.8972 55.6457C78.9055 55.6402 78.9138 55.6347 78.9222 55.6295C78.9629 55.604 79.0055 55.582 79.0497 55.5631C79.0603 55.5586 79.071 55.5537 79.0819 55.55C79.0514 55.5599 79.087 55.5486 79.093 55.5465C79.115 55.5394 79.1373 55.5329 79.1597 55.5274C79.1821 55.5219 79.2047 55.5171 79.2276 55.5132C79.2389 55.5114 79.2505 55.5096 79.2619 55.5081C79.2685 55.5073 79.275 55.5063 79.2816 55.5058C79.2654 55.5071 79.2644 55.5071 79.2785 55.5061C79.3127 55.5035 79.3417 55.4975 79.3679 55.4731C79.3894 55.453 79.4065 55.4193 79.4065 55.3891C79.4066 55.3295 79.3579 55.2559 79.2895 55.2611C79.0558 55.2793 78.8382 55.3657 78.6608 55.5206C78.6123 55.563 78.6089 55.6486 78.6552 55.694C78.704 55.742 78.777 55.7451 78.8287 55.6998Z" fill="#4C49EB"/>
<path d="M78.7505 55.4769C78.768 55.4616 78.786 55.4473 78.8043 55.4331C78.8154 55.4248 78.815 55.4252 78.8026 55.434C78.8081 55.4303 78.8134 55.4266 78.8189 55.4229C78.8272 55.4174 78.8356 55.4119 78.844 55.4066C78.8846 55.3811 78.9272 55.3589 78.9715 55.3403C78.982 55.3357 78.9928 55.3308 79.0036 55.3271C78.9731 55.3371 79.0088 55.3257 79.0148 55.3236C79.0367 55.3165 79.0591 55.31 79.0815 55.3045C79.1039 55.299 79.1267 55.2941 79.1494 55.2906C79.161 55.2887 79.1723 55.287 79.1837 55.2854C79.1903 55.2847 79.1969 55.2839 79.2035 55.2831C79.1872 55.2845 79.186 55.2846 79.2003 55.2835C79.2345 55.2809 79.2636 55.2748 79.2897 55.2505C79.3112 55.2304 79.3285 55.1964 79.3283 55.1665C79.3284 55.1069 79.2797 55.033 79.2113 55.0385C78.9774 55.0567 78.76 55.1431 78.5826 55.2979C78.5344 55.3403 78.5308 55.4262 78.5771 55.4713C78.6258 55.5191 78.6985 55.5222 78.7505 55.4769Z" fill="#4C49EB"/>
<path d="M75.2234 47.8419L75.1138 47.047L67.1782 50.7042L55.24 48.0375L55.3621 49.3908L67.2638 51.8604L75.2234 47.8419Z" fill="#674FFA"/>
<path d="M67.2656 51.8588L55.3637 49.3893L55.7866 54.0785C59.2577 55.4307 66.3842 56.9775 75.8867 52.6475L75.2249 47.8404L67.2656 51.8588Z" fill="#4C49EB"/>
<defs>
<filter id="filter0_d_2763_6145" x="0.682718" y="0.907948" width="134.037" height="131.771" filterUnits="userSpaceOnUse" color-interpolation-filters="sRGB">
<feFlood flood-opacity="0" result="BackgroundImageFix"/>
<feColorMatrix in="SourceAlpha" type="matrix" values="0 0 0 0 0 0 0 0 0 0 0 0 0 0 0 0 0 0 127 0" result="hardAlpha"/>
<feOffset dy="1.71351"/>
<feGaussianBlur stdDeviation="11.9946"/>
<feComposite in2="hardAlpha" operator="out"/>
<feColorMatrix type="matrix" values="0 0 0 0 0 0 0 0 0 0 0 0 0 0 0 0 0 0 0.1 0"/>
<feBlend mode="normal" in2="BackgroundImageFix" result="effect1_dropShadow_2763_6145"/>
<feBlend mode="normal" in="SourceGraphic" in2="effect1_dropShadow_2763_6145" result="shape"/>
</filter>
</defs>
</svg>
