<svg width="30" height="32" viewBox="0 0 30 32" fill="none" xmlns="http://www.w3.org/2000/svg">
<path d="M15.3895 30.6844C15.5971 30.566 15.7844 30.4167 15.9408 30.2451C16.0971 30.0735 16.2194 29.883 16.3006 29.6845L23.206 12.6087C23.2874 12.4096 23.3259 12.2064 23.3193 12.0107C23.3126 11.8151 23.2609 11.6309 23.1672 11.4688C23.0734 11.3067 22.9395 11.17 22.7731 11.0664C22.6067 10.9628 22.4111 10.8945 22.1976 10.8653L3.93079 8.29714C3.50083 8.23669 3.02391 8.33838 2.60494 8.57985C2.18598 8.82131 1.8593 9.18276 1.69676 9.58469C1.53422 9.98662 1.54914 10.3961 1.73824 10.7231C1.92734 11.05 2.27513 11.2676 2.70509 11.3281L19.3665 13.6593L13.0582 29.2287C12.9768 29.4278 12.9383 29.631 12.9449 29.8267C12.9516 30.0223 13.0033 30.2065 13.097 30.3686C13.1908 30.5307 13.3247 30.6674 13.4911 30.771C13.6575 30.8746 13.8531 30.9429 14.0666 30.9721C14.2794 31.0011 14.5058 30.9907 14.7328 30.9413C14.9598 30.8919 15.183 30.8046 15.3895 30.6844Z" fill="#848181"/>
<path d="M14.7181 30.7214C14.8958 30.6202 15.0539 30.4888 15.1835 30.3346C15.313 30.1805 15.4114 30.0067 15.473 29.8231L20.7 14.0315C20.7617 13.8474 20.7852 13.6572 20.7692 13.4718C20.7531 13.2864 20.6977 13.1095 20.6062 12.9514C20.5147 12.7932 20.389 12.6569 20.2362 12.5503C20.0834 12.4437 19.9066 12.3689 19.716 12.3303L3.40246 8.95319C3.01847 8.8737 2.60134 8.94512 2.24282 9.15175C1.8843 9.35837 1.61377 9.68327 1.49074 10.055C1.36771 10.4267 1.40225 10.8147 1.58677 11.1338C1.7713 11.4528 2.09068 11.6767 2.47467 11.7562L17.3539 14.8258L12.5773 29.2237C12.5155 29.4078 12.492 29.598 12.5081 29.7834C12.5242 29.9688 12.5796 30.1457 12.6711 30.3038C12.7625 30.462 12.8883 30.5983 13.0411 30.7049C13.1939 30.8115 13.3706 30.8863 13.5612 30.9249C13.7513 30.9634 13.9513 30.9653 14.1498 30.9304C14.3483 30.8955 14.5414 30.8245 14.7181 30.7214Z" fill="#848181"/>
</svg>
