<svg width="114" height="113" viewBox="0 0 114 113" fill="none" xmlns="http://www.w3.org/2000/svg">
<g filter="url(#filter0_d_2763_6282)">
<circle cx="57.0396" cy="56.5133" r="50.9" fill="#BABDF5"/>
</g>
<path d="M49.8903 52.9089C51.7039 52.9089 53.4432 52.1497 54.7256 50.7982C56.008 49.4467 56.7284 47.6138 56.7284 45.7025C56.7284 43.7912 56.008 41.9583 54.7256 40.6068C53.4432 39.2553 51.7039 38.4961 49.8903 38.4961C48.0767 38.4961 46.3374 39.2553 45.055 40.6068C43.7726 41.9583 43.0522 43.7912 43.0522 45.7025C43.0522 47.6138 43.7726 49.4467 45.055 50.7982C46.3374 52.1497 48.0767 52.9089 49.8903 52.9089ZM65.4315 52.9089C66.7505 52.9089 68.0154 52.3567 68.9481 51.3738C69.8807 50.391 70.4047 49.0579 70.4047 47.6679C70.4047 46.2779 69.8807 44.9448 68.9481 43.9619C68.0154 42.979 66.7505 42.4269 65.4315 42.4269C64.1125 42.4269 62.8476 42.979 61.9149 43.9619C60.9823 44.9448 60.4583 46.2779 60.4583 47.6679C60.4583 49.0579 60.9823 50.391 61.9149 51.3738C62.8476 52.3567 64.1125 52.9089 65.4315 52.9089ZM54.2418 64.7012C54.2418 61.1478 55.7338 57.9625 58.0911 55.8006C57.657 55.621 57.1948 55.529 56.7284 55.5294H43.0522C42.0629 55.5294 41.1142 55.9435 40.4147 56.6807C39.7152 57.4179 39.3223 58.4177 39.3223 59.4602V59.6567C39.3223 59.6567 39.3223 67.3217 49.8903 67.3217C51.6831 67.3217 53.1726 67.1016 54.4072 66.7347C54.2968 66.0631 54.2415 65.3828 54.2418 64.7012ZM74.7562 64.7012C74.7562 67.3074 73.7738 69.807 72.0251 71.6499C70.2764 73.4928 67.9046 74.5281 65.4315 74.5281C62.9584 74.5281 60.5866 73.4928 58.8379 71.6499C57.0892 69.807 56.1068 67.3074 56.1068 64.7012C56.1068 62.0949 57.0892 59.5954 58.8379 57.7525C60.5866 55.9096 62.9584 54.8743 65.4315 54.8743C67.9046 54.8743 70.2764 55.9096 72.0251 57.7525C73.7738 59.5954 74.7562 62.0949 74.7562 64.7012ZM64.5463 58.3307L63.3776 62.0361H59.6551C58.7463 62.0361 58.3745 63.2651 59.1156 63.8194L62.1069 66.056L60.9519 69.7142C60.6684 70.6144 61.6419 71.3743 62.3767 70.8253L65.4315 68.5415L68.4863 70.8253C69.2211 71.3756 70.1946 70.6157 69.9111 69.7142L68.7548 66.056L71.7474 63.8194C72.4897 63.2651 72.1167 62.0361 71.2079 62.0361H67.4854L66.3167 58.3307C66.0333 57.4345 64.8297 57.4345 64.5463 58.3307Z" fill="#313131"/>
<defs>
<filter id="filter0_d_2763_6282" x="0.952387" y="0.42602" width="112.174" height="112.175" filterUnits="userSpaceOnUse" color-interpolation-filters="sRGB">
<feFlood flood-opacity="0" result="BackgroundImageFix"/>
<feColorMatrix in="SourceAlpha" type="matrix" values="0 0 0 0 0 0 0 0 0 0 0 0 0 0 0 0 0 0 127 0" result="hardAlpha"/>
<feOffset/>
<feGaussianBlur stdDeviation="2.59363"/>
<feComposite in2="hardAlpha" operator="out"/>
<feColorMatrix type="matrix" values="0 0 0 0 0 0 0 0 0 0 0 0 0 0 0 0 0 0 0.17 0"/>
<feBlend mode="normal" in2="BackgroundImageFix" result="effect1_dropShadow_2763_6282"/>
<feBlend mode="normal" in="SourceGraphic" in2="effect1_dropShadow_2763_6282" result="shape"/>
</filter>
</defs>
</svg>
