<svg width="100" height="100" viewBox="0 0 100 100" fill="none" xmlns="http://www.w3.org/2000/svg">
<circle cx="50" cy="50" r="50" fill="#5C27C0"/>
<path d="M50 56C50.5933 56 51.1734 55.8241 51.6667 55.4944C52.1601 55.1648 52.5446 54.6962 52.7716 54.1481C52.9987 53.5999 53.0581 52.9967 52.9424 52.4147C52.8266 51.8328 52.5409 51.2982 52.1213 50.8787C51.7018 50.4591 51.1672 50.1734 50.5853 50.0576C50.0033 49.9419 49.4001 50.0013 48.8519 50.2284C48.3038 50.4554 47.8352 50.8399 47.5056 51.3333C47.1759 51.8266 47 52.4067 47 53C47 53.7957 47.3161 54.5587 47.8787 55.1213C48.4413 55.6839 49.2044 56 50 56ZM65 56C65.5933 56 66.1734 55.8241 66.6667 55.4944C67.1601 55.1648 67.5446 54.6962 67.7716 54.1481C67.9987 53.5999 68.0581 52.9967 67.9424 52.4147C67.8266 51.8328 67.5409 51.2982 67.1213 50.8787C66.7018 50.4591 66.1672 50.1734 65.5853 50.0576C65.0033 49.9419 64.4001 50.0013 63.852 50.2284C63.3038 50.4554 62.8352 50.8399 62.5056 51.3333C62.1759 51.8266 62 52.4067 62 53C62 53.7957 62.3161 54.5587 62.8787 55.1213C63.4413 55.6839 64.2043 56 65 56ZM50 68C50.5933 68 51.1734 67.8241 51.6667 67.4944C52.1601 67.1648 52.5446 66.6962 52.7716 66.148C52.9987 65.5999 53.0581 64.9967 52.9424 64.4147C52.8266 63.8328 52.5409 63.2982 52.1213 62.8787C51.7018 62.4591 51.1672 62.1734 50.5853 62.0576C50.0033 61.9419 49.4001 62.0013 48.8519 62.2284C48.3038 62.4554 47.8352 62.8399 47.5056 63.3333C47.1759 63.8266 47 64.4067 47 65C47 65.7957 47.3161 66.5587 47.8787 67.1213C48.4413 67.6839 49.2044 68 50 68ZM65 68C65.5933 68 66.1734 67.8241 66.6667 67.4944C67.1601 67.1648 67.5446 66.6962 67.7716 66.148C67.9987 65.5999 68.0581 64.9967 67.9424 64.4147C67.8266 63.8328 67.5409 63.2982 67.1213 62.8787C66.7018 62.4591 66.1672 62.1734 65.5853 62.0576C65.0033 61.9419 64.4001 62.0013 63.852 62.2284C63.3038 62.4554 62.8352 62.8399 62.5056 63.3333C62.1759 63.8266 62 64.4067 62 65C62 65.7957 62.3161 66.5587 62.8787 67.1213C63.4413 67.6839 64.2043 68 65 68ZM35 56C35.5933 56 36.1734 55.8241 36.6667 55.4944C37.1601 55.1648 37.5446 54.6962 37.7716 54.1481C37.9987 53.5999 38.0581 52.9967 37.9424 52.4147C37.8266 51.8328 37.5409 51.2982 37.1213 50.8787C36.7018 50.4591 36.1672 50.1734 35.5853 50.0576C35.0033 49.9419 34.4001 50.0013 33.8519 50.2284C33.3038 50.4554 32.8352 50.8399 32.5056 51.3333C32.1759 51.8266 32 52.4067 32 53C32 53.7957 32.3161 54.5587 32.8787 55.1213C33.4413 55.6839 34.2044 56 35 56ZM71 26H68V23C68 22.2044 67.6839 21.4413 67.1213 20.8787C66.5587 20.3161 65.7957 20 65 20C64.2043 20 63.4413 20.3161 62.8787 20.8787C62.3161 21.4413 62 22.2044 62 23V26H38V23C38 22.2044 37.6839 21.4413 37.1213 20.8787C36.5587 20.3161 35.7956 20 35 20C34.2044 20 33.4413 20.3161 32.8787 20.8787C32.3161 21.4413 32 22.2044 32 23V26H29C26.6131 26 24.3239 26.9482 22.636 28.636C20.9482 30.3239 20 32.6131 20 35V71C20 73.3869 20.9482 75.6761 22.636 77.364C24.3239 79.0518 26.6131 80 29 80H71C73.3869 80 75.6761 79.0518 77.364 77.364C79.0518 75.6761 80 73.3869 80 71V35C80 32.6131 79.0518 30.3239 77.364 28.636C75.6761 26.9482 73.3869 26 71 26ZM74 71C74 71.7957 73.6839 72.5587 73.1213 73.1213C72.5587 73.6839 71.7957 74 71 74H29C28.2044 74 27.4413 73.6839 26.8787 73.1213C26.3161 72.5587 26 71.7957 26 71V44H74V71ZM74 38H26V35C26 34.2044 26.3161 33.4413 26.8787 32.8787C27.4413 32.3161 28.2044 32 29 32H71C71.7957 32 72.5587 32.3161 73.1213 32.8787C73.6839 33.4413 74 34.2044 74 35V38ZM35 68C35.5933 68 36.1734 67.8241 36.6667 67.4944C37.1601 67.1648 37.5446 66.6962 37.7716 66.148C37.9987 65.5999 38.0581 64.9967 37.9424 64.4147C37.8266 63.8328 37.5409 63.2982 37.1213 62.8787C36.7018 62.4591 36.1672 62.1734 35.5853 62.0576C35.0033 61.9419 34.4001 62.0013 33.8519 62.2284C33.3038 62.4554 32.8352 62.8399 32.5056 63.3333C32.1759 63.8266 32 64.4067 32 65C32 65.7957 32.3161 66.5587 32.8787 67.1213C33.4413 67.6839 34.2044 68 35 68Z" fill="white"/>
</svg>
