<svg width="113" height="113" viewBox="0 0 113 113" fill="none" xmlns="http://www.w3.org/2000/svg">
<g filter="url(#filter0_d_2763_6272)">
<circle cx="56.3453" cy="56.9" r="50.9" fill="#BABDF5"/>
</g>
<path d="M49.196 53.2956C51.0095 53.2956 52.7488 52.5364 54.0312 51.1849C55.3136 49.8334 56.0341 48.0005 56.0341 46.0892C56.0341 44.178 55.3136 42.345 54.0312 40.9935C52.7488 39.6421 51.0095 38.8828 49.196 38.8828C47.3824 38.8828 45.6431 39.6421 44.3607 40.9935C43.0783 42.345 42.3578 44.178 42.3578 46.0892C42.3578 48.0005 43.0783 49.8334 44.3607 51.1849C45.6431 52.5364 47.3824 53.2956 49.196 53.2956ZM64.7372 53.2956C66.0561 53.2956 67.3211 52.7434 68.2537 51.7606C69.1864 50.7777 69.7104 49.4446 69.7104 48.0546C69.7104 46.6646 69.1864 45.3315 68.2537 44.3486C67.3211 43.3658 66.0561 42.8136 64.7372 42.8136C63.4182 42.8136 62.1532 43.3658 61.2206 44.3486C60.2879 45.3315 59.764 46.6646 59.764 48.0546C59.764 49.4446 60.2879 50.7777 61.2206 51.7606C62.1532 52.7434 63.4182 53.2956 64.7372 53.2956ZM53.5475 65.0879C53.5475 61.5345 55.0394 58.3493 57.3967 56.1873C56.9627 56.0078 56.5004 55.9158 56.0341 55.9161H42.3578C41.3686 55.9161 40.4199 56.3303 39.7204 57.0674C39.0209 57.8046 38.6279 58.8044 38.6279 59.8469V60.0434C38.6279 60.0434 38.6279 67.7084 49.196 67.7084C50.9888 67.7084 52.4783 67.4883 53.7129 67.1214C53.6025 66.4498 53.5471 65.7695 53.5475 65.0879ZM74.0619 65.0879C74.0619 67.6942 73.0795 70.1937 71.3307 72.0366C69.582 73.8795 67.2102 74.9148 64.7372 74.9148C62.2641 74.9148 59.8923 73.8795 58.1436 72.0366C56.3949 70.1937 55.4124 67.6942 55.4124 65.0879C55.4124 62.4816 56.3949 59.9821 58.1436 58.1392C59.8923 56.2963 62.2641 55.261 64.7372 55.261C67.2102 55.261 69.582 56.2963 71.3307 58.1392C73.0795 59.9821 74.0619 62.4816 74.0619 65.0879ZM63.8519 58.7174L62.6832 62.4228H58.9608C58.052 62.4228 57.6802 63.6519 58.4212 64.2061L61.4126 66.4427L60.2576 70.1009C59.9741 71.0011 60.9476 71.761 61.6824 71.212L64.7372 68.9283L67.7919 71.212C68.5267 71.7623 69.5002 71.0024 69.2168 70.1009L68.0605 66.4427L71.0531 64.2061C71.7954 63.6519 71.4224 62.4228 70.5135 62.4228H66.7911L65.6224 58.7174C65.3389 57.8212 64.1354 57.8212 63.8519 58.7174Z" fill="#313131"/>
<defs>
<filter id="filter0_d_2763_6272" x="0.258051" y="0.812739" width="112.174" height="112.175" filterUnits="userSpaceOnUse" color-interpolation-filters="sRGB">
<feFlood flood-opacity="0" result="BackgroundImageFix"/>
<feColorMatrix in="SourceAlpha" type="matrix" values="0 0 0 0 0 0 0 0 0 0 0 0 0 0 0 0 0 0 127 0" result="hardAlpha"/>
<feOffset/>
<feGaussianBlur stdDeviation="2.59363"/>
<feComposite in2="hardAlpha" operator="out"/>
<feColorMatrix type="matrix" values="0 0 0 0 0 0 0 0 0 0 0 0 0 0 0 0 0 0 0.17 0"/>
<feBlend mode="normal" in2="BackgroundImageFix" result="effect1_dropShadow_2763_6272"/>
<feBlend mode="normal" in="SourceGraphic" in2="effect1_dropShadow_2763_6272" result="shape"/>
</filter>
</defs>
</svg>
