<svg width="25" height="24" viewBox="0 0 25 24" fill="none" xmlns="http://www.w3.org/2000/svg">
<path d="M12.5 22C13.8135 22.0017 15.1143 21.7438 16.3278 21.2412C17.5413 20.7385 18.6435 20.001 19.571 19.071C20.501 18.1435 21.2385 17.0413 21.7412 15.8278C22.2438 14.6143 22.5017 13.3135 22.5 12C22.5017 10.6865 22.2438 9.3857 21.7411 8.17222C21.2385 6.95875 20.501 5.85656 19.571 4.92901C18.6435 3.99902 17.5413 3.26151 16.3278 2.75885C15.1143 2.25619 13.8135 1.99831 12.5 2.00001C11.1865 1.99833 9.8857 2.25623 8.67222 2.75889C7.45875 3.26154 6.35656 3.99904 5.42901 4.92901C4.49904 5.85656 3.76154 6.95875 3.25889 8.17222C2.75623 9.3857 2.49833 10.6865 2.50001 12C2.49831 13.3135 2.75619 14.6143 3.25885 15.8278C3.76151 17.0413 4.49902 18.1435 5.42901 19.071C6.35656 20.001 7.45875 20.7385 8.67222 21.2411C9.8857 21.7438 11.1865 22.0017 12.5 22Z" stroke="#56DF4A" stroke-width="1.5" stroke-linejoin="round"/>
<path d="M8.5 12L11.5 15L17.5 9" stroke="#56DF4A" stroke-width="1.5" stroke-linecap="round" stroke-linejoin="round"/>
</svg>
