<svg width="30" height="30" viewBox="0 0 30 30" fill="none" xmlns="http://www.w3.org/2000/svg">
<path d="M19.362 15.0011L27.3756 6.98749C28.1993 6.16378 28.1993 4.82831 27.3756 4.0046L25.9966 2.6256C25.1728 1.80188 23.8374 1.80188 23.0137 2.6256L15.0001 10.6392L6.98651 2.6256C6.1628 1.80188 4.82733 1.80188 4.00362 2.6256L2.62462 4.0046C1.80091 4.82831 1.80091 6.16378 2.62462 6.98749L10.6382 15.0011L2.62462 23.0146C1.80091 23.8384 1.80091 25.1738 2.62462 25.9975L4.00362 27.3765C4.82733 28.2002 6.1628 28.2002 6.98651 27.3765L15.0001 19.363L23.0137 27.3765C23.8374 28.2002 25.1728 28.2002 25.9966 27.3765L27.3756 25.9975C28.1993 25.1738 28.1993 23.8384 27.3756 23.0146L19.362 15.0011Z" fill="#FF473E"/>
</svg>
