<svg width="140" height="43" viewBox="0 0 140 43" fill="none" xmlns="http://www.w3.org/2000/svg">
<path fill-rule="evenodd" clip-rule="evenodd" d="M33.033 4.58984L25.8332 28.2792H21.6494L16.5601 11.072L11.396 28.2792H7.21154L0.0117188 4.58984H4.15828L9.28474 21.797L14.4494 4.58984H18.5579L23.76 21.797L28.8869 4.58984H33.033Z" fill="black"/>
<path fill-rule="evenodd" clip-rule="evenodd" d="M34.9531 4.65695L39.0996 4.35156V10.1549L39.024 12.3269H39.1751C41.0973 11.6819 42.6432 11.3765 44.5281 11.3765C47.8833 11.3765 50.1447 12.7346 50.1447 17.9264V28.2783H45.9981V18.2318C45.9981 15.1097 44.3018 14.7027 42.3797 14.7027C41.1729 14.7027 40.1552 14.9404 39.0997 15.2119V28.2783H34.9532L34.9531 4.65695Z" fill="black"/>
<path fill-rule="evenodd" clip-rule="evenodd" d="M53.7624 11.6145H57.9093V28.2786H53.7624V11.6145ZM55.8361 4.89453C57.985 4.89453 58.3243 6.0146 58.3243 7.27033C58.3243 8.5262 57.8714 9.68045 55.8361 9.68045C53.8004 9.68045 53.3857 8.5262 53.3857 7.27033C53.3857 6.01453 53.7624 4.89453 55.8361 4.89453Z" fill="black"/>
<path fill-rule="evenodd" clip-rule="evenodd" d="M61.416 11.6166H64.2432L64.8088 12.9743H65.0728C66.1658 12.1258 67.8994 11.3789 70.1617 11.3789C70.4253 11.3789 70.7266 11.3789 71.0282 11.413V15.0779C70.2748 14.977 69.483 14.8748 68.6913 14.8748C67.5601 14.8748 66.6558 15.1121 65.5625 15.5536V28.2807H61.4161L61.416 11.6166Z" fill="black"/>
<path fill-rule="evenodd" clip-rule="evenodd" d="M72.7969 28.2783V4.65695L76.9433 4.35156V28.2783H72.7969Z" fill="black"/>
<path fill-rule="evenodd" clip-rule="evenodd" d="M110.334 20.0329C110.334 16.8776 109.767 14.2978 106.45 14.2978C103.096 14.2978 102.266 16.7753 102.266 20.0329C102.266 23.0533 102.944 25.6672 106.262 25.6672C109.579 25.6672 110.334 23.1897 110.334 20.0329ZM106.412 11.3789C112.293 11.3789 114.556 14.5013 114.556 20.0329C114.556 25.2257 112.444 28.6204 106.337 28.6204C100.23 28.6204 98.0811 25.2257 98.0811 20.0329C98.0811 14.5014 100.532 11.3789 106.412 11.3789Z" fill="black"/>
<path fill-rule="evenodd" clip-rule="evenodd" d="M128.93 20.0329C128.93 16.8776 128.364 14.2978 125.048 14.2978C121.693 14.2978 120.863 16.7753 120.863 20.0329C120.863 23.0533 121.542 25.6672 124.86 25.6672C128.177 25.6672 128.93 23.1897 128.93 20.0329ZM125.01 11.3789C130.891 11.3789 133.154 14.5013 133.154 20.0329C133.154 25.2257 131.041 28.6204 124.935 28.6204C118.828 28.6204 116.679 25.2257 116.679 20.0329C116.679 14.5014 119.129 11.3789 125.01 11.3789Z" fill="black"/>
<path fill-rule="evenodd" clip-rule="evenodd" d="M135.842 28.2783V4.65695L139.988 4.35156V28.2783H135.842Z" fill="black"/>
<path fill-rule="evenodd" clip-rule="evenodd" d="M84.4775 25.1924C85.6455 25.2256 86.2871 25.2595 87.4931 25.2595C90.0557 25.2595 91.7528 24.0379 91.7528 19.1839C91.7528 15.8584 90.2449 14.977 87.5307 14.977C86.4751 14.977 85.495 15.1452 84.4775 15.4517L84.4775 25.1924ZM80.3311 11.6163H83.4599L83.7991 12.8378C85.0438 12.227 87.3416 11.3789 89.4159 11.3789C93.1845 11.3789 95.9362 13.8563 95.9362 19.7951C95.9362 25.6332 93.0334 28.518 88.2092 28.518C86.4334 28.518 84.4775 28.1788 84.4775 28.1788V35.8145L80.3311 36.2221L80.3311 11.6163Z" fill="black"/>
<path fill-rule="evenodd" clip-rule="evenodd" d="M100.864 1.37636C97.7627 -1.85861 87.9231 0.98485 76.943 7.82682V9.55121C86.613 3.36232 95.1373 0.507083 97.5789 3.05387C100.627 6.23371 93.0443 16.6353 80.6398 26.2733C68.2344 35.9118 55.7027 41.1379 52.6549 37.9577C51.0718 36.3058 52.3626 32.7066 55.7027 28.2795H53.7612C49.6254 33.8324 48.0752 38.4976 50.1987 40.7127C54.0695 44.7517 68.549 39.2261 82.536 28.3591C96.5219 17.4926 104.734 5.41464 100.864 1.37636Z" fill="#EFB200" fill-opacity="0.53"/>
</svg>
