<svg width="58" height="59" viewBox="0 0 58 59" fill="none" xmlns="http://www.w3.org/2000/svg">
<g clip-path="url(#clip0_2763_5997)">
<path d="M19.3542 27.0885C19.3542 21.7689 15.028 17.4427 9.70833 17.4427C4.38866 17.4427 0.0625 21.7689 0.0625 27.0885C0.0625 30.1149 1.49249 32.7868 3.67969 34.5568V46.0113C3.67969 47.5136 5.58715 48.1575 6.49868 46.9638L9.70833 42.7606L12.918 46.9638C13.8295 48.1575 15.737 47.5136 15.737 46.0113V34.5568C17.9242 32.7868 19.3542 30.1149 19.3542 27.0885ZM56.7318 25.8466V46.3802C56.7318 53.0286 51.3229 58.4375 44.6745 58.4375H20.5599C15.4886 58.4375 11.1576 55.2809 9.38037 50.839C9.48407 50.7498 9.60946 50.6943 9.70833 50.5978C10.9116 51.7698 12.5153 52.4089 14.1647 52.4089C14.8496 52.4089 15.5416 52.3003 16.2169 52.0713C18.6958 51.2297 20.3814 48.9701 20.531 46.3826H42.263C43.5941 46.3826 44.6745 45.3047 44.6745 43.9712C44.6745 42.6376 43.5941 41.5597 42.263 41.5597H20.5599V36.7368H42.263C43.5941 36.7368 44.6745 35.6589 44.6745 34.3253C44.6745 32.9918 43.5941 31.9139 42.263 31.9139H23.3138C23.866 30.3826 24.1771 28.7597 24.1771 27.091C24.1771 19.1114 17.6878 12.6222 9.70833 12.6222C9.3008 12.6222 8.90049 12.6511 8.5026 12.6825V12.6222C8.5026 5.9714 13.9115 0.5625 20.5599 0.5625H31.4476C31.8407 0.5625 32.2289 0.593849 32.6172 0.620375V17.4427C32.6172 21.4313 35.863 24.6771 39.8516 24.6771H56.6739C56.7004 25.0653 56.7318 25.4536 56.7318 25.8466ZM37.4401 17.4427V1.67177C39.6418 2.50614 41.6674 3.79144 43.3843 5.50599L51.7859 13.9123C53.5028 15.6269 54.7881 17.6525 55.6225 19.8542H39.8516C38.5204 19.8542 37.4401 18.7714 37.4401 17.4427Z" fill="#FDFDFD"/>
</g>
<defs>
<clipPath id="clip0_2763_5997">
<rect width="57.875" height="57.875" fill="white" transform="translate(0.0625 0.5625)"/>
</clipPath>
</defs>
</svg>
