<svg width="85" height="84" viewBox="0 0 85 84" fill="none" xmlns="http://www.w3.org/2000/svg">
<path d="M37.39 50.8567L29.935 43.4017L26.225 47.1117L37.355 58.2417L58.355 37.2417L54.645 33.5317L37.39 50.8567ZM42.5 70.0017C36.0022 70.0017 29.7705 67.4205 25.1759 62.8258C20.5812 58.2312 18 51.9995 18 45.5017C18 39.0039 20.5812 32.7722 25.1759 28.1776C29.7705 23.583 36.0022 21.0017 42.5 21.0017C48.9978 21.0017 55.2295 23.583 59.8241 28.1776C64.4188 32.7722 67 39.0039 67 45.5017C67 51.9995 64.4188 58.2312 59.8241 62.8258C55.2295 67.4205 48.9978 70.0017 42.5 70.0017ZM42.5 14.0017C34.1457 14.0017 26.1335 17.3205 20.2261 23.2279C14.3187 29.1353 11 37.1474 11 45.5017C11 53.856 14.3187 61.8682 20.2261 67.7756C26.1335 73.683 34.1457 77.0017 42.5 77.0017C50.8543 77.0017 58.8665 73.683 64.7739 67.7756C70.6813 61.8682 74 53.856 74 45.5017C74 37.1474 70.6813 29.1353 64.7739 23.2279C58.8665 17.3205 50.8543 14.0017 42.5 14.0017ZM28.08 11.8667L23.6 6.51172L7.5 19.9867L12.015 25.3417L28.08 11.8667ZM77.5 20.0217L61.4 6.51172L56.885 11.8667L72.985 25.3767L77.5 20.0217Z" fill="#5C27C0"/>
</svg>
