<svg width="85" height="84" viewBox="0 0 85 84" fill="none" xmlns="http://www.w3.org/2000/svg">
<g clip-path="url(#clip0_2763_6475)">
<path d="M70.5 14C72.3565 14 74.137 14.7375 75.4497 16.0503C76.7625 17.363 77.5 19.1435 77.5 21V56C77.5 59.885 74.385 63 70.5 63H84.5V70H0.5V63H14.5C12.6435 63 10.863 62.2625 9.55025 60.9497C8.2375 59.637 7.5 57.8565 7.5 56V21C7.5 17.115 10.615 14 14.5 14H70.5ZM70.5 21H14.5V56H70.5V21ZM42.5 42C50.235 42 56.5 45.15 56.5 49V52.5H28.5V49C28.5 45.15 34.765 42 42.5 42ZM42.5 24.5C44.3565 24.5 46.137 25.2375 47.4497 26.5503C48.7625 27.863 49.5 29.6435 49.5 31.5C49.5 33.3565 48.7625 35.137 47.4497 36.4497C46.137 37.7625 44.3565 38.5 42.5 38.5C38.615 38.5 35.5 35.385 35.5 31.5C35.5 27.615 38.65 24.5 42.5 24.5Z" fill="white"/>
</g>
<defs>
<clipPath id="clip0_2763_6475">
<rect width="84" height="84" fill="white" transform="translate(0.5)"/>
</clipPath>
</defs>
</svg>
