<svg width="25" height="24" viewBox="0 0 25 24" fill="none" xmlns="http://www.w3.org/2000/svg">
<path d="M19.3359 4H5.33594C4.54029 4 3.77723 4.31607 3.21462 4.87868C2.65201 5.44129 2.33594 6.20435 2.33594 7V17C2.33594 17.7956 2.65201 18.5587 3.21462 19.1213C3.77723 19.6839 4.54029 20 5.33594 20H19.3359C20.1316 20 20.8946 19.6839 21.4573 19.1213C22.0199 18.5587 22.3359 17.7956 22.3359 17V7C22.3359 6.20435 22.0199 5.44129 21.4573 4.87868C20.8946 4.31607 20.1316 4 19.3359 4V4ZM18.9259 6L13.0459 11.88C12.953 11.9737 12.8424 12.0481 12.7205 12.0989C12.5987 12.1497 12.4679 12.1758 12.3359 12.1758C12.2039 12.1758 12.0732 12.1497 11.9514 12.0989C11.8295 12.0481 11.7189 11.9737 11.6259 11.88L5.74594 6H18.9259ZM20.3359 17C20.3359 17.2652 20.2306 17.5196 20.043 17.7071C19.8555 17.8946 19.6012 18 19.3359 18H5.33594C5.07072 18 4.81637 17.8946 4.62883 17.7071C4.44129 17.5196 4.33594 17.2652 4.33594 17V7.41L10.2159 13.29C10.7784 13.8518 11.5409 14.1674 12.3359 14.1674C13.1309 14.1674 13.8934 13.8518 14.4559 13.29L20.3359 7.41V17Z" fill="#F0FDF4"/>
</svg>
