<svg width="158" height="34" viewBox="0 0 158 34" fill="none" xmlns="http://www.w3.org/2000/svg">
<g clip-path="url(#clip0_2763_6327)">
<path d="M157.339 15.2025V12.4354H153.903V8.1335L153.787 8.16911L150.559 9.15665L150.496 9.17598V12.4355H145.401V10.6197C145.401 9.77416 145.59 9.12712 145.963 8.69561C146.333 8.26927 146.862 8.05252 147.537 8.05252C148.023 8.05252 148.525 8.16683 149.031 8.39225L149.157 8.44887V5.53468L149.098 5.51276C148.626 5.3432 147.985 5.25781 147.189 5.25781C146.187 5.25781 145.276 5.47593 144.482 5.9082C143.687 6.34108 143.062 6.95905 142.624 7.74476C142.188 8.52955 141.966 9.43595 141.966 10.439V12.4354H139.574V15.2025H141.966V26.8601H145.401V15.2025H150.496V22.6107C150.496 25.6617 151.935 27.2079 154.773 27.2079C155.239 27.2079 155.73 27.1532 156.232 27.0462C156.742 26.9363 157.089 26.8266 157.294 26.7094L157.339 26.6826V23.8899L157.199 23.9823C157.013 24.1065 156.781 24.208 156.509 24.2835C156.235 24.3603 156.007 24.3989 155.83 24.3989C155.165 24.3989 154.673 24.2197 154.368 23.8661C154.059 23.5093 153.903 22.8854 153.903 22.0127V15.2025H157.339ZM131.903 24.3993C130.656 24.3993 129.673 23.9859 128.981 23.1716C128.284 22.3532 127.931 21.1863 127.931 19.7038C127.931 18.1743 128.284 16.9771 128.981 16.1443C129.674 15.3168 130.648 14.8969 131.875 14.8969C133.066 14.8969 134.014 15.298 134.693 16.0896C135.376 16.8854 135.722 18.0729 135.722 19.6203C135.722 21.1866 135.397 22.3898 134.754 23.1947C134.116 23.9935 133.157 24.3993 131.903 24.3993ZM132.056 12.0879C129.677 12.0879 127.788 12.7849 126.441 14.1595C125.095 15.5342 124.412 17.4367 124.412 19.8145C124.412 22.073 125.078 23.8896 126.393 25.213C127.707 26.5369 129.495 27.2076 131.708 27.2076C134.014 27.2076 135.865 26.5009 137.212 25.1072C138.558 23.7151 139.24 21.8306 139.24 19.5084C139.24 17.2146 138.6 15.3844 137.337 14.0698C136.074 12.7546 134.296 12.0879 132.056 12.0879ZM118.874 12.0879C117.256 12.0879 115.918 12.5017 114.895 13.3177C113.867 14.1386 113.345 15.2152 113.345 16.5179C113.345 17.1951 113.458 17.7966 113.679 18.3068C113.902 18.8187 114.247 19.2694 114.706 19.6477C115.161 20.0228 115.863 20.4159 116.794 20.8157C117.576 21.1376 118.159 21.4099 118.53 21.6245C118.892 21.8349 119.149 22.0463 119.294 22.2523C119.436 22.4538 119.507 22.7296 119.507 23.0699C119.507 24.039 118.781 24.5106 117.288 24.5106C116.734 24.5106 116.102 24.3949 115.41 24.1669C114.723 23.9423 114.075 23.6135 113.487 23.1918L113.345 23.0896V26.3966L113.397 26.421C113.883 26.6453 114.496 26.8345 115.218 26.9834C115.939 27.1324 116.594 27.2082 117.163 27.2082C118.919 27.2082 120.332 26.7923 121.364 25.9715C122.402 25.145 122.928 24.043 122.928 22.6952C122.928 21.7229 122.645 20.8891 122.087 20.2166C121.532 19.5496 120.57 18.9373 119.228 18.396C118.158 17.9668 117.473 17.6105 117.191 17.337C116.918 17.0727 116.78 16.6991 116.78 16.2258C116.78 15.8064 116.95 15.4703 117.301 15.1981C117.654 14.9246 118.146 14.7855 118.763 14.7855C119.335 14.7855 119.921 14.8759 120.503 15.0531C121.085 15.2302 121.596 15.4675 122.023 15.7578L122.163 15.8537V12.7167L122.109 12.6935C121.716 12.5247 121.197 12.3803 120.566 12.2631C119.938 12.1466 119.369 12.0879 118.874 12.0879ZM104.39 24.3993C103.144 24.3993 102.161 23.9859 101.468 23.1716C100.771 22.3532 100.418 21.1866 100.418 19.7038C100.418 18.1743 100.771 16.9771 101.469 16.1443C102.161 15.3168 103.135 14.8969 104.363 14.8969C105.553 14.8969 106.501 15.298 107.181 16.0896C107.863 16.8854 108.21 18.0729 108.21 19.6203C108.21 21.1866 107.884 22.3898 107.242 23.1947C106.604 23.9935 105.645 24.3993 104.39 24.3993ZM104.543 12.0879C102.164 12.0879 100.275 12.7849 98.9286 14.1595C97.5825 15.5342 96.8995 17.4367 96.8995 19.8145C96.8995 22.0739 97.5662 23.8896 98.8804 25.213C100.195 26.5369 101.983 27.2076 104.196 27.2076C106.501 27.2076 108.353 26.5009 109.699 25.1072C111.045 23.7151 111.728 21.8306 111.728 19.5084C111.728 17.2146 111.088 15.3844 109.824 14.0698C108.561 12.7546 106.784 12.0879 104.543 12.0879ZM91.6855 14.9334V12.4354H88.2924V26.8598H91.6855V19.4811C91.6855 18.2265 91.9699 17.1957 92.5313 16.4172C93.0855 15.6479 93.824 15.2581 94.7257 15.2581C95.0313 15.2581 95.3744 15.3085 95.7459 15.4082C96.1137 15.5073 96.38 15.6149 96.5371 15.7281L96.6797 15.8315V12.4107L96.6248 12.3871C96.3088 12.2529 95.8618 12.1851 95.2962 12.1851C94.4435 12.1851 93.6805 12.4591 93.0269 12.9986C92.4532 13.4727 92.0386 14.1228 91.7215 14.9334H91.6855ZM82.2161 12.0879C80.6594 12.0879 79.271 12.4217 78.09 13.0797C76.9066 13.7392 75.9913 14.6808 75.3687 15.878C74.7487 17.0724 74.4339 18.4676 74.4339 20.0235C74.4339 21.3863 74.7391 22.637 75.3423 23.7393C75.9458 24.8435 76.8 25.7072 77.8813 26.3063C78.9611 26.9047 80.209 27.208 81.5908 27.208C83.2033 27.208 84.58 26.8856 85.6839 26.2499L85.7284 26.2243V23.1157L85.5858 23.2198C85.0858 23.5841 84.5271 23.8748 83.9258 24.0842C83.3261 24.2935 82.7794 24.3993 82.2999 24.3993C80.9686 24.3993 79.8998 23.9827 79.1239 23.1614C78.3465 22.339 77.9522 21.1842 77.9522 19.7311C77.9522 18.2688 78.3634 17.0843 79.1736 16.2103C79.9813 15.3389 81.0521 14.8969 82.356 14.8969C83.4712 14.8969 84.558 15.2745 85.5861 16.0204L85.7284 16.1237V12.8483L85.6825 12.8224C85.2956 12.6059 84.7679 12.427 84.1127 12.2914C83.4604 12.1561 82.8223 12.0879 82.2161 12.0879ZM72.0971 12.4355H68.704V26.8598H72.0971V12.4355ZM70.4352 6.2907C69.8768 6.2907 69.3897 6.48081 68.9896 6.85753C68.5877 7.23531 68.3839 7.71097 68.3839 8.27231C68.3839 8.82483 68.5853 9.29181 68.9833 9.65955C69.3788 10.0262 69.8674 10.2121 70.4354 10.2121C71.0033 10.2121 71.4937 10.0262 71.8939 9.66015C72.2966 9.29181 72.5009 8.82498 72.5009 8.27231C72.5009 7.7306 72.3021 7.25982 71.9105 6.87275C71.5191 6.48644 71.0226 6.2907 70.4352 6.2907ZM61.9694 11.3713V26.8598H65.4321V6.73226H60.6395L54.5478 21.6824L48.6362 6.73226H43.6484V26.8596H46.9025V11.3698H47.0142L53.2568 26.8598H55.7125L61.8577 11.3713H61.9694Z" fill="#706D6E"/>
<path d="M15.9619 15.9697H0V0.0078125H15.9619V15.9697Z" fill="#F1511B"/>
<path d="M33.5787 15.9697H17.6172V0.0078125H33.5787V15.9697Z" fill="#80CC28"/>
<path d="M15.9614 33.6023H0V17.6406H15.9614V33.6023Z" fill="#00ADEF"/>
<path d="M33.5787 33.6023H17.6172V17.6406H33.5787V33.6023Z" fill="#FBBC09"/>
</g>
<defs>
<clipPath id="clip0_2763_6327">
<rect width="157.345" height="33.609" fill="white"/>
</clipPath>
</defs>
</svg>
