<svg width="149" height="32" viewBox="0 0 149 32" fill="none" xmlns="http://www.w3.org/2000/svg">
<g clip-path="url(#clip0_2763_6757)">
<path d="M148.996 14.4764V11.8418H145.742V7.74583L145.633 7.77974L142.576 8.71999L142.516 8.7384V11.8419H137.692V10.113C137.692 9.30794 137.871 8.69188 138.224 8.28103C138.574 7.8751 139.075 7.66873 139.715 7.66873C140.174 7.66873 140.65 7.77757 141.129 7.9922L141.249 8.04611V5.27143L141.192 5.25056C140.746 5.08911 140.138 5.00781 139.385 5.00781C138.436 5.00781 137.574 5.21549 136.821 5.62707C136.069 6.03922 135.477 6.62761 135.062 7.3757C134.649 8.12292 134.439 8.98593 134.439 9.94096V11.8418H132.173V14.4764H134.439V25.5759H137.692V14.4764H142.516V21.53C142.516 24.4349 143.879 25.907 146.567 25.907C147.008 25.907 147.473 25.855 147.948 25.7531C148.431 25.6485 148.76 25.544 148.954 25.4324L148.996 25.4069V22.7479L148.864 22.8358C148.688 22.9541 148.468 23.0508 148.21 23.1227C147.951 23.1958 147.735 23.2325 147.567 23.2325C146.938 23.2325 146.472 23.0619 146.183 22.7253C145.891 22.3856 145.742 21.7915 145.742 20.9606V14.4764H148.996ZM124.91 23.2329C123.729 23.2329 122.798 22.8393 122.142 22.064C121.482 21.2847 121.148 20.1738 121.148 18.7622C121.148 17.3059 121.482 16.1661 122.142 15.3731C122.799 14.5853 123.721 14.1854 124.883 14.1854C126.011 14.1854 126.909 14.5673 127.552 15.3211C128.198 16.0787 128.526 17.2094 128.526 18.6827C128.526 20.1741 128.218 21.3197 127.61 22.086C127.005 22.8466 126.097 23.2329 124.91 23.2329ZM125.054 11.5109C122.802 11.5109 121.013 12.1745 119.737 13.4833C118.462 14.7922 117.816 16.6036 117.816 18.8676C117.816 21.0179 118.447 22.7476 119.691 24.0077C120.936 25.2682 122.63 25.9068 124.725 25.9068C126.908 25.9068 128.662 25.2339 129.937 23.907C131.212 22.5815 131.857 20.7872 131.857 18.5762C131.857 16.3922 131.251 14.6496 130.055 13.3979C128.859 12.1457 127.176 11.5109 125.054 11.5109ZM112.572 11.5109C111.04 11.5109 109.772 11.9049 108.804 12.6819C107.83 13.4634 107.336 14.4885 107.336 15.7289C107.336 16.3736 107.442 16.9464 107.652 17.4321C107.863 17.9195 108.19 18.3486 108.624 18.7088C109.055 19.066 109.72 19.4402 110.602 19.8209C111.342 20.1274 111.895 20.3867 112.246 20.591C112.589 20.7913 112.832 20.9926 112.97 21.1887C113.103 21.3805 113.171 21.6431 113.171 21.9672C113.171 22.8899 112.484 23.3389 111.07 23.3389C110.545 23.3389 109.947 23.2287 109.292 23.0116C108.641 22.7978 108.027 22.4847 107.471 22.0833L107.336 21.9859V25.1346L107.385 25.1578C107.845 25.3714 108.426 25.5515 109.11 25.6933C109.792 25.8352 110.412 25.9073 110.951 25.9073C112.614 25.9073 113.953 25.5114 114.93 24.7298C115.913 23.9429 116.411 22.8937 116.411 21.6104C116.411 20.6846 116.143 19.8907 115.614 19.2505C115.089 18.6154 114.178 18.0324 112.907 17.5171C111.894 17.1084 111.245 16.7691 110.977 16.5087C110.719 16.2571 110.588 15.9013 110.588 15.4508C110.588 15.0514 110.75 14.7314 111.082 14.4722C111.417 14.2118 111.882 14.0794 112.466 14.0794C113.008 14.0794 113.563 14.1654 114.114 14.3341C114.665 14.5028 115.149 14.7288 115.553 15.0051L115.686 15.0964V12.1096L115.635 12.0876C115.262 11.9268 114.771 11.7893 114.174 11.6777C113.58 11.5668 113.041 11.5109 112.572 11.5109ZM98.8562 23.2329C97.6758 23.2329 96.7447 22.8393 96.0889 22.064C95.4287 21.2847 95.0949 20.1741 95.0949 18.7622C95.0949 17.3059 95.4292 16.1661 96.0896 15.3731C96.7454 14.5853 97.6672 14.1854 98.8301 14.1854C99.9575 14.1854 100.855 14.5673 101.499 15.3211C102.145 16.0787 102.473 17.2094 102.473 18.6827C102.473 20.1741 102.164 21.3197 101.556 22.086C100.952 22.8466 100.044 23.2329 98.8562 23.2329ZM99.0011 11.5109C96.7482 11.5109 94.959 12.1745 93.6841 13.4833C92.4094 14.7922 91.7626 16.6036 91.7626 18.8676C91.7626 21.0188 92.394 22.7476 93.6384 24.0077C94.8829 25.2682 96.5763 25.9068 98.6716 25.9068C100.855 25.9068 102.609 25.2339 103.884 23.907C105.158 22.5815 105.804 20.7872 105.804 18.5762C105.804 16.3922 105.198 14.6496 104.002 13.3979C102.805 12.1457 101.123 11.5109 99.0011 11.5109ZM86.8251 14.2202V11.8418H83.612V25.5756H86.8251V18.5502C86.8251 17.3556 87.0945 16.3742 87.6261 15.6329C88.1509 14.9005 88.8502 14.5293 89.7041 14.5293C89.9935 14.5293 90.3184 14.5773 90.6702 14.6722C91.0185 14.7666 91.2707 14.869 91.4194 14.9769L91.5545 15.0753V11.8183L91.5025 11.7958C91.2032 11.668 90.7799 11.6035 90.2443 11.6035C89.4369 11.6035 88.7143 11.8644 88.0954 12.378C87.5521 12.8294 87.1595 13.4484 86.8593 14.2202H86.8251ZM77.858 11.5109C76.3839 11.5109 75.0691 11.8287 73.9507 12.4552C72.8301 13.0832 71.9634 13.9797 71.3737 15.1196C70.7867 16.2568 70.4886 17.5852 70.4886 19.0666C70.4886 20.3642 70.7776 21.555 71.3488 22.6046C71.9203 23.6558 72.7292 24.4783 73.7531 25.0487C74.7756 25.6184 75.9574 25.9072 77.2659 25.9072C78.7929 25.9072 80.0966 25.6002 81.1418 24.9949L81.1841 24.9706V22.0108L81.049 22.1099C80.5755 22.4567 80.0464 22.7335 79.4771 22.9329C78.9092 23.1322 78.3914 23.2329 77.9374 23.2329C76.6766 23.2329 75.6645 22.8363 74.9299 22.0543C74.1936 21.2713 73.8203 20.1717 73.8203 18.7882C73.8203 17.3959 74.2096 16.2681 74.9768 15.436C75.7418 14.6063 76.7558 14.1854 77.9904 14.1854C79.0465 14.1854 80.0757 14.545 81.0493 15.2551L81.1841 15.3535V12.2349L81.1405 12.2103C80.7741 12.0041 80.2744 11.8338 79.6541 11.7047C79.0363 11.5758 78.4321 11.5109 77.858 11.5109ZM68.2757 11.8419H65.0626V25.5756H68.2757V11.8419ZM66.702 5.99125C66.1732 5.99125 65.7119 6.17226 65.333 6.53094C64.9525 6.89064 64.7595 7.34352 64.7595 7.878C64.7595 8.40406 64.9502 8.84869 65.3271 9.19882C65.7016 9.54794 66.1642 9.72488 66.7021 9.72488C67.2399 9.72488 67.7043 9.54793 68.0833 9.1994C68.4646 8.84869 68.6581 8.40421 68.6581 7.878C68.6581 7.36222 68.4698 6.91397 68.099 6.54544C67.7284 6.17762 67.2582 5.99125 66.702 5.99125ZM58.6852 10.8286V25.5756H61.9642V6.41167H57.4258L51.6572 20.6461L46.0591 6.41167H41.3359V25.5755H44.4174V10.8272H44.5232L50.4347 25.5756H52.7602L58.5794 10.8286H58.6852Z" fill="#706D6E"/>
<path d="M15.1153 15.2055H0V0.0078125H15.1153V15.2055Z" fill="#F1511B"/>
<path d="M31.7947 15.2055H16.6797V0.0078125H31.7947V15.2055Z" fill="#80CC28"/>
<path d="M15.1148 31.9905H0V16.793H15.1148V31.9905Z" fill="#00ADEF"/>
<path d="M31.7947 31.9905H16.6797V16.793H31.7947V31.9905Z" fill="#FBBC09"/>
</g>
<defs>
<clipPath id="clip0_2763_6757">
<rect width="149" height="32" fill="white"/>
</clipPath>
</defs>
</svg>
