<svg width="25" height="24" viewBox="0 0 25 24" fill="none" xmlns="http://www.w3.org/2000/svg">
<path d="M15.1656 11.2897L10.9256 7.0497C10.8327 6.95598 10.7221 6.88158 10.6002 6.83081C10.4784 6.78004 10.3476 6.75391 10.2156 6.75391C10.0836 6.75391 9.95292 6.78004 9.83106 6.83081C9.7092 6.88158 9.5986 6.95598 9.50564 7.0497C9.31939 7.23707 9.21484 7.49052 9.21484 7.7547C9.21484 8.01889 9.31939 8.27234 9.50564 8.4597L13.0456 11.9997L9.50564 15.5397C9.31939 15.7271 9.21484 15.9805 9.21484 16.2447C9.21484 16.5089 9.31939 16.7623 9.50564 16.9497C9.59908 17.0424 9.70989 17.1157 9.83173 17.1655C9.95357 17.2152 10.084 17.2405 10.2156 17.2397C10.3472 17.2405 10.4777 17.2152 10.5995 17.1655C10.7214 17.1157 10.8322 17.0424 10.9256 16.9497L15.1656 12.7097C15.2594 12.6167 15.3338 12.5061 15.3845 12.3843C15.4353 12.2624 15.4614 12.1317 15.4614 11.9997C15.4614 11.8677 15.4353 11.737 15.3845 11.6151C15.3338 11.4933 15.2594 11.3827 15.1656 11.2897Z" fill="#F0FDF4"/>
</svg>
