<svg width="37" height="37" viewBox="0 0 37 37" fill="none" xmlns="http://www.w3.org/2000/svg">
<mask id="path-1-outside-1_2763_13097" maskUnits="userSpaceOnUse" x="0" y="0" width="37" height="37" fill="black">
<rect fill="white" width="37" height="37"/>
<path d="M11.2083 20.6875C11.2083 20.285 11.535 19.9583 11.9375 19.9583H25.0625C25.465 19.9583 25.7917 20.285 25.7917 20.6875C25.7917 21.09 25.465 21.4167 25.0625 21.4167H11.9375C11.535 21.4167 11.2083 21.09 11.2083 20.6875ZM11.2083 9.02083V4.64583C11.2083 2.63625 12.8446 1 14.8542 1H22.1458C24.1554 1 25.7917 2.63625 25.7917 4.64583V9.02083C25.7917 11.0304 24.1554 12.6667 22.1458 12.6667C21.9767 12.6667 21.6077 12.7265 21.4779 12.8344L19.4727 14.494C19.2015 14.7346 18.8558 14.8556 18.5058 14.8556C18.15 14.8556 17.7927 14.7302 17.5083 14.4779L15.5221 12.8344C15.3923 12.7265 15.0233 12.6667 14.8542 12.6667C12.8446 12.6667 11.2083 11.0304 11.2083 9.02083ZM12.6667 9.02083C12.6667 10.2269 13.6481 11.2083 14.8542 11.2083C15.3631 11.2083 16.0617 11.3877 16.4525 11.71L18.4577 13.3696L20.5475 11.71C20.9383 11.3863 21.6383 11.2083 22.1458 11.2083C23.3519 11.2083 24.3333 10.2269 24.3333 9.02083V4.64583C24.3333 3.43979 23.3519 2.45833 22.1458 2.45833H14.8542C13.6481 2.45833 12.6667 3.43979 12.6667 4.64583V9.02083ZM28.7083 10.4792C28.7083 8.46958 30.3446 6.83333 32.3542 6.83333C34.3638 6.83333 36 8.46958 36 10.4792C36 12.4888 34.3638 14.125 32.3542 14.125C30.3446 14.125 28.7083 12.4888 28.7083 10.4792ZM30.1667 10.4792C30.1667 11.6852 31.1481 12.6667 32.3542 12.6667C33.5602 12.6667 34.5417 11.6852 34.5417 10.4792C34.5417 9.27313 33.5602 8.29167 32.3542 8.29167C31.1481 8.29167 30.1667 9.27313 30.1667 10.4792ZM35.2708 31.625H30.8958C29.6898 31.625 28.7083 32.6065 28.7083 33.8125V35.2708C28.7083 35.6733 29.035 36 29.4375 36C29.84 36 30.1667 35.6733 30.1667 35.2708V33.8125C30.1667 33.41 30.4933 33.0833 30.8958 33.0833H35.2708C35.6733 33.0833 36 32.7567 36 32.3542C36 31.9517 35.6733 31.625 35.2708 31.625ZM36 19.2292V25.0625C36 27.0721 34.3638 28.7083 32.3542 28.7083H27.25C26.4465 28.7083 25.7917 29.3631 25.7917 30.1667V35.2708C25.7917 35.6733 25.465 36 25.0625 36C24.66 36 24.3333 35.6733 24.3333 35.2708V30.1667C24.3333 28.5581 25.6415 27.25 27.25 27.25H28.7083V19.2292C28.7083 17.2196 30.3446 15.5833 32.3542 15.5833C34.3638 15.5833 36 17.2196 36 19.2292ZM34.5417 19.2292C34.5417 18.0231 33.5602 17.0417 32.3542 17.0417C31.1481 17.0417 30.1667 18.0231 30.1667 19.2292V27.25H32.3542C33.5602 27.25 34.5417 26.2685 34.5417 25.0625V19.2292ZM6.10417 31.625H1.72917C1.32667 31.625 1 31.9517 1 32.3542C1 32.7567 1.32667 33.0833 1.72917 33.0833H6.10417C6.50667 33.0833 6.83333 33.41 6.83333 33.8125V35.2708C6.83333 35.6733 7.16 36 7.5625 36C7.965 36 8.29167 35.6733 8.29167 35.2708V33.8125C8.29167 32.6065 7.31021 31.625 6.10417 31.625ZM1 10.4792C1 8.46958 2.63625 6.83333 4.64583 6.83333C6.65542 6.83333 8.29167 8.46958 8.29167 10.4792C8.29167 12.4888 6.65542 14.125 4.64583 14.125C2.63625 14.125 1 12.4888 1 10.4792ZM2.45833 10.4792C2.45833 11.6852 3.43979 12.6667 4.64583 12.6667C5.85188 12.6667 6.83333 11.6852 6.83333 10.4792C6.83333 9.27313 5.85188 8.29167 4.64583 8.29167C3.43979 8.29167 2.45833 9.27313 2.45833 10.4792ZM12.6667 30.1667V35.2708C12.6667 35.6733 12.34 36 11.9375 36C11.535 36 11.2083 35.6733 11.2083 35.2708V30.1667C11.2083 29.3631 10.5535 28.7083 9.75 28.7083H4.64583C2.63625 28.7083 1 27.0721 1 25.0625V19.2292C1 17.2196 2.63625 15.5833 4.64583 15.5833C6.65542 15.5833 8.29167 17.2196 8.29167 19.2292V27.25H9.75C11.3585 27.25 12.6667 28.5581 12.6667 30.1667ZM6.83333 19.2292C6.83333 18.0231 5.85188 17.0417 4.64583 17.0417C3.43979 17.0417 2.45833 18.0231 2.45833 19.2292V25.0625C2.45833 26.2685 3.43979 27.25 4.64583 27.25H6.83333V19.2292Z"/>
</mask>
<path d="M11.2083 20.6875C11.2083 20.285 11.535 19.9583 11.9375 19.9583H25.0625C25.465 19.9583 25.7917 20.285 25.7917 20.6875C25.7917 21.09 25.465 21.4167 25.0625 21.4167H11.9375C11.535 21.4167 11.2083 21.09 11.2083 20.6875ZM11.2083 9.02083V4.64583C11.2083 2.63625 12.8446 1 14.8542 1H22.1458C24.1554 1 25.7917 2.63625 25.7917 4.64583V9.02083C25.7917 11.0304 24.1554 12.6667 22.1458 12.6667C21.9767 12.6667 21.6077 12.7265 21.4779 12.8344L19.4727 14.494C19.2015 14.7346 18.8558 14.8556 18.5058 14.8556C18.15 14.8556 17.7927 14.7302 17.5083 14.4779L15.5221 12.8344C15.3923 12.7265 15.0233 12.6667 14.8542 12.6667C12.8446 12.6667 11.2083 11.0304 11.2083 9.02083ZM12.6667 9.02083C12.6667 10.2269 13.6481 11.2083 14.8542 11.2083C15.3631 11.2083 16.0617 11.3877 16.4525 11.71L18.4577 13.3696L20.5475 11.71C20.9383 11.3863 21.6383 11.2083 22.1458 11.2083C23.3519 11.2083 24.3333 10.2269 24.3333 9.02083V4.64583C24.3333 3.43979 23.3519 2.45833 22.1458 2.45833H14.8542C13.6481 2.45833 12.6667 3.43979 12.6667 4.64583V9.02083ZM28.7083 10.4792C28.7083 8.46958 30.3446 6.83333 32.3542 6.83333C34.3638 6.83333 36 8.46958 36 10.4792C36 12.4888 34.3638 14.125 32.3542 14.125C30.3446 14.125 28.7083 12.4888 28.7083 10.4792ZM30.1667 10.4792C30.1667 11.6852 31.1481 12.6667 32.3542 12.6667C33.5602 12.6667 34.5417 11.6852 34.5417 10.4792C34.5417 9.27313 33.5602 8.29167 32.3542 8.29167C31.1481 8.29167 30.1667 9.27313 30.1667 10.4792ZM35.2708 31.625H30.8958C29.6898 31.625 28.7083 32.6065 28.7083 33.8125V35.2708C28.7083 35.6733 29.035 36 29.4375 36C29.84 36 30.1667 35.6733 30.1667 35.2708V33.8125C30.1667 33.41 30.4933 33.0833 30.8958 33.0833H35.2708C35.6733 33.0833 36 32.7567 36 32.3542C36 31.9517 35.6733 31.625 35.2708 31.625ZM36 19.2292V25.0625C36 27.0721 34.3638 28.7083 32.3542 28.7083H27.25C26.4465 28.7083 25.7917 29.3631 25.7917 30.1667V35.2708C25.7917 35.6733 25.465 36 25.0625 36C24.66 36 24.3333 35.6733 24.3333 35.2708V30.1667C24.3333 28.5581 25.6415 27.25 27.25 27.25H28.7083V19.2292C28.7083 17.2196 30.3446 15.5833 32.3542 15.5833C34.3638 15.5833 36 17.2196 36 19.2292ZM34.5417 19.2292C34.5417 18.0231 33.5602 17.0417 32.3542 17.0417C31.1481 17.0417 30.1667 18.0231 30.1667 19.2292V27.25H32.3542C33.5602 27.25 34.5417 26.2685 34.5417 25.0625V19.2292ZM6.10417 31.625H1.72917C1.32667 31.625 1 31.9517 1 32.3542C1 32.7567 1.32667 33.0833 1.72917 33.0833H6.10417C6.50667 33.0833 6.83333 33.41 6.83333 33.8125V35.2708C6.83333 35.6733 7.16 36 7.5625 36C7.965 36 8.29167 35.6733 8.29167 35.2708V33.8125C8.29167 32.6065 7.31021 31.625 6.10417 31.625ZM1 10.4792C1 8.46958 2.63625 6.83333 4.64583 6.83333C6.65542 6.83333 8.29167 8.46958 8.29167 10.4792C8.29167 12.4888 6.65542 14.125 4.64583 14.125C2.63625 14.125 1 12.4888 1 10.4792ZM2.45833 10.4792C2.45833 11.6852 3.43979 12.6667 4.64583 12.6667C5.85188 12.6667 6.83333 11.6852 6.83333 10.4792C6.83333 9.27313 5.85188 8.29167 4.64583 8.29167C3.43979 8.29167 2.45833 9.27313 2.45833 10.4792ZM12.6667 30.1667V35.2708C12.6667 35.6733 12.34 36 11.9375 36C11.535 36 11.2083 35.6733 11.2083 35.2708V30.1667C11.2083 29.3631 10.5535 28.7083 9.75 28.7083H4.64583C2.63625 28.7083 1 27.0721 1 25.0625V19.2292C1 17.2196 2.63625 15.5833 4.64583 15.5833C6.65542 15.5833 8.29167 17.2196 8.29167 19.2292V27.25H9.75C11.3585 27.25 12.6667 28.5581 12.6667 30.1667ZM6.83333 19.2292C6.83333 18.0231 5.85188 17.0417 4.64583 17.0417C3.43979 17.0417 2.45833 18.0231 2.45833 19.2292V25.0625C2.45833 26.2685 3.43979 27.25 4.64583 27.25H6.83333V19.2292Z" fill="white"/>
<path d="M11.2083 20.6875C11.2083 20.285 11.535 19.9583 11.9375 19.9583H25.0625C25.465 19.9583 25.7917 20.285 25.7917 20.6875C25.7917 21.09 25.465 21.4167 25.0625 21.4167H11.9375C11.535 21.4167 11.2083 21.09 11.2083 20.6875ZM11.2083 9.02083V4.64583C11.2083 2.63625 12.8446 1 14.8542 1H22.1458C24.1554 1 25.7917 2.63625 25.7917 4.64583V9.02083C25.7917 11.0304 24.1554 12.6667 22.1458 12.6667C21.9767 12.6667 21.6077 12.7265 21.4779 12.8344L19.4727 14.494C19.2015 14.7346 18.8558 14.8556 18.5058 14.8556C18.15 14.8556 17.7927 14.7302 17.5083 14.4779L15.5221 12.8344C15.3923 12.7265 15.0233 12.6667 14.8542 12.6667C12.8446 12.6667 11.2083 11.0304 11.2083 9.02083ZM12.6667 9.02083C12.6667 10.2269 13.6481 11.2083 14.8542 11.2083C15.3631 11.2083 16.0617 11.3877 16.4525 11.71L18.4577 13.3696L20.5475 11.71C20.9383 11.3863 21.6383 11.2083 22.1458 11.2083C23.3519 11.2083 24.3333 10.2269 24.3333 9.02083V4.64583C24.3333 3.43979 23.3519 2.45833 22.1458 2.45833H14.8542C13.6481 2.45833 12.6667 3.43979 12.6667 4.64583V9.02083ZM28.7083 10.4792C28.7083 8.46958 30.3446 6.83333 32.3542 6.83333C34.3638 6.83333 36 8.46958 36 10.4792C36 12.4888 34.3638 14.125 32.3542 14.125C30.3446 14.125 28.7083 12.4888 28.7083 10.4792ZM30.1667 10.4792C30.1667 11.6852 31.1481 12.6667 32.3542 12.6667C33.5602 12.6667 34.5417 11.6852 34.5417 10.4792C34.5417 9.27313 33.5602 8.29167 32.3542 8.29167C31.1481 8.29167 30.1667 9.27313 30.1667 10.4792ZM35.2708 31.625H30.8958C29.6898 31.625 28.7083 32.6065 28.7083 33.8125V35.2708C28.7083 35.6733 29.035 36 29.4375 36C29.84 36 30.1667 35.6733 30.1667 35.2708V33.8125C30.1667 33.41 30.4933 33.0833 30.8958 33.0833H35.2708C35.6733 33.0833 36 32.7567 36 32.3542C36 31.9517 35.6733 31.625 35.2708 31.625ZM36 19.2292V25.0625C36 27.0721 34.3638 28.7083 32.3542 28.7083H27.25C26.4465 28.7083 25.7917 29.3631 25.7917 30.1667V35.2708C25.7917 35.6733 25.465 36 25.0625 36C24.66 36 24.3333 35.6733 24.3333 35.2708V30.1667C24.3333 28.5581 25.6415 27.25 27.25 27.25H28.7083V19.2292C28.7083 17.2196 30.3446 15.5833 32.3542 15.5833C34.3638 15.5833 36 17.2196 36 19.2292ZM34.5417 19.2292C34.5417 18.0231 33.5602 17.0417 32.3542 17.0417C31.1481 17.0417 30.1667 18.0231 30.1667 19.2292V27.25H32.3542C33.5602 27.25 34.5417 26.2685 34.5417 25.0625V19.2292ZM6.10417 31.625H1.72917C1.32667 31.625 1 31.9517 1 32.3542C1 32.7567 1.32667 33.0833 1.72917 33.0833H6.10417C6.50667 33.0833 6.83333 33.41 6.83333 33.8125V35.2708C6.83333 35.6733 7.16 36 7.5625 36C7.965 36 8.29167 35.6733 8.29167 35.2708V33.8125C8.29167 32.6065 7.31021 31.625 6.10417 31.625ZM1 10.4792C1 8.46958 2.63625 6.83333 4.64583 6.83333C6.65542 6.83333 8.29167 8.46958 8.29167 10.4792C8.29167 12.4888 6.65542 14.125 4.64583 14.125C2.63625 14.125 1 12.4888 1 10.4792ZM2.45833 10.4792C2.45833 11.6852 3.43979 12.6667 4.64583 12.6667C5.85188 12.6667 6.83333 11.6852 6.83333 10.4792C6.83333 9.27313 5.85188 8.29167 4.64583 8.29167C3.43979 8.29167 2.45833 9.27313 2.45833 10.4792ZM12.6667 30.1667V35.2708C12.6667 35.6733 12.34 36 11.9375 36C11.535 36 11.2083 35.6733 11.2083 35.2708V30.1667C11.2083 29.3631 10.5535 28.7083 9.75 28.7083H4.64583C2.63625 28.7083 1 27.0721 1 25.0625V19.2292C1 17.2196 2.63625 15.5833 4.64583 15.5833C6.65542 15.5833 8.29167 17.2196 8.29167 19.2292V27.25H9.75C11.3585 27.25 12.6667 28.5581 12.6667 30.1667ZM6.83333 19.2292C6.83333 18.0231 5.85188 17.0417 4.64583 17.0417C3.43979 17.0417 2.45833 18.0231 2.45833 19.2292V25.0625C2.45833 26.2685 3.43979 27.25 4.64583 27.25H6.83333V19.2292Z" stroke="white" stroke-width="2" mask="url(#path-1-outside-1_2763_13097)"/>
</svg>
