<svg width="72" height="28" viewBox="0 0 72 28" fill="none" xmlns="http://www.w3.org/2000/svg">
<path d="M14.5538 25.702V27.5888H0.90625V25.702H14.5538ZM35.8815 25.702C34.5125 26.9199 32.7193 27.5936 30.8597 27.5887L16.5034 27.5701V25.702H35.8815ZM56.1737 25.702L55.493 27.5887L54.8182 25.702H56.1737ZM49.6472 25.702V27.5888H39.899V25.702H49.6472ZM71.0931 25.702V27.5888H61.3449V25.702H71.0931ZM38.0898 22.1002C37.9225 22.762 37.6583 23.3974 37.3054 23.9869H16.5034V22.1002H38.0898ZM57.4803 22.1002L56.7961 23.987H54.196L53.5117 22.1002H57.4803ZM49.6472 22.1002V23.9869H39.899V22.1002H49.6472ZM71.0931 22.1002V23.9869H61.3449V22.1002H71.0931ZM14.5538 22.1002V23.9869H0.90625V22.1002H14.5538ZM10.6543 18.498V20.3849H4.80546V18.498H10.6543ZM26.2514 18.498V20.3849H20.4024V18.498H26.2514ZM38.0429 18.498C38.2157 19.1131 38.3033 19.7475 38.3036 20.3849H31.746V18.498H38.0429ZM58.7869 18.498L58.1025 20.3849H52.8893L52.2047 18.498H58.7869ZM49.647 18.498V20.3849H43.7981V18.498H49.647ZM67.1937 18.498V20.3849H61.3448V18.498H67.1937ZM10.6543 14.8961V16.7829H4.80546V14.8961H10.6543ZM49.647 14.8961V16.7829H43.7981V14.8961H49.647ZM67.1937 14.8961V16.7829H61.3448V14.8961H67.1937ZM35.6768 14.8961C36.3261 15.4307 36.8761 16.0687 37.3031 16.7827H20.4026V14.896L35.6768 14.8961ZM60.0936 14.8961L59.4093 16.7829H51.5825L50.8982 14.896L60.0936 14.8961ZM54.9478 11.2942L55.4958 12.8193L56.0438 11.2942H67.1936V13.181H61.3451V11.4475L60.7159 13.1811H50.2761L49.647 11.4472V13.1811H43.7984V11.2942H54.9478ZM20.4024 11.2942H37.3033C36.8764 12.0083 36.3263 12.6464 35.677 13.181H20.4026L20.4024 11.2942ZM10.6543 11.2942V13.181H4.80546V11.2941L10.6543 11.2942ZM10.6543 7.69222V9.57893H4.80546V7.69222H10.6543ZM26.2514 7.69222V9.57893H20.4024V7.69222H26.2514ZM38.3038 7.69222C38.3034 8.32952 38.2157 8.96396 38.0429 9.57893H31.746V7.69222H38.3038ZM53.6534 7.69222L54.3315 9.57893H43.7984V7.69222H53.6534ZM67.1936 7.69222V9.57893H56.6604L57.3382 7.69222H67.1936ZM14.5535 4.09019V5.97703H0.90625V4.09005L14.5535 4.09019ZM37.3053 4.09019C37.6582 4.67975 37.9223 5.31507 38.0896 5.9769H16.5031V4.09019H37.3053ZM71.0929 4.09019V5.9769H57.9546L58.6326 4.09019H71.0929ZM52.3591 4.09019L53.0371 5.9769H39.8989V4.09019H52.3591ZM14.5539 0.48842V2.375H0.90625V0.488288L14.5539 0.48842ZM30.8597 0.488288C32.7188 0.485852 34.5111 1.15922 35.8815 2.375H16.5034V0.488288H30.8597ZM71.0931 0.488288V2.37513H59.2491L59.9271 0.48842L71.0931 0.488288ZM51.0652 0.488288L51.743 2.37513H39.899V0.48842L51.0652 0.488288Z" fill="#1F70C1"/>
</svg>
