<svg width="79" height="29" viewBox="0 0 79 29" fill="none" xmlns="http://www.w3.org/2000/svg">
<path d="M0.765625 0V17.4258C0.765625 23.9877 5.00729 28.3248 10.5391 28.3248C13.23 28.3248 15.6278 27.2142 17.3609 25.267V27.8538H21.1921V0H17.3218V17.1798C17.3218 21.5977 14.5527 24.5817 10.9789 24.5817C7.36269 24.5817 4.63916 21.675 4.63916 17.1798V0.0035161H0.765625V0ZM25.0037 0V27.8538H28.6851V25.3057C30.3824 27.1755 32.7801 28.3283 35.3961 28.3283C36.6909 28.3413 37.9753 28.0772 39.1748 27.5512C40.3743 27.0252 41.4653 26.2478 42.3845 25.2639C43.3037 24.2801 44.033 23.1093 44.53 21.8194C45.0271 20.5295 45.2821 19.1461 45.2803 17.7491C45.2864 16.3489 45.0348 14.9613 44.54 13.6668C44.0452 12.3722 43.3172 11.1966 42.398 10.2079C41.4789 9.21924 40.387 8.43727 39.1856 7.90733C37.9842 7.37739 36.6973 7.11003 35.3994 7.12074C34.1559 7.11905 32.9246 7.38593 31.7782 7.90565C30.6317 8.42537 29.5933 9.18742 28.7242 10.1469V0.0035161H25.0005L25.0037 0ZM57.1551 7.16292C51.6591 7.16292 47.4957 11.978 47.4957 17.707C47.4957 23.7522 51.8416 28.2861 57.4841 28.2861C60.9146 28.2861 63.7163 26.6588 65.5961 23.9525L62.9051 21.8051C61.5042 23.833 59.6603 24.782 57.4841 24.782C54.3143 24.782 51.7732 22.3217 51.2552 19.0179H66.5571V17.707C66.5571 11.6617 62.5761 7.16292 57.1551 7.16292ZM77.663 7.40192C75.5975 7.40192 74.0859 8.43523 73.1639 10.066V7.56008H69.4794V27.8538H73.1998V16.3081C73.1998 13.166 74.972 11.1415 77.4056 11.1415H78.9531V7.3984H77.663V7.40192ZM57.0769 10.6635C59.846 10.6635 62.1721 12.7302 62.7976 15.8301H51.3268C51.9882 12.7302 54.311 10.6635 57.0769 10.6635ZM35.1453 10.7057C38.6833 10.7057 41.5958 13.8092 41.5958 17.7491C41.6027 19.6039 40.9275 21.3859 39.7183 22.7043C38.509 24.0227 36.8645 24.7699 35.1453 24.782C34.29 24.7839 33.4428 24.603 32.6525 24.2499C31.8623 23.8968 31.1447 23.3784 30.5411 22.7246C29.9375 22.0708 29.4598 21.2945 29.1357 20.4406C28.8116 19.5866 28.6473 18.6719 28.6525 17.7491C28.6465 16.8259 28.8099 15.9105 29.1334 15.0558C29.4569 14.2011 29.9341 13.4239 30.5374 12.7691C31.1407 12.1144 31.8582 11.5949 32.6485 11.2408C33.4388 10.8866 34.2863 10.7048 35.142 10.7057H35.1453Z" fill="black"/>
</svg>
