<svg width="71" height="28" viewBox="0 0 71 28" fill="none" xmlns="http://www.w3.org/2000/svg">
<path d="M13.6475 25.2137V27.1005H0V25.2137H13.6475ZM34.9753 25.2137C33.6063 26.4317 31.8131 27.1054 29.9535 27.1004L15.5971 27.0818V25.2137H34.9753ZM55.2675 25.2137L54.5867 27.1004L53.912 25.2137H55.2675ZM48.7409 25.2137V27.1005H38.9928V25.2137H48.7409ZM70.1868 25.2137V27.1005H60.4387V25.2137H70.1868ZM37.1835 21.6119C37.0162 22.2738 36.7521 22.9091 36.3991 23.4986H15.5971V21.6119H37.1835ZM56.574 21.6119L55.8898 23.4988H53.2898L52.6054 21.6119H56.574ZM48.7409 21.6119V23.4986H38.9928V21.6119H48.7409ZM70.1868 21.6119V23.4986H60.4387V21.6119H70.1868ZM13.6475 21.6119V23.4986H0V21.6119H13.6475ZM9.74802 18.0098V19.8966H3.89921V18.0098H9.74802ZM25.3451 18.0098V19.8966H19.4962V18.0098H25.3451ZM37.1367 18.0098C37.3094 18.6248 37.3971 19.2593 37.3974 19.8966H30.8397V18.0098H37.1367ZM57.8807 18.0098L57.1962 19.8966H51.9831L51.2985 18.0098H57.8807ZM48.7408 18.0098V19.8966H42.8918V18.0098H48.7408ZM66.2875 18.0098V19.8966H60.4385V18.0098H66.2875ZM9.74802 14.4079V16.2946H3.89921V14.4079H9.74802ZM48.7408 14.4079V16.2946H42.8918V14.4079H48.7408ZM66.2875 14.4079V16.2946H60.4385V14.4079H66.2875ZM34.7706 14.4079C35.4199 14.9424 35.9699 15.5804 36.3968 16.2944H19.4963V14.4077L34.7706 14.4079ZM59.1874 14.4079L58.5031 16.2946H50.6763L49.9919 14.4077L59.1874 14.4079ZM54.0415 10.806L54.5896 12.331L55.1375 10.806H66.2874V12.6927H60.4388V10.9592L59.8096 12.6928H49.3699L48.7408 10.9589V12.6928H42.8921V10.806H54.0415ZM19.4962 10.806H36.3971C35.9701 11.52 35.4201 12.1581 34.7707 12.6927H19.4963L19.4962 10.806ZM9.74802 10.806V12.6927H3.89921V10.8058L9.74802 10.806ZM9.74802 7.20393V9.09065H3.89921V7.20393H9.74802ZM25.3451 7.20393V9.09065H19.4962V7.20393H25.3451ZM37.3975 7.20393C37.3972 7.84124 37.3094 8.47567 37.1367 9.09065H30.8397V7.20393H37.3975ZM52.7472 7.20393L53.4252 9.09065H42.8921V7.20393H52.7472ZM66.2874 7.20393V9.09065H55.7541L56.432 7.20393H66.2874ZM13.6472 3.6019V5.48875H0V3.60177L13.6472 3.6019ZM36.399 3.6019C36.7519 4.19147 37.0161 4.82678 37.1834 5.48862H15.5968V3.6019H36.399ZM70.1867 3.6019V5.48862H57.0483L57.7263 3.6019H70.1867ZM51.4528 3.6019L52.1309 5.48862H38.9926V3.6019H51.4528ZM13.6476 0.000139246V1.88672H0V6.58439e-06L13.6476 0.000139246ZM29.9535 6.58439e-06C31.8126 -0.00242904 33.6048 0.670934 34.9753 1.88672H15.5971V6.58439e-06H29.9535ZM70.1868 6.58439e-06V1.88685H58.3428L59.0208 0.000139246L70.1868 6.58439e-06ZM50.1589 6.58439e-06L50.8368 1.88685H38.9928V0.000139246L50.1589 6.58439e-06Z" fill="#1F70C1"/>
</svg>
