<svg width="36" height="37" viewBox="0 0 36 37" fill="none" xmlns="http://www.w3.org/2000/svg">
<path d="M10.568 14.4128C12.3816 14.4128 14.1209 13.6536 15.4033 12.3021C16.6857 10.9506 17.4062 9.11766 17.4062 7.2064C17.4062 5.29514 16.6857 3.46217 15.4033 2.11071C14.1209 0.759244 12.3816 0 10.568 0C8.75444 0 7.01513 0.759244 5.73273 2.11071C4.45034 3.46217 3.72989 5.29514 3.72989 7.2064C3.72989 9.11766 4.45034 10.9506 5.73273 12.3021C7.01513 13.6536 8.75444 14.4128 10.568 14.4128ZM26.1092 14.4128C27.4282 14.4128 28.6932 13.8606 29.6258 12.8777C30.5585 11.8949 31.0824 10.5618 31.0824 9.17178C31.0824 7.78178 30.5585 6.4487 29.6258 5.46582C28.6932 4.48294 27.4282 3.93076 26.1092 3.93076C24.7903 3.93076 23.5253 4.48294 22.5927 5.46582C21.66 6.4487 21.136 7.78178 21.136 9.17178C21.136 10.5618 21.66 11.8949 22.5927 12.8777C23.5253 13.8606 24.7903 14.4128 26.1092 14.4128ZM14.9196 26.2051C14.9196 22.6517 16.4115 19.4665 18.7688 17.3045C18.3347 17.1249 17.8725 17.0329 17.4062 17.0333H3.72989C2.74066 17.0333 1.79195 17.4474 1.09246 18.1846C0.39297 18.9218 0 19.9216 0 20.9641V21.1606C0 21.1606 0 28.8256 10.568 28.8256C12.3609 28.8256 13.8503 28.6055 15.0849 28.2386C14.9745 27.567 14.9192 26.8867 14.9196 26.2051ZM35.434 26.2051C35.434 28.8113 34.4515 31.3109 32.7028 33.1538C30.9541 34.9967 28.5823 36.032 26.1092 36.032C23.6362 36.032 21.2644 34.9967 19.5157 33.1538C17.7669 31.3109 16.7845 28.8113 16.7845 26.2051C16.7845 23.5988 17.7669 21.0993 19.5157 19.2564C21.2644 17.4135 23.6362 16.3782 26.1092 16.3782C28.5823 16.3782 30.9541 17.4135 32.7028 19.2564C34.4515 21.0993 35.434 23.5988 35.434 26.2051ZM25.224 19.8346L24.0553 23.54H20.3329C19.424 23.54 19.0523 24.7691 19.7933 25.3233L22.7847 27.5599L21.6296 31.2181C21.3462 32.1183 22.3197 32.8782 23.0545 32.3292L26.1092 30.0454L29.164 32.3292C29.8988 32.8795 30.8723 32.1196 30.5888 31.2181L29.4326 27.5599L32.4252 25.3233C33.1674 24.7691 32.7944 23.54 31.8856 23.54H28.1632L26.9945 19.8346C26.711 18.9384 25.5075 18.9384 25.224 19.8346Z" fill="#F7FCFF"/>
</svg>
