<svg width="13" height="14" viewBox="0 0 13 14" fill="none" xmlns="http://www.w3.org/2000/svg">
<g clip-path="url(#clip0_2854_6554)">
<path d="M11.5239 1.73771C9.81014 3.22093 8.36023 4.63285 7.03281 6.47499C6.4474 7.28749 5.79639 8.2438 5.37084 9.1467C5.1279 9.62546 4.68997 10.3736 4.54067 11.0928C3.72411 10.3331 2.84701 9.47088 1.94961 8.79549C1.30997 8.31429 -0.532378 9.29538 0.217559 9.85966C1.56164 10.8706 2.67943 12.1298 3.98675 13.1858C4.53356 13.627 5.7454 12.6689 6.03018 12.2669C6.96496 10.9425 7.09273 9.32362 7.77401 7.87899C8.81421 5.6696 10.659 3.85468 12.4804 2.27863C13.6872 1.15312 12.4408 0.945523 11.5257 1.73771" fill="#37B34A"/>
</g>
<defs>
<clipPath id="clip0_2854_6554">
<rect width="13" height="13" fill="white" transform="translate(0 0.707031)"/>
</clipPath>
</defs>
</svg>
