<svg width="13" height="14" viewBox="0 0 13 14" fill="none" xmlns="http://www.w3.org/2000/svg">
<path d="M8.3897 7.20853L11.8623 3.73599C12.2192 3.37904 12.2192 2.80034 11.8623 2.4434L11.2647 1.84583C10.9077 1.48889 10.329 1.48889 9.9721 1.84583L6.49955 5.31838L3.027 1.84583C2.67006 1.48889 2.09136 1.48889 1.73442 1.84583L1.13685 2.4434C0.779905 2.80034 0.779905 3.37904 1.13685 3.73599L4.6094 7.20853L1.13685 10.6811C0.779905 11.038 0.779905 11.6167 1.13685 11.9737L1.73442 12.5712C2.09136 12.9282 2.67006 12.9282 3.027 12.5712L6.49955 9.09869L9.9721 12.5712C10.329 12.9282 10.9077 12.9282 11.2647 12.5712L11.8623 11.9737C12.2192 11.6167 12.2192 11.038 11.8623 10.6811L8.3897 7.20853Z" fill="#FF473E"/>
</svg>
